<?xml version="1.0" encoding="utf-8"?>
<!-- Generator: Adobe Illustrator 22.1.0, SVG Export Plug-In . SVG Version: 6.00 Build 0)  -->
<svg version="1.1" id="Layer_1" xmlns="http://www.w3.org/2000/svg" xmlns:xlink="http://www.w3.org/1999/xlink" x="0px" y="0px"
	 viewBox="0 0 120 120" style="enable-background:new 0 0 120 120;" xml:space="preserve">
<style type="text/css">
	.st0{fill:#FFFFFF;}
</style>
<rect x="-10.5" y="-10.5" width="141.1" height="141.1"/>
<g>
	<path class="st0" d="M27,83.6c-6.1-0.3-10.6-0.4-13.5-0.4c-0.9,0-2.2,0.1-3.7,0.2c-1.2,0.2-2.9,0.2-5,0.2c-1.6,0-2.4-0.4-2.4-1.1
		c0-0.4,0.2-0.7,0.5-0.8c0.3-0.1,1.1-0.3,2.2-0.5c2.1-0.4,3.6-1,4.4-1.9c0.8-0.9,1.2-2.3,1.2-4.3V37.5c0-1.9-0.4-3.3-1.2-4.2
		c-0.8-0.9-2.3-1.5-4.4-1.9c-1.1-0.2-1.8-0.3-2.2-0.5c-0.4-0.2-0.6-0.5-0.6-1c0-0.7,0.8-1.1,2.4-1.1l4.7,0.1
		c0.8,0.1,2.3,0.1,4.5,0.1c2.3,0,5.1-0.1,8.6-0.4c1.2-0.1,2.2-0.1,3.2-0.2c1-0.1,1.8-0.1,2.5-0.1c7.2,0,13.2,1.2,17.9,3.5
		c4.7,2.3,8.2,5.4,10.4,9.4c2.2,4,3.3,8.5,3.3,13.5c0,5.2-1.3,10.1-3.9,14.5c-2.6,4.5-6.1,8-10.6,10.6c-4.4,2.6-9.3,3.9-14.5,3.9
		L27,83.6z M41.3,77.7c3.4-2.1,6-5,7.8-8.8c1.9-3.7,2.8-8,2.8-12.8c0-5.1-1.1-9.6-3.3-13.4c-2.2-3.8-5.1-6.8-8.7-8.8
		c-3.6-2-7.3-3-11.2-3c-2.9,0-5.1,0.1-6.6,0.2c-1.5,0.2-2.6,0.6-3.5,1.3c-0.8,0.7-1.2,1.9-1.2,3.5v37.1c0,3.1,1.1,5.1,3.4,6.2
		c2.2,1.1,5.3,1.6,9.1,1.6C34.1,80.8,38,79.8,41.3,77.7z"/>
	<path class="st0" d="M65.3,82.7c0-0.4,0.2-0.7,0.7-0.9c0.4-0.2,1.1-0.4,2.1-0.6c2.1-0.4,3.6-1,4.4-2c0.8-0.9,1.2-2.4,1.2-4.5V37.3
		c0-1.9-0.4-3.2-1.2-4.1c-0.8-0.8-2.3-1.4-4.4-1.8c-1.8-0.3-2.7-0.9-2.7-1.7c0-0.6,0.8-0.9,2.4-0.9l5.2,0.1c0.8,0.1,2.2,0.1,4.2,0.1
		c1.6,0,2.6,0,3.2-0.1l4.8-0.1c1.6,0,2.4,0.3,2.4,0.9c0,0.8-0.9,1.3-2.7,1.7c-1.9,0.3-3.2,0.9-3.7,1.8c-0.5,0.9-0.8,2.2-0.8,4.1
		v15.6c0,1.1,0.1,1.6,0.4,1.6s0.6-0.2,1.1-0.5c0.4-0.3,0.8-0.7,1.2-1l16.6-17c0.8-0.8,1.2-1.7,1.2-2.5c0-0.4-0.1-0.8-0.4-1.2
		c-0.3-0.4-0.7-0.6-1.2-0.7c-0.9-0.3-1.6-0.5-2-0.7c-0.4-0.2-0.6-0.5-0.6-0.9c0-0.6,0.8-0.9,2.4-0.9h4.5c1.3,0,4.8-0.1,10.7-0.2
		l2.8-0.1c0.6,0,1,0.1,1.3,0.2c0.3,0.2,0.5,0.4,0.5,0.7c0,0.8-0.9,1.3-2.7,1.7c-5.2,0.9-9.4,2.8-12.6,5.5c-3,2.5-5.7,4.9-8,7.2
		s-5,5.1-7.9,8.3c-0.1,0.1-0.2,0.2-0.2,0.4c0,0.3,0.2,0.7,0.6,1.1l20.1,21.5c1.9,2.2,3.4,3.6,4.3,4.2c0.9,0.6,2.6,1.2,4.8,1.7
		c1,0.2,1.7,0.4,2.1,0.7s0.6,0.5,0.6,0.8c0,0.6-0.8,0.9-2.4,0.9c-2.2,0-4.2-0.1-6-0.2c-2.2-0.1-4.1-0.2-5.6-0.2h-2.3
		c-0.7,0.1-2.2,0.1-4.4,0.1c-1.6,0-2.4-0.3-2.4-0.9c0-0.4,0.2-0.7,0.5-0.9c0.3-0.2,0.9-0.4,1.7-0.5c1.6-0.4,2.3-0.9,2.3-1.7
		c0-0.4-0.4-1.1-1.2-2.1L82.6,57.7c-0.9-0.9-1.6-1.4-1.9-1.4c-0.2,0-0.3,0.4-0.3,1.2c0,3.4,0.1,8.9,0.4,16.6c0.1,2,0.5,3.6,1.3,4.8
		c0.7,1.2,2.1,2,4,2.3c0.9,0.2,1.6,0.4,2.1,0.6c0.4,0.2,0.7,0.5,0.7,0.9c0,0.6-0.8,0.9-2.4,0.9c-1.8,0-3.4-0.1-4.8-0.3
		c-1-0.2-2.1-0.2-3.3-0.2c-0.9,0-1.9,0-2.9,0.1c-1,0.1-1.7,0.1-2.1,0.1c-2.1,0.2-3.9,0.3-5.5,0.3C66.1,83.6,65.3,83.3,65.3,82.7z"/>
</g>
<g>
</g>
<g>
</g>
<g>
</g>
<g>
</g>
<g>
</g>
<g>
</g>
</svg>
