<?xml version="1.0" encoding="utf-8"?>
<!-- Generator: Adobe Illustrator 22.1.0, SVG Export Plug-In . SVG Version: 6.00 Build 0)  -->
<svg version="1.1" xmlns="http://www.w3.org/2000/svg" xmlns:xlink="http://www.w3.org/1999/xlink" x="0px" y="0px"
	 viewBox="0 0 696.3 333" style="enable-background:new 0 0 696.3 333;" xml:space="preserve">
<style type="text/css">
	.st0{clip-path:url(#SVGID_2_);fill:url(#XMLID_4_);}
	.st1{font-family:'Garamond';}
	.st2{font-size:75.1167px;}
	.st3{clip-path:url(#SVGID_4_);fill:url(#XMLID_5_);}
	.st4{font-size:61.5125px;}
	.st5{display:none;clip-path:url(#SVGID_6_);fill:url(#XMLID_6_);}
</style>
<g id="Layer_2">
	<rect x="-90.3" y="-14" width="796.7" height="370"/>
</g>
<g id="Layer_1">
	<g>
		<g>
			<defs>
				<path id="SVGID_1_" d="M229.8,78.2c0.2,0,0.4,0.2,0.4,0.4c0,0.2-0.2,0.4-0.4,0.4c-0.2,0-0.4-0.2-0.4-0.4S229.6,78.2,229.8,78.2z
					 M238.5,85.3c0,0.4,0.4,0.8,0.8,0.8c0.4,0,0.8-0.4,0.8-0.8s-0.4-0.8-0.8-0.8C238.8,84.6,238.5,84.9,238.5,85.3z M249.7,87
					c0,0.6,0.5,1.1,1.1,1.1c0.6,0,1.1-0.5,1.1-1.1s-0.5-1.1-1.1-1.1C250.2,85.9,249.7,86.4,249.7,87z M260.4,83.3
					c0,0.8,0.6,1.4,1.4,1.4c0.8,0,1.4-0.6,1.4-1.4s-0.6-1.4-1.4-1.4C261,81.9,260.4,82.6,260.4,83.3z M275.8,55.2c1.1,0,2-0.9,2-2
					s-0.9-2-2-2s-2,0.9-2,2S274.7,55.2,275.8,55.2z M271.9,40.1c-1.2,0-2.2,1-2.2,2.2c0,1.2,1,2.2,2.2,2.2c1.2,0,2.2-1,2.2-2.2
					C274.1,41.1,273.1,40.1,271.9,40.1z M261.9,33.5c0,1.3,1,2.3,2.3,2.3c1.3,0,2.3-1,2.3-2.3c0-1.3-1-2.3-2.3-2.3
					C263,31.2,261.9,32.3,261.9,33.5z M251.7,27.8c0,1.3,1.1,2.4,2.4,2.4s2.4-1.1,2.4-2.4c0-1.3-1.1-2.4-2.4-2.4
					C252.7,25.4,251.7,26.5,251.7,27.8z M242.6,22.9c-1.4,0-2.5,1.1-2.5,2.5s1.1,2.5,2.5,2.5c1.4,0,2.5-1.1,2.5-2.5
					C245.1,24,244,22.9,242.6,22.9z M228.5,26.5c0,1.4,1.1,2.5,2.5,2.5c1.4,0,2.5-1.1,2.5-2.5S232.4,24,231,24
					C229.6,24,228.5,25.1,228.5,26.5z M222.7,30.9c0-1.4-1.1-2.5-2.5-2.5c-1.4,0-2.5,1.1-2.5,2.5c0,1.4,1.1,2.5,2.5,2.5
					C221.6,33.4,222.7,32.3,222.7,30.9z M213.5,38c0-1.4-1.2-2.6-2.6-2.6c-1.4,0-2.6,1.2-2.6,2.6c0,1.4,1.2,2.6,2.6,2.6
					S213.5,39.4,213.5,38z M203.7,49.7c1.4,0,2.5-1.1,2.5-2.5s-1.1-2.5-2.5-2.5c-1.4,0-2.5,1.1-2.5,2.5S202.3,49.7,203.7,49.7z
					 M198.6,55.2c-1.4,0-2.5,1.1-2.5,2.5s1.1,2.5,2.5,2.5c1.4,0,2.5-1.1,2.5-2.5C201.2,56.3,200,55.2,198.6,55.2z M193,69
					c0,1.4,1.1,2.5,2.5,2.5c1.4,0,2.5-1.1,2.5-2.5s-1.1-2.5-2.5-2.5C194.1,66.5,193,67.6,193,69z M191.5,80.6c0,1.3,1.1,2.4,2.4,2.4
					s2.4-1.1,2.4-2.4s-1.1-2.4-2.4-2.4S191.5,79.3,191.5,80.6z M193.8,94.6c1.3,0,2.3-1,2.3-2.3s-1-2.3-2.3-2.3
					c-1.3,0-2.3,1-2.3,2.3C191.5,93.6,192.5,94.6,193.8,94.6z M194.9,106.1c1.2,0,2.2-1,2.2-2.2s-1-2.2-2.2-2.2s-2.2,1-2.2,2.2
					C192.7,105.2,193.7,106.1,194.9,106.1z M197.3,117.5c1.1,0,2-0.9,2-2s-0.9-2-2-2c-1.1,0-2,0.9-2,2
					C195.2,116.5,196.1,117.5,197.3,117.5z M200.7,128.5c1,0,1.9-0.8,1.9-1.9c0-1-0.8-1.9-1.9-1.9c-1,0-1.9,0.8-1.9,1.9
					C198.8,127.6,199.7,128.5,200.7,128.5z M203.6,137.4c0,0.9,0.7,1.7,1.7,1.7c0.9,0,1.7-0.7,1.7-1.7c0-0.9-0.7-1.7-1.7-1.7
					C204.3,135.7,203.6,136.5,203.6,137.4z M209.3,147.7c0,0.8,0.6,1.4,1.4,1.4s1.4-0.6,1.4-1.4c0-0.8-0.6-1.4-1.4-1.4
					C210,146.3,209.3,146.9,209.3,147.7z M216.1,157.5c0,0.6,0.5,1.2,1.2,1.2c0.6,0,1.2-0.5,1.2-1.2s-0.6-1.2-1.3-1.2
					C216.6,156.3,216.1,156.8,216.1,157.5z M223.7,166.6c0,0.5,0.4,0.9,0.9,0.9s0.9-0.4,0.9-0.9s-0.4-0.9-0.9-0.9
					C224.1,165.7,223.7,166.1,223.7,166.6z M232.3,175c0,0.3,0.2,0.5,0.5,0.5s0.5-0.2,0.5-0.5s-0.2-0.5-0.5-0.5
					S232.3,174.7,232.3,175z M241.7,182.5C241.7,182.5,241.7,182.6,241.7,182.5c0.1,0.1,0.2,0,0.2,0
					C241.8,182.5,241.8,182.4,241.7,182.5C241.7,182.4,241.7,182.5,241.7,182.5z M183,133.9l0.7,1.4c0.2,0.5,0.5,1.1,0.7,1.6
					s0.4,1,0.6,1.5c0.8,2.1,1.4,4.2,2,6.4c1.1,4.4,1.9,8.9,2.7,13.6c0.8,4.7,1.8,9.4,3,14.1c1.2,4.7,2.8,9.3,4.7,13.8
					c2,4.5,4.4,8.8,7.3,12.8c2.9,4,6.3,7.6,10.2,10.7c3.9,3.1,8.1,5.6,12.6,7.7c4.5,2,9.1,3.5,13.8,4.6s9.5,1.8,14.2,2.2
					c1.2,0.1,2.4,0.2,3.6,0.3l3.6,0.1c2.3,0.1,4.8,0.1,7.2,0c4.8-0.1,9.5-0.5,14.3-1.2c4.7-0.7,9.4-1.7,13.9-3
					c4.6-1.3,9-3.1,13.2-5.3c-4.3,1.9-8.8,3.3-13.4,4.3s-9.2,1.7-13.9,2.1c-4.7,0.4-9.4,0.5-14,0.4c-2.4-0.1-4.6-0.2-7-0.4l-3.5-0.3
					l-3.5-0.4c-9.2-1.2-18.3-3.5-26.5-7.5c-4.1-2-8-4.5-11.4-7.4c-0.8-0.7-1.7-1.4-2.5-2.3l-1.3-1.2l-0.3-0.3c0,0,0.1,0.1,0,0l0,0
					l-0.1-0.1l-0.1-0.2l-0.6-0.6c-0.8-0.8-1.5-1.7-2.2-2.6l-1-1.3c-0.3-0.5-0.6-0.9-1-1.4c-5.1-7.4-8.5-16-10.7-25
					c-1.1-4.5-1.9-9-2.7-13.6c-0.7-4.6-1.4-9.4-2.6-14.2c-0.3-1.2-0.6-2.3-1-3.5c0.4,0.9,0.8,1.9,1.2,2.8c1.5,3.6,2.6,7.4,3.8,11.3
					c1.2,3.9,2.3,7.8,3.6,11.7c0.7,2,1.4,3.9,2.2,5.8c0.4,1,0.8,1.9,1.2,2.9l0.6,1.4l0.2,0.3l0.2,0.4l0.4,0.7
					c1.9,3.7,4.1,7.3,6.7,10.7c2.6,3.3,5.6,6.4,9,8.9c0.9,0.6,1.7,1.3,2.6,1.8c0.5,0.3,0.9,0.6,1.3,0.8l0.7,0.4
					c0.1,0.1,0.2,0.1,0.4,0.2l0.4,0.2c0.9,0.5,1.9,1,2.8,1.4l2.9,1.2c3.9,1.5,8.1,2.4,12.2,2.9c4.1,0.5,8.3,0.6,12.4,0.4
					c4.1-0.2,8.2-0.6,12.2-1.3s8-1.4,12-2.3c4-1,7.9-2.2,11.6-3.8c-3.8,1.4-7.8,2.2-11.8,2.9s-8,1.2-12,1.6c-4,0.4-8,0.6-12,0.6
					s-8-0.3-11.9-1c-3.9-0.7-7.7-1.7-11.3-3.2l-2.6-1.2c-0.9-0.4-1.7-0.9-2.5-1.4l-0.3-0.2c0,0-0.2-0.1-0.3-0.2l-0.6-0.4
					c-0.4-0.3-0.9-0.5-1.2-0.8c-0.8-0.5-1.5-1.1-2.3-1.7c-1.5-1.2-2.9-2.6-4.2-4s-2.5-2.9-3.7-4.5c-2.3-3.1-4.3-6.5-5.9-10.1
					l-0.3-0.7l-0.1-0.3l-0.2-0.3l-0.6-1.4c-0.4-0.9-0.7-1.8-1.1-2.7c-0.7-1.8-1.3-3.7-1.9-5.6c-1.2-3.8-2.2-7.7-3.2-11.6
					c-1.1-3.9-2.2-7.9-3.7-11.8c-1.5-3.9-3.3-7.8-5.6-11.4c-2.2-3.6-5-7.1-8.2-10c-3.3-3-7-5.4-11.1-7.1c-2.1-0.8-4.2-1.5-6.5-1.9
					l-0.8-0.1l-0.9-0.1c-0.6-0.1-1.1-0.1-1.7-0.2c-1.1-0.1-2.3-0.1-3.4,0c-4.5,0.2-9.1,1.5-13,3.9c-1.2,0.8-1.8,2.3-1.3,3.7
					c0.6,1.7,2.4,2.6,4,2l0,0c4.2-1.4,8.5-2.2,12.5-1.7l0.4,0.1h0.2h0.1l0,0l0.8,0.2l0.9,0.2c0.3,0.1,0.5,0.1,0.7,0.2
					c0.9,0.2,1.9,0.6,2.8,1c1.9,0.8,3.7,1.9,5.4,3.2c3.3,2.6,6.1,6,8.3,9.8C182.4,132.9,182.7,133.4,183,133.9z M208.3,267
					c0,0.6,0.5,1.1,1.1,1.1c0.6,0,1.1-0.5,1.1-1.1s-0.5-1.1-1.1-1.1C208.8,265.9,208.3,266.4,208.3,267z M197.3,261.9
					c0,1,0.8,1.9,1.9,1.9c1,0,1.9-0.8,1.9-1.9c0-1-0.8-1.9-1.9-1.9C198.2,260,197.3,260.8,197.3,261.9z M202.9,253.4
					c1.3,0,2.3-1,2.3-2.3s-1-2.3-2.3-2.3s-2.3,1-2.3,2.3S201.6,253.4,202.9,253.4z M212.1,248.2c0,1.4,1.1,2.6,2.6,2.6
					c1.4,0,2.6-1.1,2.6-2.6c0-1.4-1.1-2.6-2.6-2.6C213.2,245.7,212.1,246.8,212.1,248.2z M226.7,248.3c-1.4,0-2.6,1.1-2.6,2.6
					c0,1.4,1.1,2.6,2.6,2.6c1.4,0,2.6-1.1,2.6-2.6C229.2,249.4,228.1,248.3,226.7,248.3z M238.3,252.7c-1.3,0-2.3,1-2.3,2.3
					c0,1.3,1,2.3,2.3,2.3s2.3-1,2.3-2.3C240.6,253.7,239.6,252.7,238.3,252.7z M249.7,257.7c-1,0-1.9,0.8-1.9,1.9
					c0,1,0.8,1.9,1.9,1.9c1.1,0,1.9-0.8,1.9-1.9C251.6,258.6,250.8,257.7,249.7,257.7z M261.6,261.7c-0.6,0-1.1,0.5-1.1,1.1
					s0.5,1.1,1.1,1.1c0.6,0,1.1-0.5,1.1-1.1C262.8,262.2,262.2,261.7,261.6,261.7z M309.3,304.7c-1,0-1.7,0.8-1.7,1.7
					c0,1,0.8,1.7,1.7,1.7c1,0,1.7-0.8,1.7-1.7C311.1,305.5,310.3,304.7,309.3,304.7z M301.9,301.3c1.6,0,2.9-1.3,2.9-2.9
					s-1.3-2.9-2.9-2.9c-1.6,0-2.9,1.3-2.9,2.9S300.3,301.3,301.9,301.3z M293.3,296.7c2,0,3.6-1.6,3.6-3.6s-1.6-3.6-3.6-3.6
					s-3.6,1.6-3.6,3.6S291.3,296.7,293.3,296.7z M285.6,282.1c-2.2,0-4.1,1.8-4.1,4.1c0,2.2,1.8,4.1,4.1,4.1c2.2,0,4.1-1.8,4.1-4.1
					C289.7,283.9,287.9,282.1,285.6,282.1z M303,282.2c0-2.3-1.9-4.2-4.2-4.2c-2.3,0-4.2,1.9-4.2,4.2c0,2.3,1.9,4.2,4.2,4.2
					S303,284.5,303,282.2z M312.5,274.7c-2.3,0-4.1,1.8-4.1,4.1s1.8,4.1,4.1,4.1c2.3,0,4.1-1.8,4.1-4.1S314.7,274.7,312.5,274.7z
					 M324.7,269.2c-2,0-3.7,1.6-3.7,3.7c0,2,1.6,3.7,3.7,3.7c2,0,3.7-1.6,3.7-3.7C328.4,270.9,326.7,269.2,324.7,269.2z
					 M335.3,261.5c-1.6,0-2.9,1.3-2.9,2.9s1.3,2.9,2.9,2.9s2.9-1.3,2.9-2.9S336.9,261.5,335.3,261.5z M342.7,254.4
					c-1,0-1.8,0.8-1.8,1.8c0,1,0.8,1.8,1.8,1.8s1.8-0.8,1.8-1.8C344.5,255.2,343.7,254.4,342.7,254.4z M348.1,248.4
					c-0.1,0-0.1,0-0.2,0c-0.1,0-0.1,0-0.2,0c-0.7,0-1.2,0.5-1.2,1.2s0.5,1.2,1.2,1.2c0.1,0,0.1,0,0.2,0s0.1,0,0.2,0
					c0.7,0,1.2-0.5,1.2-1.2S348.8,248.4,348.1,248.4z M312.1,312.5c-0.7,0-1.2,0.5-1.2,1.2s0.5,1.2,1.2,1.2c0.7,0,1.2-0.5,1.2-1.2
					C313.3,313.1,312.8,312.5,312.1,312.5z M162,119.8c-0.5,0-0.9,0.4-0.9,0.9s0.4,0.9,0.9,0.9s0.9-0.4,0.9-0.9
					C162.8,120.2,162.4,119.8,162,119.8z M172,124.8c-0.9,0-1.5,0.7-1.5,1.5c0,0.9,0.7,1.5,1.5,1.5c0.9,0,1.5-0.7,1.5-1.5
					C173.6,125.5,172.9,124.8,172,124.8z M180.7,135.9c0-1.2-0.9-2.1-2.1-2.1s-2.1,0.9-2.1,2.1c0,1.2,0.9,2.1,2.1,2.1
					C179.8,138,180.7,137.1,180.7,135.9z M184.7,147.1c0-1.4-1.1-2.6-2.6-2.6c-1.4,0-2.6,1.1-2.6,2.6c0,1.4,1.1,2.6,2.6,2.6
					C183.6,149.7,184.7,148.5,184.7,147.1z M187.1,158.6c0-1.6-1.3-2.9-2.9-2.9c-1.6,0-2.9,1.3-2.9,2.9c0,1.6,1.3,2.9,2.9,2.9
					C185.8,161.5,187.1,160.2,187.1,158.6z M189.1,170.2c0-1.8-1.4-3.2-3.2-3.2s-3.2,1.4-3.2,3.2s1.4,3.2,3.2,3.2
					C187.7,173.4,189.1,172,189.1,170.2z M188.4,185c1.9,0,3.4-1.5,3.4-3.4s-1.5-3.4-3.4-3.4c-1.9,0-3.4,1.5-3.4,3.4
					S186.5,185,188.4,185z M192.3,196.2c1.9,0,3.5-1.6,3.5-3.5s-1.6-3.5-3.5-3.5c-1.9,0-3.5,1.6-3.5,3.5S190.4,196.2,192.3,196.2z
					 M198.3,206.2c2,0,3.6-1.6,3.6-3.6s-1.6-3.6-3.6-3.6s-3.6,1.6-3.6,3.6S196.4,206.2,198.3,206.2z M206.3,207.7
					c-1.9,0-3.5,1.6-3.5,3.5s1.6,3.5,3.5,3.5c1.9,0,3.5-1.6,3.5-3.5C209.9,209.3,208.3,207.7,206.3,207.7z M212.4,218
					c0,1.9,1.5,3.4,3.4,3.4c1.9,0,3.4-1.5,3.4-3.4s-1.5-3.4-3.4-3.4C213.9,214.6,212.4,216.1,212.4,218z M223.1,223.1
					c0,1.8,1.5,3.3,3.3,3.3s3.3-1.5,3.3-3.3s-1.5-3.3-3.3-3.3C224.6,219.9,223.1,221.3,223.1,223.1z M234.5,226.6c0,1.7,1.4,3,3,3
					c1.7,0,3-1.4,3-3c0-1.7-1.4-3-3-3C235.9,223.6,234.5,224.9,234.5,226.6z M246.4,228.7c0,1.5,1.2,2.7,2.7,2.7s2.7-1.2,2.7-2.7
					s-1.2-2.7-2.7-2.7C247.6,225.9,246.4,227.2,246.4,228.7z M260.8,227.1c-1.3,0-2.3,1-2.3,2.3s1,2.3,2.3,2.3c1.3,0,2.3-1,2.3-2.3
					C263.1,228.1,262,227.1,260.8,227.1z M270.7,228.8c0,1,0.8,1.8,1.8,1.8s1.8-0.8,1.8-1.8s-0.8-1.8-1.8-1.8
					S270.7,227.8,270.7,228.8z M282.9,227c0,0.6,0.5,1.2,1.2,1.2c0.6,0,1.2-0.5,1.2-1.2s-0.5-1.2-1.2-1.2
					C283.4,225.9,282.9,226.4,282.9,227z M295,224c0,0.2,0.2,0.4,0.4,0.4c0.2,0,0.4-0.2,0.4-0.4s-0.2-0.4-0.4-0.4
					C295.2,223.7,295,223.8,295,224z M498.3,92.9c0.3-3.7,0.3-7.4,0-11.1c-0.2-3.7-0.6-7.4-1.4-11c-0.2-0.9-0.4-1.8-0.6-2.7
					c-0.2-0.9-0.4-1.8-0.7-2.7l-0.8-2.7l-0.9-2.7c-0.3-0.9-0.6-1.7-1-2.6l-0.5-1.3l-0.1-0.2l-0.1-0.2l-0.1-0.3l-0.3-0.7
					c-0.8-1.7-1.7-3.4-2.7-5.1c-4-6.5-9.5-12.1-16.2-16c-3.3-2-7-3.4-10.8-4.3c-1.9-0.4-3.9-0.7-5.8-0.8l-1.5-0.1h-1.3l-1.5,0.1
					c-0.5,0-1,0.1-1.5,0.1c-7.8,0.9-15.4,4.7-20.6,10.8c-5.3,6.1-7.9,14.5-6.7,22.5c1.1,8.2,6.4,15.6,13.9,19.2
					c3.7,1.8,8,2.6,12.2,2.2s8.2-2,11.5-4.7s5.8-6.3,7-10.5c0.5-1.9,0.8-4.1,0.8-6.2c0-1.1-0.2-2.1-0.4-3.2
					c-0.1-0.5-0.2-1.1-0.4-1.6c-0.1-0.3-0.2-0.5-0.3-0.8l-0.2-0.4c-0.1-0.2-0.1-0.3-0.2-0.5c-0.5-1-1.5-1.8-2.8-1.8
					c-1.7-0.1-3.2,1.3-3.3,3l0,0c-0.1,2.9-0.3,5.8-1,8.3c-0.7,2.6-1.8,4.7-3.5,6.2c-0.4,0.4-0.9,0.7-1.4,1s-1.1,0.6-1.7,0.8
					c-1.2,0.5-2.4,0.8-3.6,1c-2.5,0.4-5,0.1-7.3-0.8l-0.7-0.3c-0.3-0.1-0.6-0.3-0.9-0.5l0,0l0,0l-0.1-0.1l-0.2-0.1l-0.4-0.3
					c-0.3-0.2-0.5-0.4-0.7-0.6c-1-0.8-1.8-1.7-2.6-2.7c-1.5-2-2.5-4.4-2.8-7c-0.1-0.3-0.1-0.6-0.1-0.9s-0.1-0.6,0-0.9v-0.9l0.1-0.8
					c0-0.3,0.1-0.7,0.2-1.1l0.1-0.3v-0.1v-0.1l0.1-0.5c0.2-0.6,0.4-1.2,0.6-1.8c0.9-2.4,2.4-4.7,4.3-6.5c1.9-1.9,4.1-3.3,6.6-4.3
					c0.6-0.2,1.2-0.4,1.9-0.6c0.6-0.2,1.3-0.3,1.9-0.4c1.4-0.2,2.7-0.2,4.1-0.2c5.4,0.3,10.7,2.6,14.9,6.1c4.1,3.6,7.1,8.6,9,14
					c1.8,5.4,2.6,11.3,2.7,17.1c0.1,5.9-0.5,11.8-1.6,17.7c-1.1,5.8-2.7,11.6-4.8,17.1c-2.1,5.6-4.8,10.9-7.9,16
					c-0.8,1.3-1.6,2.5-2.4,3.8c-0.8,1.2-1.7,2.4-2.6,3.6l-2.8,3.5c-1,1.1-2,2.3-3,3.4c-8.1,8.8-17.9,16.1-28.6,21.5
					c-10.7,5.3-22.4,8.7-34.4,9.6c0.8-1.7,1.7-3.5,2.7-5.3c1.8-3.4,3.9-6.9,6.2-10.8c4.5-7.8,9.3-16.8,13.5-27.1
					c2.1-5.1,4.1-10.6,5.9-16.4c0.4-1.4,0.9-2.9,1.3-4.4l0.3-1.1l0.3-1c0.2-0.8,0.4-1.6,0.6-2.3c0.8-3.1,1.4-6.3,1.8-9.5
					c0.2-1.6,0.4-3.3,0.5-4.9l0.1-1.3v-1.2V89v-1.3c0-0.8,0-1.6,0-2.4s-0.1-1.7-0.1-2.6c-0.1-1.8-0.3-3.5-0.5-5.2
					c0-0.3-0.1-0.6-0.1-0.9c0.2,0.1,0.5,0.2,0.7,0.2c0.9,0,1.6-0.7,1.6-1.6s-0.7-1.6-1.6-1.6c-0.4,0-0.9,0.2-1.1,0.5
					c-0.4-2.3-0.9-4.6-1.5-6.8c-0.2-0.7-0.4-1.3-0.6-2c0.1-0.2,0.1-0.4,0.1-0.6c0-0.6-0.3-1.1-0.7-1.5c-0.1-0.4-0.2-0.7-0.3-1.1
					c-0.3-0.8-0.6-1.7-0.9-2.5s-0.6-1.7-1-2.5c-5.6-13.3-15.2-25.6-27.8-34.2c-3.1-2.2-6.5-4.1-9.9-5.8c-3.5-1.7-7.1-3.1-10.7-4.3
					c-3.7-1.2-7.5-2-11.3-2.6c-3.8-0.6-7.7-0.8-11.6-0.9l-2.9,0.1c-0.9,0-1.9,0.1-2.9,0.2c-2,0.1-3.9,0.4-5.8,0.6
					c-3.8,0.6-7.6,1.5-11.3,2.6c-3.7,1.2-7.3,2.6-10.7,4.3s-6.8,3.6-9.9,5.8c-12.6,8.6-22.2,20.9-27.8,34.2c-0.4,0.8-0.7,1.7-1,2.5
					c-0.3,0.8-0.6,1.7-0.9,2.5c-0.1,0.3-0.2,0.6-0.3,0.9c-0.5,0.3-0.9,0.9-0.9,1.6c0,0.3,0.1,0.5,0.2,0.8c-0.2,0.6-0.4,1.2-0.5,1.8
					c-0.5,1.7-0.9,3.4-1.2,5.1c-0.1,0.6-0.2,1.2-0.3,1.8c-0.3-0.4-0.7-0.6-1.2-0.6c-0.9,0-1.6,0.7-1.6,1.6s0.7,1.6,1.6,1.6
					c0.3,0,0.6-0.1,0.9-0.3c-0.1,0.3-0.1,0.7-0.1,1c-0.2,1.7-0.4,3.4-0.5,5.1c0,0.9-0.1,1.7-0.1,2.6c0,0.8,0,1.7,0,2.5
					c0,3.3,0.2,6.7,0.6,10c0.4,3.3,1,6.4,1.8,9.5c0.2,0.8,0.4,1.5,0.6,2.3l0.3,1l0.3,1.1c0.4,1.4,0.8,3,1.3,4.4
					c1.8,5.8,3.8,11.2,5.9,16.4c2.1,5.1,4.4,10,6.6,14.5c2.3,4.5,4.6,8.7,6.9,12.6c2.3,3.9,4.4,7.4,6.2,10.8c1,1.8,1.9,3.6,2.7,5.3
					l0,0h-0.1c-12-0.9-23.8-4.3-34.5-9.6c-10.8-5.4-20.6-12.6-28.6-21.5c-1-1.1-2-2.3-3-3.4l-2.8-3.5c-0.9-1.2-1.8-2.4-2.6-3.6
					c-0.8-1.3-1.7-2.5-2.4-3.8c-3.1-5.1-5.8-10.4-7.9-16c-2.1-5.6-3.7-11.3-4.8-17.1c-1.1-5.8-1.6-11.8-1.6-17.7
					c0.1-5.9,0.9-11.7,2.7-17.1c1.9-5.4,4.8-10.4,9-14s9.5-5.9,14.9-6.1c1.4-0.1,2.7,0,4.1,0.2c0.6,0.1,1.2,0.2,1.9,0.4
					c0.6,0.2,1.3,0.4,1.9,0.6c2.5,0.9,4.7,2.4,6.6,4.3c1.9,1.9,3.4,4.1,4.3,6.5c0.2,0.6,0.4,1.2,0.6,1.8l0.1,0.5v0.1v0.1l0.1,0.3
					c0.1,0.4,0.2,0.8,0.2,1.1l0.1,0.8v0.9c0,0.3,0,0.6,0,0.9s0,0.6-0.1,0.9c-0.3,2.5-1.3,4.9-2.8,7c-0.7,1-1.6,1.9-2.6,2.7
					c-0.2,0.2-0.5,0.4-0.7,0.6l-0.4,0.3l-0.2,0.1l-0.1,0.1l0,0l0,0c-0.3,0.2-0.7,0.4-0.9,0.5l-0.7,0.3c-2.2,0.9-4.8,1.2-7.3,0.8
					c-1.2-0.2-2.5-0.5-3.6-1c-0.6-0.2-1.2-0.5-1.7-0.8c-0.4-0.3-1-0.6-1.4-1c-1.7-1.5-2.8-3.6-3.5-6.2s-0.9-5.4-1-8.3l0,0
					c0-1.2-0.7-2.2-1.8-2.8c-1.6-0.7-3.5,0-4.2,1.6c-0.1,0.3-0.2,0.4-0.2,0.5l-0.2,0.4c-1.1,0.5-1.2,0.8-1.2,1
					c-0.2,0.5-0.3,1.1-0.4,1.6c-0.2,1.1-0.3,2.1-0.4,3.2c-0.1,2.1,0.2,4.3,0.8,6.2c1.2,4.2,3.6,7.9,7,10.5c3.3,2.7,7.4,4.3,11.5,4.7
					c4.2,0.4,8.5-0.3,12.2-2.2c7.5-3.7,12.7-11.1,13.9-19.2c1.2-8.1-1.4-16.5-6.7-22.5c-5.2-6.1-12.8-9.9-20.6-10.8
					c-0.5-0.1-1-0.1-1.5-0.1l-1.5-0.1h-1.3l-1.5,0.1c-2,0.1-3.9,0.4-5.8,0.8c-3.8,0.9-7.5,2.4-10.8,4.3c-6.7,3.9-12.2,9.5-16.2,16
					c-1,1.6-1.9,3.3-2.7,5.1l-0.3,0.7l-0.1,0.3l-0.1,0.2l-0.1,0.2l-0.5,1.3c-0.3,0.9-0.7,1.6-1,2.6l-0.9,2.7l-0.8,2.7
					c-0.3,0.9-0.4,1.8-0.7,2.7c-0.2,0.9-0.4,1.8-0.6,2.7c-0.7,3.6-1.2,7.3-1.4,11c-0.2,3.7-0.2,7.4,0,11.1
					c0.5,7.4,1.8,14.6,3.7,21.7c1,3.5,2.2,7,3.5,10.4c1.3,3.4,2.8,6.8,4.4,10c3.2,6.5,7,12.8,11.4,18.7c4.3,5.9,9.3,11.3,14.6,16.2
					c5.3,4.9,11.1,9.4,17.3,13.2c6.2,3.8,12.7,7.1,19.4,9.7c6.7,2.6,13.7,4.5,20.8,5.9c-7-1.7-13.8-4-20.4-6.8
					c-6.6-2.9-12.8-6.3-18.7-10.3c-11.8-8-22.1-18.1-30.2-29.8c-4.1-5.8-7.6-12-10.6-18.4c-1.5-3.2-2.8-6.5-4-9.8
					c-1.2-3.3-2.2-6.7-3.1-10.1c-1.7-6.8-2.9-13.8-3.2-20.8c-0.2-3.5-0.1-7,0.2-10.5s0.7-6.9,1.5-10.3c0.2-0.9,0.4-1.7,0.6-2.5
					c0.2-0.8,0.4-1.7,0.7-2.5l0.7-2.5l0.8-2.4c0.2-0.8,0.6-1.6,1-2.5l0.5-1.3l0.5-1.1c0.7-1.5,1.5-3,2.4-4.4
					c3.6-5.7,8.5-10.6,14.3-13.9s12.4-4.9,18.8-4c6.4,0.8,12.6,3.9,16.7,8.8c0.2,0.3,0.5,0.6,0.7,0.9l0.7,0.9
					c0.2,0.3,0.5,0.7,0.7,1.1l0.4,0.6l0.2,0.4c0.1,0.1,0.1,0.3,0.2,0.4c-1-1.6-2.2-3-3.5-4.3c-2.5-2.4-5.4-4.3-8.6-5.5
					c-0.8-0.3-1.6-0.6-2.5-0.8c-0.8-0.2-1.7-0.4-2.6-0.5c-1.6-0.2-3.4-0.2-5-0.1c-6.8,0.4-13.2,3.2-18.2,7.6
					c-0.6,0.6-1.2,1.1-1.8,1.8l-0.9,1c-0.3,0.3-0.5,0.6-0.7,0.9c-1.1,1.3-2,2.6-2.8,4c-1.7,2.8-3,5.8-4,8.8
					c-2,6.1-2.6,12.5-2.6,18.7c0.1,12.5,2.7,24.8,7.5,36.2c2.4,5.7,5.2,11.2,8.6,16.4c0.8,1.3,1.7,2.5,2.6,3.8
					c0.9,1.2,1.9,2.5,2.8,3.7l3,3.6c1,1.1,2,2.2,3.1,3.4c8.6,8.8,18.9,16,30,20.9c5.6,2.5,11.4,4.5,17.3,5.9
					c3.2,0.7,6.4,1.3,9.6,1.7c2.8,0.3,5.6,0.6,8.4,0.6c0.7,1.4,1.3,2.8,1.8,4.1c2.3,5.9,3.4,10.8,3.7,14.2c0.1,0.8,0.1,1.6,0.1,2.3
					s0,1.2,0,1.6c-0.1,0.9-0.1,1.3-0.1,1.3l0,0l0,0l0,0c0,0,0.1-0.5,0.2-1.3c0.1-0.4,0.1-1,0.2-1.6c0-0.7,0.1-1.4,0.1-2.3
					c0-3.5-0.6-8.6-2.6-14.8c-0.3-1.1-0.8-2.3-1.2-3.5c-0.8-2.1-1.6-4.3-2.6-6.6c-1.5-3.6-3.5-7.4-5.5-11.3
					c-4-7.9-8.1-17.1-11.8-27.3c-1.8-5.1-3.5-10.5-4.9-16.1c-0.7-2.8-1.4-5.7-2.1-8.7c-0.6-2.9-1.1-5.8-1.3-8.8
					c-0.3-3-0.4-6-0.2-9.1c0-0.8,0.1-1.5,0.1-2.3s0.1-1.5,0.2-2.3c0.1-1.6,0.4-3.1,0.6-4.7c1.1-6.2,2.8-12.4,5.5-18.4
					c2.6-5.9,6.2-11.6,10.5-16.7c2.1-2.6,4.5-5,7-7.2c2.5-2.3,5.2-4.3,8-6.2c11.3-7.6,24.9-11.8,38.7-11.8
					c13.8-0.1,27.5,4.2,38.7,11.8c2.8,1.9,5.5,4,8,6.2c2.5,2.3,4.8,4.7,7,7.2c4.3,5.1,7.8,10.8,10.5,16.7c0.4,0.7,0.7,1.5,1,2.2
					c0.3,0.8,0.6,1.5,0.9,2.3c0.5,1.5,1.1,3,1.5,4.6c0.9,3.1,1.6,6.2,2.1,9.3c0.2,1.6,0.5,3.1,0.6,4.6c0.1,0.8,0.2,1.5,0.2,2.3
					s0.1,1.6,0.1,2.4v1.1v1.2v1.2v1.1c0,1.5-0.1,3-0.3,4.5c-0.3,3-0.7,5.9-1.3,8.8c-0.7,2.9-1.4,5.8-2.1,8.7
					c-1.4,5.6-3.1,11-4.9,16.1c-3.7,10.2-7.8,19.3-11.8,27.3c-2,4-4,7.7-5.5,11.3c-1,2.3-1.9,4.5-2.6,6.6c-0.4,1.2-0.8,2.4-1.2,3.5
					c-2,6.2-2.6,11.3-2.6,14.8c0,0.9,0,1.6,0.1,2.3s0.1,1.2,0.2,1.6c0.1,0.9,0.2,1.3,0.2,1.3l0,0c0,0,0-0.5-0.1-1.3c0-0.4,0-1,0-1.6
					c0-0.7,0-1.4,0.1-2.3c0.3-3.4,1.4-8.3,3.7-14.2c0.5-1.3,1.1-2.7,1.8-4.1c2.8-0.1,5.6-0.3,8.4-0.6c3.2-0.4,6.3-0.9,9.4-1.7
					c5.9-1.4,11.7-3.4,17.3-5.9c11.2-5,21.4-12.1,30-20.9c1.1-1.2,2.1-2.2,3.1-3.4l3-3.6c0.9-1.2,1.9-2.4,2.8-3.7s1.8-2.5,2.6-3.8
					c3.4-5.2,6.2-10.7,8.6-16.4c4.7-11.4,7.4-23.8,7.5-36.2c0-6.3-0.7-12.6-2.6-18.7c-1-3.1-2.3-6-4-8.8c-0.8-1.4-1.8-2.7-2.8-4
					c-0.2-0.3-0.5-0.6-0.7-0.9l-0.9-1c-0.6-0.6-1.2-1.2-1.8-1.8c-4.9-4.4-11.3-7.3-18.1-7.7c-1.7-0.1-3.4-0.1-5,0.1
					c-0.9,0.1-1.8,0.3-2.6,0.5c-0.8,0.2-1.7,0.5-2.5,0.8c-3.2,1.2-6.2,3.1-8.6,5.5c-1.3,1.3-2.5,2.7-3.5,4.3
					c0.1-0.1,0.1-0.3,0.2-0.4l0.2-0.4l0.4-0.6c0.2-0.4,0.5-0.8,0.7-1.1l0.7-0.9c0.2-0.3,0.5-0.6,0.7-0.9c4.1-4.9,10.2-8,16.7-8.8
					c6.4-0.9,13.1,0.7,18.8,4c5.8,3.3,10.7,8.2,14.3,13.9c0.9,1.4,1.7,2.9,2.4,4.4l0.5,1.1l0.5,1.3c0.3,0.8,0.7,1.7,1,2.5l0.8,2.4
					l0.7,2.5c0.3,0.8,0.4,1.7,0.7,2.5c0.2,0.8,0.4,1.7,0.6,2.5c0.7,3.4,1.2,6.8,1.5,10.3s0.3,7,0.2,10.5c-0.3,7-1.4,14-3.2,20.8
					c-0.9,3.4-1.9,6.8-3.1,10.1s-2.5,6.6-4,9.8c-3,6.4-6.5,12.6-10.6,18.4c-8.1,11.6-18.4,21.8-30.2,29.8c-5.9,4-12.2,7.5-18.7,10.3
					c-6.6,2.9-13.4,5.2-20.4,6.8c7.1-1.3,14-3.3,20.8-5.9c6.7-2.6,13.2-5.8,19.4-9.7c6.1-3.8,11.9-8.3,17.3-13.2
					c5.3-4.9,10.3-10.3,14.6-16.2c4.3-5.9,8.1-12.1,11.4-18.7c1.6-3.3,3.1-6.6,4.4-10c1.3-3.4,2.5-6.9,3.5-10.4
					C496.5,107.6,497.8,100.3,498.3,92.9z M466.4,78.6c0-0.2-0.2-0.4-0.4-0.4c-0.2,0-0.4,0.2-0.4,0.4c0,0.2,0.2,0.4,0.4,0.4
					C466.2,79,466.4,78.8,466.4,78.6z M457.3,85.3c0-0.4-0.4-0.8-0.8-0.8s-0.8,0.4-0.8,0.8s0.4,0.8,0.8,0.8
					C457,86.1,457.3,85.8,457.3,85.3z M446.1,87c0-0.6-0.5-1.1-1.1-1.1s-1.1,0.5-1.1,1.1s0.5,1.1,1.1,1.1S446.1,87.6,446.1,87z
					 M435.4,83.3c0-0.8-0.6-1.4-1.4-1.4s-1.4,0.6-1.4,1.4s0.6,1.4,1.4,1.4S435.4,84.1,435.4,83.3z M420,51.2c-1.1,0-2,0.9-2,2
					s0.9,2,2,2s2-0.9,2-2S421.1,51.2,420,51.2z M423.9,44.4c1.2,0,2.2-1,2.2-2.2c0-1.2-1-2.2-2.2-2.2s-2.2,1-2.2,2.2
					C421.7,43.5,422.7,44.4,423.9,44.4z M431.6,35.8c1.3,0,2.3-1,2.3-2.3c0-1.3-1-2.3-2.3-2.3s-2.3,1-2.3,2.3
					C429.3,34.8,430.3,35.8,431.6,35.8z M441.7,30.2c1.3,0,2.4-1.1,2.4-2.4c0-1.3-1.1-2.4-2.4-2.4s-2.4,1.1-2.4,2.4
					C439.4,29.1,440.4,30.2,441.7,30.2z M450.7,25.4c0,1.4,1.1,2.5,2.5,2.5s2.5-1.1,2.5-2.5s-1.1-2.5-2.5-2.5S450.7,24,450.7,25.4z
					 M464.8,24c-1.4,0-2.5,1.1-2.5,2.5s1.1,2.5,2.5,2.5s2.5-1.1,2.5-2.5S466.2,24,464.8,24z M475.6,33.4c1.4,0,2.5-1.1,2.5-2.5
					c0-1.4-1.1-2.5-2.5-2.5s-2.5,1.1-2.5,2.5C473.1,32.3,474.2,33.4,475.6,33.4z M484.9,40.6c1.4,0,2.6-1.2,2.6-2.6
					s-1.2-2.6-2.6-2.6s-2.6,1.2-2.6,2.6C482.3,39.4,483.5,40.6,484.9,40.6z M492.1,44.6c-1.4,0-2.5,1.1-2.5,2.5
					c0,1.4,1.1,2.5,2.5,2.5s2.5-1.1,2.5-2.5C494.6,45.8,493.5,44.6,492.1,44.6z M497.1,55.2c-1.4,0-2.5,1.1-2.5,2.5s1.1,2.5,2.5,2.5
					s2.5-1.1,2.5-2.5C499.7,56.3,498.5,55.2,497.1,55.2z M500.3,66.5c-1.4,0-2.5,1.1-2.5,2.5s1.1,2.5,2.5,2.5s2.5-1.1,2.5-2.5
					C502.8,67.6,501.7,66.5,500.3,66.5z M499.5,80.6c0,1.3,1.1,2.4,2.4,2.4s2.4-1.1,2.4-2.4s-1.1-2.4-2.4-2.4S499.5,79.3,499.5,80.6
					z M504.3,92.3c0-1.3-1-2.3-2.3-2.3s-2.3,1-2.3,2.3s1,2.3,2.3,2.3S504.3,93.6,504.3,92.3z M503.1,104c0-1.2-1-2.2-2.2-2.2
					s-2.2,1-2.2,2.2s1,2.2,2.2,2.2C502.1,106.1,503.1,105.2,503.1,104z M498.5,117.5c1.1,0,2-0.9,2-2s-0.9-2-2-2s-2,0.9-2,2
					C496.5,116.5,497.4,117.5,498.5,117.5z M495.1,128.5c1,0,1.9-0.8,1.9-1.9c0-1-0.8-1.9-1.9-1.9c-1,0-1.9,0.8-1.9,1.9
					C493.2,127.6,494,128.5,495.1,128.5z M488.9,137.4c0,0.9,0.7,1.7,1.7,1.7s1.7-0.7,1.7-1.7c0-0.9-0.7-1.7-1.7-1.7
					S488.9,136.5,488.9,137.4z M483.6,147.7c0,0.8,0.6,1.4,1.4,1.4s1.4-0.6,1.4-1.4c0-0.8-0.6-1.4-1.4-1.4
					C484.2,146.3,483.6,146.9,483.6,147.7z M477.4,157.5c0,0.6,0.5,1.2,1.2,1.2c0.6,0,1.2-0.5,1.2-1.2s-0.5-1.2-1.2-1.2
					S477.4,156.8,477.4,157.5z M470.3,166.6c0,0.5,0.4,0.9,0.9,0.9s0.9-0.4,0.9-0.9s-0.4-0.9-0.9-0.9
					C470.7,165.7,470.3,166.1,470.3,166.6z M462.5,175c0,0.3,0.2,0.5,0.5,0.5s0.5-0.2,0.5-0.5s-0.2-0.5-0.5-0.5
					C462.7,174.5,462.5,174.7,462.5,175z M453.9,182.5C453.9,182.5,454,182.6,453.9,182.5c0.1,0.1,0.2,0,0.2,0
					S454.1,182.4,453.9,182.5C454,182.4,453.9,182.5,453.9,182.5z M548.4,113.7c-4-2.5-8.5-3.7-13-3.9c-1.1-0.1-2.3,0-3.4,0
					c-0.6,0.1-1.1,0.1-1.7,0.2l-0.9,0.1l-0.8,0.1c-2.3,0.4-4.4,1.1-6.5,1.9c-4.1,1.7-7.8,4.1-11.1,7.1c-3.2,2.9-5.9,6.4-8.2,10
					c-2.3,3.6-4.1,7.5-5.6,11.4s-2.7,7.9-3.7,11.8c-1.1,3.9-2.1,7.8-3.2,11.6c-0.6,1.9-1.2,3.8-1.9,5.6c-0.3,0.9-0.7,1.8-1.1,2.7
					l-0.6,1.4l-0.2,0.3l-0.1,0.3l-0.3,0.7c-1.7,3.6-3.6,6.9-5.9,10.1c-1.2,1.6-2.4,3.1-3.7,4.5c-1.3,1.4-2.7,2.7-4.2,4
					c-0.8,0.6-1.5,1.2-2.3,1.7c-0.4,0.3-0.8,0.6-1.2,0.8l-0.6,0.4c-0.1,0.1-0.3,0.2-0.3,0.2l-0.3,0.2c-0.9,0.5-1.7,1-2.5,1.4
					l-2.6,1.2c-3.6,1.5-7.4,2.5-11.3,3.2s-7.9,0.9-11.9,1c-4,0-8-0.2-12-0.6c-4-0.4-8-0.9-12-1.6c-4-0.7-7.9-1.6-11.8-2.9
					c3.7,1.6,7.6,2.8,11.6,3.8c4,0.9,8,1.7,12,2.3s8.1,1.1,12.2,1.3s8.2,0.1,12.4-0.4c4.1-0.5,8.2-1.4,12.2-2.9l2.9-1.2
					c1-0.4,1.9-0.9,2.8-1.4l0.4-0.2c0.2-0.1,0.2-0.1,0.4-0.2l0.7-0.4c0.4-0.3,0.9-0.5,1.3-0.8c0.9-0.6,1.8-1.2,2.6-1.8
					c3.4-2.6,6.4-5.6,9-8.9c2.6-3.3,4.8-6.9,6.7-10.7l0.4-0.7l0.2-0.4l0.2-0.3l0.6-1.4c0.4-1,0.9-2,1.2-2.9c0.8-1.9,1.5-3.9,2.2-5.8
					c1.3-3.9,2.5-7.8,3.6-11.7s2.3-7.7,3.8-11.3c0.4-1,0.8-1.9,1.2-2.8c-0.4,1.2-0.7,2.3-1,3.5c-1.2,4.7-1.9,9.6-2.6,14.2
					c-0.7,4.6-1.6,9.2-2.7,13.6c-2.2,8.9-5.5,17.6-10.7,25c-0.3,0.5-0.6,0.9-1,1.4l-1,1.3c-0.7,0.9-1.4,1.7-2.2,2.6l-0.6,0.6
					l-0.1,0.2l-0.1,0.1l0,0l0,0l-0.3,0.3l-1.3,1.2c-0.8,0.9-1.7,1.5-2.5,2.3c-3.4,2.9-7.3,5.4-11.4,7.4c-8.2,4-17.3,6.3-26.5,7.5
					l-3.5,0.4l-3.5,0.3c-2.4,0.2-4.7,0.3-7,0.4c-4.7,0.1-9.4,0-14-0.4c-4.7-0.4-9.3-1.1-13.9-2.1s-9.1-2.4-13.4-4.3
					c4.2,2.2,8.6,4,13.2,5.3c4.6,1.3,9.2,2.3,13.9,3s9.5,1,14.3,1.2c2.4,0.1,4.8,0.1,7.2,0l3.6-0.1c1.2-0.1,2.4-0.2,3.6-0.3
					c4.8-0.4,9.5-1.1,14.2-2.2c4.7-1.1,9.4-2.6,13.8-4.6c4.5-2,8.7-4.5,12.6-7.7c3.9-3.1,7.3-6.7,10.2-10.7c2.9-4,5.4-8.3,7.3-12.8
					c2-4.5,3.5-9.1,4.7-13.8s2.2-9.4,3-14.1c0.8-4.7,1.5-9.2,2.7-13.6c0.6-2.2,1.2-4.3,2-6.4c0.2-0.5,0.4-1,0.6-1.5s0.5-1.1,0.7-1.6
					l0.7-1.4c0.2-0.5,0.5-1,0.8-1.4c2.2-3.8,5-7.2,8.3-9.8c1.7-1.3,3.5-2.4,5.4-3.2c0.9-0.4,2-0.8,2.8-1c0.2-0.1,0.4-0.1,0.7-0.2
					l0.9-0.2l0.8-0.2l0,0h0.1h0.2l0.4-0.1c4-0.6,8.2,0.2,12.5,1.7l0,0c1.4,0.5,2.9-0.1,3.7-1.3C550.3,116.5,549.9,114.6,548.4,113.7
					z M534,119.8c-0.5,0-0.9,0.4-0.9,0.9s0.4,0.9,0.9,0.9s0.9-0.4,0.9-0.9C534.8,120.2,534.5,119.8,534,119.8z M523.9,124.8
					c-0.9,0-1.5,0.7-1.5,1.5c0,0.9,0.7,1.5,1.5,1.5c0.9,0,1.5-0.7,1.5-1.5S524.7,124.8,523.9,124.8z M517.3,133.8
					c-1.2,0-2.1,0.9-2.1,2.1c0,1.2,0.9,2.1,2.1,2.1s2.1-0.9,2.1-2.1C519.4,134.8,518.5,133.8,517.3,133.8z M513.8,144.5
					c-1.4,0-2.6,1.1-2.6,2.6c0,1.4,1.1,2.6,2.6,2.6c1.4,0,2.6-1.1,2.6-2.6C516.3,145.7,515.2,144.5,513.8,144.5z M511.8,155.7
					c-1.6,0-2.9,1.3-2.9,2.9c0,1.6,1.3,2.9,2.9,2.9s2.9-1.3,2.9-2.9S513.4,155.7,511.8,155.7z M510,173.4c1.8,0,3.2-1.4,3.2-3.2
					s-1.4-3.2-3.2-3.2c-1.8,0-3.2,1.4-3.2,3.2S508.2,173.4,510,173.4z M504.2,181.7c0,1.9,1.5,3.4,3.4,3.4s3.4-1.5,3.4-3.4
					s-1.5-3.4-3.4-3.4S504.2,179.8,504.2,181.7z M500.1,192.7c0,1.9,1.6,3.5,3.5,3.5s3.5-1.6,3.5-3.5s-1.6-3.5-3.5-3.5
					C501.7,189.2,500.1,190.7,500.1,192.7z M497.6,199.1c-2,0-3.6,1.6-3.6,3.6s1.6,3.6,3.6,3.6s3.6-1.6,3.6-3.6
					S499.6,199.1,497.6,199.1z M489.6,214.7c1.9,0,3.5-1.6,3.5-3.5s-1.6-3.5-3.5-3.5s-3.5,1.6-3.5,3.5
					C486.1,213.2,487.6,214.7,489.6,214.7z M480.1,221.5c1.9,0,3.4-1.5,3.4-3.4s-1.5-3.4-3.4-3.4s-3.4,1.5-3.4,3.4
					C476.6,219.9,478.2,221.5,480.1,221.5z M472.8,223.1c0-1.8-1.5-3.3-3.3-3.3s-3.3,1.5-3.3,3.3s1.5,3.3,3.3,3.3
					C471.4,226.4,472.8,224.9,472.8,223.1z M461.4,226.6c0-1.7-1.4-3-3-3c-1.7,0-3,1.4-3,3c0,1.7,1.4,3,3,3
					C460.1,229.7,461.4,228.3,461.4,226.6z M449.6,228.7c0-1.5-1.2-2.7-2.7-2.7s-2.7,1.2-2.7,2.7s1.2,2.7,2.7,2.7
					C448.4,231.4,449.6,230.2,449.6,228.7z M437.5,229.4c0-1.3-1-2.3-2.3-2.3s-2.3,1-2.3,2.3s1,2.3,2.3,2.3
					C436.4,231.7,437.5,230.6,437.5,229.4z M423.5,230.6c1,0,1.8-0.8,1.8-1.8s-0.8-1.8-1.8-1.8s-1.8,0.8-1.8,1.8
					C421.7,229.8,422.5,230.6,423.5,230.6z M413,227c0-0.6-0.5-1.2-1.2-1.2c-0.6,0-1.2,0.5-1.2,1.2s0.5,1.2,1.2,1.2
					S413,227.7,413,227z M400.9,224c0-0.2-0.2-0.4-0.4-0.4c-0.2,0-0.4,0.2-0.4,0.4s0.2,0.4,0.4,0.4
					C400.8,224.4,400.9,224.2,400.9,224z M512.3,249.8c-0.5-1.7-1.1-3.3-1.9-4.9c-1.6-3.1-3.7-5.8-6.2-8c-2.5-2.3-5.3-4.1-8.3-5.4
					c-3-1.4-6.1-2.2-9.1-2.7c-3.1-0.5-6.1-0.7-9.1-0.6c-1.5,0-3.1,0.2-4.4,0.3c-1.5,0.2-2.9,0.4-4.4,0.6
					c-11.4,2.1-21.1,6.4-30.4,8.7c-4.6,1.2-9.1,1.9-13.4,2c-0.5,0-1.1,0-1.6,0s-1,0-1.5,0c-1,0-2.1-0.2-3.1-0.3
					c-0.5-0.1-1-0.1-1.5-0.2s-1-0.2-1.5-0.3c-1-0.2-1.9-0.4-2.8-0.7c-7.4-2.1-13.4-5.7-17.6-9.2c-4.3-3.6-7-7.2-8.6-9.7
					c-0.4-0.6-0.7-1.2-1-1.7c-0.3-0.5-0.5-0.9-0.7-1.3c-0.4-0.7-0.6-1.1-0.6-1.1s0.2,0.4,0.5,1.1c0.2,0.4,0.3,0.8,0.6,1.3
					c0.3,0.5,0.6,1.1,0.9,1.8c1.5,2.7,3.9,6.6,8.1,10.5s10,8.1,17.8,10.6c1,0.3,1.9,0.6,3,0.9c0.5,0.1,1,0.3,1.5,0.4
					s1.1,0.2,1.6,0.3c2,0.4,4.3,0.6,6.6,0.7c4.6,0.1,9.4-0.5,14.2-1.5c4.9-1,9.8-2.5,14.8-3.9s10.2-2.8,15.5-3.6
					c1.3-0.2,2.7-0.3,4-0.5c1.5-0.1,2.7-0.2,4.1-0.2c2.7,0,5.5,0.2,8.1,0.8c5.3,1.1,10.5,3.3,14.5,7.1c4,3.7,6.7,8.9,6.9,14.3
					c0,0.4,0,0.7,0,1s0,0.6-0.1,0.9c0,0.4-0.1,0.7-0.1,1.1c0-0.4,0-0.7,0-1.1v-0.7c0-0.4,0-0.2,0-0.3v-0.1v-0.3l-0.2-1.2
					c-0.1-0.5-0.2-1-0.4-1.5c-0.1-0.3-0.1-0.5-0.2-0.8l-0.3-0.7c-0.2-0.4-0.3-0.9-0.6-1.3c-0.9-1.7-2-3.3-3.3-4.7
					c-2.6-2.7-5.8-4.5-9.1-5.7c-3.3-1.2-6.8-1.8-10.1-1.8c-3.5,0-6.7,0.5-9.8,1.3c-3.1,0.8-6.1,1.8-8.9,2.9
					c-2.9,1.1-5.6,2.3-8.3,3.5c-5.4,2.4-10.5,4.8-15.6,6.7c-10.1,3.8-20.5,4.8-29.8,3.4c-9.4-1.3-17.6-4.7-24.3-8.6
					c-6.7-4-11.9-8.5-15.6-12.7c-3.7-4.2-6.2-7.9-7.8-10.5c-0.6-1-1.1-1.9-1.5-2.6c-0.1-0.2-0.2-0.3-0.3-0.5
					c-0.4-0.7-0.6-1.1-0.6-1.1s0.2,0.4,0.5,1.1c0.1,0.1,0.1,0.3,0.2,0.4c0.3,0.7,0.7,1.6,1.3,2.7c1.4,2.7,3.5,6.7,7.1,11.2
					c1,1.3,2.1,2.6,3.4,3.9c2.3,4.1,5.3,8,8.8,11.3c1.1,1,2.1,1.9,3.3,2.9c0.6,0.4,1.1,0.8,1.7,1.3c0.6,0.4,1.2,0.8,1.9,1.2
					c2.5,1.5,5.1,2.7,7.8,3.9c2.7,1.1,5.3,2.1,8,3.1c2.6,1,5.2,2.1,7.6,3.3c0.6,0.3,1.2,0.6,1.8,1l0.4,0.2l0.4,0.3l0.9,0.6
					c0.6,0.4,1,0.7,1.6,1.1c0.5,0.4,1,0.8,1.5,1.2c2,1.7,3.7,3.7,5.2,5.9c1.4,2.2,2.4,4.5,2.9,6.9s0.3,4.8-0.4,6.9l-0.4,0.9
					l-0.1,0.2v0.1l-0.2,0.5l-0.5,0.9l-0.4,0.6c-0.2,0.4-0.7,0.8-1,1.3c-0.4,0.4-0.8,0.8-1.3,1.2c-0.7,0.5-1.4,1-2.2,1.4
					c0.1-0.1,0.3-0.2,0.4-0.3c1.3-1.2,2.6-2.7,3.5-4.6s1-4.2,0.6-6.1c-0.1-0.5-0.2-0.9-0.3-1.4l-0.2-0.7l-0.1-0.3V284l-0.1-0.2
					l-0.1-0.1l-0.2-0.5c-0.1-0.2-0.1-0.3-0.3-0.6c-0.2-0.4-0.5-0.9-0.7-1.3c-2-3.1-4.9-5.2-7.8-6.7c-1.5-0.7-3-1.3-4.6-1.8l-1.2-0.3
					l-1.1-0.3c-0.8-0.2-1.5-0.4-2.3-0.5c-6-1.3-11.8-1.9-17.5-3.3c-2.7-0.6-5.5-1.6-8.1-2.7s-5.2-2.5-7.7-3.9
					c-2.5-1.5-4.9-3.1-7.2-4.9c-2.3-1.8-4.4-3.8-6.5-5.9c-4.1-4.2-7.7-8.9-10.7-14.1l0,0l0,0l0,0l0,0c-3,5.1-6.6,9.9-10.7,14.1
					c-2.1,2.1-4.2,4.1-6.5,5.9c-2.3,1.8-4.7,3.5-7.2,4.9c-2.5,1.5-5.1,2.8-7.7,3.9c-2.6,1.1-5.4,2-8.1,2.7c-5.6,1.3-11.5,2-17.5,3.3
					c-0.7,0.2-1.5,0.3-2.3,0.5l-1.1,0.3l-1.2,0.3c-1.5,0.5-3.1,1-4.6,1.8c-2.9,1.5-5.8,3.6-7.8,6.7c-0.3,0.3-0.5,0.8-0.7,1.3
					c-0.1,0.2-0.2,0.4-0.3,0.6l-0.2,0.5l-0.1,0.1l-0.1,0.2v0.1l-0.1,0.3l-0.2,0.7c-0.1,0.5-0.3,0.9-0.3,1.4
					c-0.4,1.9-0.2,4.2,0.6,6.1c0.8,1.9,2.1,3.4,3.5,4.6c0.1,0.1,0.3,0.2,0.4,0.3c-0.8-0.4-1.6-0.9-2.2-1.4c-0.5-0.4-0.9-0.8-1.3-1.2
					c-0.3-0.4-0.8-0.9-1-1.3l-0.4-0.6l-0.5-0.9l-0.2-0.5v-0.1l-0.3-0.2l-0.3-0.8c-0.8-2.2-0.9-4.6-0.4-6.9c0.5-2.4,1.5-4.7,2.9-6.9
					c1.4-2.2,3.2-4.2,5.2-5.9c0.5-0.4,1-0.9,1.5-1.2c0.5-0.4,1-0.7,1.6-1.1l0.9-0.6l0.4-0.3l0.4-0.2c0.6-0.3,1.2-0.7,1.8-1
					c2.4-1.2,5-2.3,7.6-3.3s5.3-2,8-3.1c2.7-1.1,5.3-2.4,7.8-3.9c0.6-0.4,1.3-0.8,1.9-1.2c0.6-0.4,1.2-0.8,1.7-1.3
					c1.2-0.9,2.3-1.9,3.3-2.9c3.5-3.3,6.4-7.1,8.8-11.3c1.2-1.3,2.4-2.6,3.4-3.9c3.6-4.5,5.7-8.5,7.1-11.2c0.6-1.1,1-2,1.3-2.7
					c0.1-0.1,0.1-0.3,0.2-0.4c0.3-0.7,0.5-1.1,0.5-1.1s-0.2,0.4-0.6,1.1c-0.1,0.1-0.2,0.3-0.2,0.4c-0.4,0.7-0.8,1.5-1.5,2.6
					c-1.6,2.6-4,6.3-7.8,10.5c-3.7,4.2-8.9,8.7-15.6,12.7c-6.7,3.9-14.9,7.2-24.3,8.6c-9.3,1.3-19.7,0.4-29.8-3.4
					c-5.1-1.9-10.2-4.3-15.6-6.7c-2.7-1.2-5.4-2.4-8.3-3.5c-2.8-1.1-5.8-2.1-8.9-2.9c-3.1-0.8-6.4-1.3-9.8-1.3
					c-3.4,0-6.8,0.6-10.1,1.8c-3.3,1.2-6.4,3-9.1,5.7c-1.3,1.4-2.4,2.9-3.3,4.7c-0.2,0.4-0.4,0.9-0.6,1.3l-0.3,0.7
					c-0.1,0.2-0.1,0.5-0.2,0.8c-0.1,0.5-0.3,1-0.4,1.5l-0.2,1.2v0.3v0.1c0,0.1,0-0.1,0,0.3v0.7c0,0.4,0,0.7,0,1.1
					c-0.1-0.4-0.1-0.7-0.1-1.1c0-0.3-0.1-0.6-0.1-0.9s0-0.6,0-1c0.2-5.4,2.9-10.6,6.9-14.3c3.9-3.8,9.1-6,14.5-7.1
					c2.7-0.5,5.4-0.8,8.1-0.8c1.4,0,2.6,0.1,4.1,0.2c1.3,0.1,2.7,0.3,4,0.5c5.3,0.8,10.5,2.2,15.5,3.6c5,1.4,9.9,2.9,14.8,3.9
					c4.8,1,9.6,1.6,14.2,1.5c2.3-0.1,4.6-0.3,6.6-0.7c0.5-0.1,1.1-0.2,1.6-0.3c0.5-0.1,1-0.3,1.5-0.4c1-0.2,2-0.6,3-0.9
					c7.7-2.5,13.6-6.7,17.8-10.6c4.2-4,6.6-7.8,8.1-10.5c0.3-0.7,0.7-1.3,0.9-1.8c0.2-0.5,0.4-1,0.6-1.3c0.3-0.7,0.5-1.1,0.5-1.1
					s-0.2,0.4-0.6,1.1c-0.2,0.3-0.4,0.8-0.7,1.3c-0.3,0.5-0.7,1.1-1,1.7c-1.6,2.5-4.3,6.1-8.6,9.7c-4.3,3.6-10.2,7.2-17.6,9.2
					c-0.9,0.2-1.9,0.5-2.8,0.7c-0.5,0.1-1,0.2-1.5,0.3c-0.5,0.1-1,0.1-1.5,0.2c-1,0.1-2.1,0.3-3.1,0.3c-0.5,0-1,0-1.5,0s-1,0-1.6,0
					c-4.3-0.1-8.8-0.8-13.4-2c-9.3-2.3-19-6.6-30.4-8.7c-1.4-0.2-2.9-0.4-4.4-0.6c-1.4-0.1-3-0.3-4.4-0.3c-3-0.1-6.1,0.1-9.1,0.6
					c-3.1,0.5-6.2,1.4-9.1,2.7c-3,1.3-5.8,3.1-8.3,5.4c-2.5,2.3-4.6,5-6.2,8c-0.8,1.5-1.4,3.2-1.9,4.9c-0.5,1.7-0.8,3.5-0.9,5.2
					c-0.4,7.4,3.1,14.5,8.7,19.2c0.7,0.6,1.4,1.1,2.2,1.6l0.3,0.2c0.1,0.1,0,0,0.3,0.2l0.1,0.1l0.5,0.3c0.4,0.2,0.6,0.4,1.1,0.6
					c1.8,0.9,3.5,1.5,5.4,1.9c1.8,0.4,3.7,0.6,5.6,0.5c0.9,0,1.9-0.1,2.8-0.2c0.9-0.2,1.9-0.3,2.8-0.6c3.7-1,7.1-3.3,9.6-6.3
					l0.9-1.2l0.4-0.6l0.3-0.6c0.3-0.4,0.5-0.8,0.7-1.3s0.5-0.9,0.7-1.6c0.1-0.2,0.1-0.4,0.2-0.6c0-0.1,0-0.2,0.1-0.4
					c0-0.2,0-0.4,0-0.6s0-0.7-0.3-1.2c-0.2-0.5-0.8-1.4-1.7-1.8c-1-0.4-1.7-0.3-2.1-0.3c-0.5,0.1-0.7,0.2-0.9,0.3
					c-0.8,0.4-1,0.6-1.3,0.9c-0.3,0.2-0.5,0.5-0.7,0.7c-0.4,0.4-0.7,0.8-1,1.2l-0.2,0.2l0,0l-0.1,0.1l-0.4,0.5
					c-1.5,1.9-3.7,3.2-6.2,3.7c-2.5,0.4-5.2,0-7.6-1.1c-2.4-1.1-4.5-2.9-5.9-5c-0.7-1.1-1.2-2.2-1.5-3.4c-0.1-0.6-0.2-1.2-0.3-1.8
					c0-0.3,0-0.6,0-0.9v-0.4v-0.1v-0.3l0.2-1.2l0.2-0.8c0-0.1,0.1-0.3,0.1-0.4l0.2-0.4c0.1-0.3,0.2-0.6,0.3-0.9
					c0.5-1.1,1.3-2.1,2.1-3.1c1.8-1.9,4.1-3.4,6.7-4.3c1.3-0.5,2.6-0.9,4-1.2l1-0.2l1-0.1l0.5-0.1h0.6h0.6h0.5
					c2.7-0.1,5.6,0.3,8.3,1c2.8,0.7,5.5,1.6,8.3,2.6c2.7,1,5.4,2.1,8.1,3.2c5.4,2.2,10.7,4.5,16.1,6.3c2.7,0.9,5.4,1.7,8.2,2.3
					c2.7,0.6,5.5,1,8.2,1.1c5.4,0.4,10.7,0,15.6-0.9c9.9-1.8,18.3-5.7,25-10.1c3.9-2.6,7.2-5.4,10-8.1c-0.6,0.8-1.2,1.5-1.9,2.3
					c-1.9,2.1-3.9,4-6.1,5.7c-1.1,0.9-2.3,1.7-3.4,2.4c-0.6,0.4-1.2,0.8-1.8,1.1c-0.6,0.3-1.2,0.7-1.8,1c-2.5,1.2-5.1,2.2-7.7,3.1
					l-8.1,2.6c-2.7,0.9-5.5,1.8-8.2,3c-0.7,0.3-1.3,0.6-2,0.9l-0.3,0.1l-0.1,0.1h-0.1l-0.1,0.1l-0.5,0.3l-0.9,0.5
					c-0.6,0.4-1.3,0.8-2,1.3c-0.6,0.4-1.2,0.9-1.8,1.4c-2.4,1.9-4.5,4.1-6.3,6.6c-1.8,2.5-3.2,5.4-4,8.5c-0.8,3.1-0.7,6.6,0.3,9.8
					l0.4,1.2l0.1,0.3l0,0c0,0,0.1,0.3,0.1,0.2v0.1l0.1,0.1l0.2,0.5l0.5,1l0.7,1.2c0.5,0.8,1,1.4,1.6,2.1c0.6,0.6,1.2,1.2,1.8,1.8
					c2.6,2.1,5.5,3.5,8.4,4.5s5.7,1.7,8.4,2.4c0.7,0.2,1.3,0.3,2,0.5l1,0.3l1,0.3c1.2,0.4,2.5,0.8,3.7,1.3c1.2,0.5,2.3,1.1,3.4,1.7
					c1,0.6,2,1.4,2.8,2.1c0.8,0.8,1.5,1.7,2,2.6s0.8,2,1,3v0.1c0.3,1.5,1.6,2.6,3.2,2.6c1.8,0,3.2-1.5,3.2-3.3v-0.3v-0.1v-0.3v-0.6
					l-0.1-1.1c-0.1-0.5-0.2-1-0.3-1.5l-0.2-0.7l-0.2-0.7c-0.2-0.4-0.3-0.9-0.5-1.3l-0.6-1.2c-0.2-0.4-0.4-0.8-0.7-1.2
					c-0.2-0.4-0.5-0.8-0.8-1.1c-2.2-2.8-4.8-5-7.6-6.6c-2.8-1.7-5.7-2.9-8.5-4c-2.8-1.1-5.5-2-7.8-3.3c-2.4-1.2-4.4-2.8-5.2-4.4
					c-0.4-0.8-0.5-1.6-0.3-2.6c0-0.2,0.1-0.5,0.2-0.8l0.1-0.4l0.1-0.2l0,0l0,0v-0.1l0.2-0.5c0.1-0.2,0.1-0.4,0.2-0.4
					c0.1-0.2,0.2-0.4,0.4-0.7c1.2-2,3.2-3.6,5.5-4.8c1.2-0.6,2.4-1.1,3.7-1.6l1-0.3l1.1-0.3c0.7-0.2,1.4-0.4,2.1-0.6
					c2.8-0.7,5.7-1.3,8.6-1.9c2.9-0.6,5.9-1.2,8.8-2.1c3-0.9,5.8-2.1,8.6-3.4c2.7-1.4,5.4-2.9,7.9-4.7c2.5-1.7,4.9-3.7,7.1-5.7
					c2.2-2.1,4.3-4.2,6.2-6.6c1.9-2.3,3.7-4.8,5.2-7.3c1.5-2.6,2.9-5.2,4.1-7.9c1.2,2.7,2.6,5.4,4.1,7.9c1.6,2.6,3.3,5,5.2,7.3
					s4,4.5,6.2,6.6c2.2,2.1,4.6,4,7.1,5.7s5.1,3.3,7.9,4.7c2.8,1.4,5.6,2.5,8.6,3.4c2.9,0.9,5.9,1.5,8.8,2.1
					c2.9,0.6,5.8,1.2,8.6,1.9c0.7,0.2,1.4,0.4,2.1,0.6l1.1,0.3l1,0.3c1.3,0.4,2.5,1,3.7,1.6c2.3,1.2,4.3,2.8,5.5,4.8
					c0.2,0.3,0.2,0.4,0.4,0.7c0.1,0.1,0.1,0.3,0.2,0.4l0.2,0.5v0.1l0,0l0,0l0.1,0.2l0.1,0.4c0,0.3,0.1,0.5,0.2,0.8
					c0.2,1,0.1,1.8-0.3,2.6c-0.7,1.6-2.8,3.2-5.2,4.4c-2.4,1.3-5,2.2-7.8,3.3c-2.9,1.1-5.8,2.4-8.5,4c-2.8,1.6-5.5,3.8-7.6,6.6
					c-0.3,0.4-0.5,0.7-0.8,1.1c-0.2,0.4-0.5,0.8-0.7,1.2l-0.6,1.2c-0.2,0.4-0.3,0.9-0.5,1.3l-0.2,0.7l-0.2,0.7
					c-0.1,0.5-0.2,1-0.3,1.5l-0.1,1.1v0.6v0.3v0.1v0.3c0,1.5,1,2.9,2.6,3.2c1.7,0.4,3.4-0.8,3.8-2.5v-0.1c0.2-1.1,0.5-2.1,1-3
					s1.2-1.8,2-2.6c0.8-0.8,1.8-1.5,2.8-2.1c1.1-0.6,2.2-1.2,3.4-1.7s2.5-0.9,3.7-1.3l1-0.3l1-0.3c0.7-0.2,1.3-0.4,2-0.5
					c2.7-0.7,5.6-1.4,8.4-2.4c2.9-1,5.8-2.4,8.4-4.5c0.6-0.5,1.2-1.1,1.8-1.8c0.5-0.7,1.1-1.3,1.6-2.1l0.7-1.2l0.5-1l0.2-0.5
					l0.1-0.1v-0.1c-0.1,0.1,0.1-0.2,0.1-0.2l0,0l0.1-0.3l0.4-1.2c1-3.2,1.1-6.7,0.3-9.8c-0.8-3.2-2.2-6-4-8.5s-3.9-4.7-6.3-6.6
					c-0.6-0.5-1.2-0.9-1.8-1.4c-0.6-0.4-1.3-0.9-2-1.3l-0.9-0.5l-0.5-0.3l-0.1-0.1h-0.1l-0.1-0.1l-0.3-0.1c-0.7-0.3-1.3-0.7-2-0.9
					c-2.7-1.2-5.4-2.1-8.2-3l-8.1-2.6c-2.7-0.9-5.2-1.9-7.7-3.1c-0.6-0.3-1.2-0.6-1.8-1c-0.6-0.3-1.2-0.7-1.8-1.1
					c-1.1-0.7-2.3-1.6-3.4-2.4c-2.2-1.7-4.2-3.7-6.1-5.7c-0.7-0.7-1.3-1.5-1.9-2.3c2.8,2.8,6.1,5.5,10,8.1c6.7,4.4,15.1,8.4,25,10.1
					c4.9,0.9,10.2,1.2,15.6,0.9c2.7-0.2,5.4-0.6,8.2-1.1c2.8-0.6,5.5-1.4,8.2-2.3c5.4-1.8,10.7-4.1,16.1-6.3
					c2.7-1.1,5.4-2.2,8.1-3.2c2.8-1,5.5-1.9,8.3-2.6s5.6-1.1,8.3-1h0.5h0.6h0.6l0.5,0.1l1,0.1l1,0.2c1.4,0.3,2.7,0.6,4,1.2
					c2.6,1,4.9,2.5,6.7,4.3c0.9,1,1.6,2,2.1,3.1c0.1,0.3,0.2,0.6,0.3,0.9l0.2,0.4c0,0.1,0.1,0.3,0.1,0.4l0.2,0.8l0.2,1.2v0.3v0.1
					v0.4c0,0.3,0,0.6,0,0.9c0,0.6-0.1,1.2-0.3,1.8c-0.3,1.2-0.8,2.4-1.5,3.4c-1.4,2.1-3.5,3.9-5.9,5s-5.1,1.5-7.6,1.1
					s-4.7-1.7-6.2-3.7l-0.4-0.5l-0.1-0.1c0,0,0-0.1,0,0l-0.2-0.3c-0.3-0.4-0.6-0.8-1-1.2c-0.2-0.2-0.4-0.4-0.7-0.7
					c-0.3-0.2-0.5-0.5-1.3-0.9c-0.3-0.1-0.4-0.2-0.9-0.3c-0.4-0.1-1.1-0.2-2.1,0.3c-0.9,0.4-1.6,1.3-1.7,1.8c-0.2,0.5-0.2,1-0.3,1.2
					c0,0.3,0,0.5,0,0.6c0,0.2,0,0.3,0.1,0.4c0,0.2,0.1,0.5,0.2,0.6c0.2,0.7,0.4,1.2,0.7,1.6c0.2,0.5,0.5,0.9,0.7,1.3l0.3,0.6
					l0.4,0.6l0.9,1.2c2.5,3,5.9,5.3,9.6,6.3c0.9,0.3,1.8,0.4,2.8,0.6c0.9,0.1,1.9,0.3,2.8,0.2c1.9,0.1,3.7-0.2,5.6-0.5
					c1.8-0.4,3.5-1,5.4-1.9c0.5-0.2,0.7-0.4,1.1-0.6l0.5-0.3l0.1-0.1c0.3-0.2,0.2-0.1,0.3-0.2l0.3-0.2c0.8-0.5,1.5-1.1,2.2-1.6
					c5.6-4.7,9.1-11.8,8.7-19.2C513.1,253.3,512.8,251.5,512.3,249.8z M388.2,306.4c0-1-0.8-1.7-1.7-1.7c-1,0-1.7,0.8-1.7,1.7
					c0,1,0.8,1.7,1.7,1.7C387.4,308.1,388.2,307.4,388.2,306.4z M391,298.4c0,1.6,1.3,2.9,2.9,2.9s2.9-1.3,2.9-2.9s-1.3-2.9-2.9-2.9
					C392.3,295.6,391,296.8,391,298.4z M402.5,289.4c-2,0-3.6,1.6-3.6,3.6s1.6,3.6,3.6,3.6s3.6-1.6,3.6-3.6S404.5,289.4,402.5,289.4
					z M410.2,290.2c2.2,0,4.1-1.8,4.1-4.1c0-2.2-1.8-4.1-4.1-4.1c-2.2,0-4.1,1.8-4.1,4.1C406.1,288.4,407.9,290.2,410.2,290.2z
					 M397,278c-2.3,0-4.2,1.9-4.2,4.2c0,2.3,1.9,4.2,4.2,4.2c2.3,0,4.2-1.9,4.2-4.2C401.2,279.8,399.3,278,397,278z M387.4,278.8
					c0-2.3-1.8-4.1-4.1-4.1c-2.3,0-4.1,1.8-4.1,4.1s1.8,4.1,4.1,4.1C385.6,282.9,387.4,281.1,387.4,278.8z M371.1,269.2
					c-2,0-3.7,1.6-3.7,3.7c0,2,1.6,3.7,3.7,3.7c2,0,3.7-1.6,3.7-3.7C374.8,270.9,373.1,269.2,371.1,269.2z M360.5,261.5
					c-1.6,0-2.9,1.3-2.9,2.9s1.3,2.9,2.9,2.9s2.9-1.3,2.9-2.9S362.1,261.5,360.5,261.5z M353.1,254.4c-1,0-1.8,0.8-1.8,1.8
					c0,1,0.8,1.8,1.8,1.8s1.8-0.8,1.8-1.8C354.9,255.2,354.1,254.4,353.1,254.4z M383.7,312.5c-0.7,0-1.2,0.5-1.2,1.2
					s0.5,1.2,1.2,1.2c0.7,0,1.2-0.5,1.2-1.2C384.9,313.1,384.3,312.5,383.7,312.5z M486.5,268.2c0.6,0,1.1-0.5,1.1-1.1
					s-0.5-1.1-1.1-1.1s-1.1,0.5-1.1,1.1C485.3,267.7,485.9,268.2,486.5,268.2z M496.7,263.8c1,0,1.9-0.8,1.9-1.9
					c0-1-0.8-1.9-1.9-1.9c-1,0-1.9,0.8-1.9,1.9C494.8,262.9,495.7,263.8,496.7,263.8z M493,248.7c-1.3,0-2.3,1-2.3,2.3
					s1,2.3,2.3,2.3s2.3-1,2.3-2.3S494.3,248.7,493,248.7z M481.3,250.8c1.4,0,2.6-1.1,2.6-2.6c0-1.4-1.1-2.6-2.6-2.6
					c-1.4,0-2.6,1.1-2.6,2.6C478.7,249.6,479.9,250.8,481.3,250.8z M471.8,250.9c0-1.4-1.1-2.6-2.6-2.6c-1.4,0-2.6,1.1-2.6,2.6
					c0,1.4,1.1,2.6,2.6,2.6C470.7,253.4,471.8,252.3,471.8,250.9z M457.7,252.7c-1.3,0-2.3,1-2.3,2.3c0,1.3,1,2.3,2.3,2.3
					s2.3-1,2.3-2.3C460,253.7,459,252.7,457.7,252.7z M446.2,257.7c-1,0-1.9,0.8-1.9,1.9c0,1,0.8,1.9,1.9,1.9c1,0,1.9-0.8,1.9-1.9
					C448.1,258.6,447.2,257.7,446.2,257.7z M434.3,261.7c-0.6,0-1.1,0.5-1.1,1.1s0.5,1.1,1.1,1.1s1.1-0.5,1.1-1.1
					C435.5,262.2,434.9,261.7,434.3,261.7z M326.5,172.9c0.3,0,0.6,0.1,0.9,0.1c3.4,0.2,6.5-1.8,8-4.7c0.4-0.8,0.6-1.6,0.8-2.5
					l-16.8-2.6C318.6,167.8,321.8,172.2,326.5,172.9z M359.5,167.3c1.3,3.7,4.9,6.1,8.9,5.7c0.2,0,0.3,0,0.5,0
					c4.6-0.7,7.8-5.1,7.1-9.7l-16.8,2.6C359.2,166.3,359.4,166.8,359.5,167.3z"/>
			</defs>
			<clipPath id="SVGID_2_">
				<use xlink:href="#SVGID_1_"  style="overflow:visible;"/>
			</clipPath>
			
				<linearGradient id="XMLID_4_" gradientUnits="userSpaceOnUse" x1="-126.4674" y1="688.8601" x2="673.5326" y2="688.8601" gradientTransform="matrix(1 0 0 1 0 -582.8629)">
				<stop  offset="0" style="stop-color:#B56928"/>
				<stop  offset="8.333330e-02" style="stop-color:#CF8D32"/>
				<stop  offset="0.1792" style="stop-color:#CF8D32"/>
				<stop  offset="0.2729" style="stop-color:#E0B359"/>
				<stop  offset="0.3417" style="stop-color:#FEF09E"/>
				<stop  offset="0.4063" style="stop-color:#FCF8C2"/>
				<stop  offset="0.4844" style="stop-color:#FEF09E"/>
				<stop  offset="0.587" style="stop-color:#E0B359"/>
				<stop  offset="0.6715" style="stop-color:#CF8D32"/>
				<stop  offset="0.7717" style="stop-color:#C37C2A"/>
				<stop  offset="0.8337" style="stop-color:#CD842A"/>
				<stop  offset="0.8827" style="stop-color:#E5A43B"/>
				<stop  offset="0.9307" style="stop-color:#F0B54A"/>
				<stop  offset="1" style="stop-color:#B76B29"/>
			</linearGradient>
			<path id="XMLID_1039_" class="st0" d="M673.5,113.2c0,0-48.4-61.7-178.1-106.4C371.9-35.8,105.9,33.1-126.5-215.1V427h800V113.2z
				"/>
		</g>
	</g>
	<g>
		<g>
			<defs>
				<text id="SVGID_3_" transform="matrix(1 0 0 1 290.6081 101.8026)" class="st1 st2">DK</text>
			</defs>
			<clipPath id="SVGID_4_">
				<use xlink:href="#SVGID_3_"  style="overflow:visible;"/>
			</clipPath>
			
				<linearGradient id="XMLID_5_" gradientUnits="userSpaceOnUse" x1="-123.864" y1="721.6601" x2="676.136" y2="721.6601" gradientTransform="matrix(1 0 0 1 0 -582.8629)">
				<stop  offset="0" style="stop-color:#B56928"/>
				<stop  offset="8.333330e-02" style="stop-color:#CF8D32"/>
				<stop  offset="0.1792" style="stop-color:#CF8D32"/>
				<stop  offset="0.2729" style="stop-color:#E0B359"/>
				<stop  offset="0.3417" style="stop-color:#FEF09E"/>
				<stop  offset="0.4063" style="stop-color:#FCF8C2"/>
				<stop  offset="0.4844" style="stop-color:#FEF09E"/>
				<stop  offset="0.587" style="stop-color:#E0B359"/>
				<stop  offset="0.6715" style="stop-color:#CF8D32"/>
				<stop  offset="0.7717" style="stop-color:#C37C2A"/>
				<stop  offset="0.8337" style="stop-color:#CD842A"/>
				<stop  offset="0.8827" style="stop-color:#E5A43B"/>
				<stop  offset="0.9307" style="stop-color:#F0B54A"/>
				<stop  offset="1" style="stop-color:#B76B29"/>
			</linearGradient>
			<path id="XMLID_1_" class="st3" d="M676.1,148.1c0,0-48.4-80.7-178.1-139.2C374.5-46.8,108.5,43.3-123.9-281.2v839.9h800V148.1z"
				/>
		</g>
	</g>
	<g>
		<g>
			<defs>
				<text id="SVGID_5_" transform="matrix(1 0 0 1 146.7883 375.6729)" class="st1 st4">SIGN UP NOW</text>
			</defs>
			<clipPath id="SVGID_6_">
				<use xlink:href="#SVGID_5_"  style="overflow:visible;"/>
			</clipPath>
			
				<linearGradient id="XMLID_6_" gradientUnits="userSpaceOnUse" x1="113.1353" y1="830.8601" x2="913.1353" y2="830.8601" gradientTransform="matrix(1 0 0 1 0 -582.8629)">
				<stop  offset="0" style="stop-color:#B56928"/>
				<stop  offset="8.333330e-02" style="stop-color:#CF8D32"/>
				<stop  offset="0.1792" style="stop-color:#CF8D32"/>
				<stop  offset="0.2729" style="stop-color:#E0B359"/>
				<stop  offset="0.3417" style="stop-color:#FEF09E"/>
				<stop  offset="0.4063" style="stop-color:#FCF8C2"/>
				<stop  offset="0.4844" style="stop-color:#FEF09E"/>
				<stop  offset="0.587" style="stop-color:#E0B359"/>
				<stop  offset="0.6715" style="stop-color:#CF8D32"/>
				<stop  offset="0.7717" style="stop-color:#C37C2A"/>
				<stop  offset="0.8337" style="stop-color:#CD842A"/>
				<stop  offset="0.8827" style="stop-color:#E5A43B"/>
				<stop  offset="0.9307" style="stop-color:#F0B54A"/>
				<stop  offset="1" style="stop-color:#B76B29"/>
			</linearGradient>
			<path id="XMLID_2_" class="st5" d="M913.1,255.1c0,0-48.4-61.7-178.1-106.4c-123.4-42.5-389.5,26.4-621.9-221.8V569h800V255.1z"
				/>
		</g>
	</g>
</g>
</svg>
