<?xml version="1.0" encoding="utf-8"?>
<!-- Generator: Adobe Illustrator 22.1.0, SVG Export Plug-In . SVG Version: 6.00 Build 0)  -->
<svg version="1.1" id="Layer_1" xmlns="http://www.w3.org/2000/svg" xmlns:xlink="http://www.w3.org/1999/xlink" x="0px" y="0px"
	 viewBox="0 0 404 420.6" style="enable-background:new 0 0 404 420.6;" xml:space="preserve">
<style type="text/css">
	.st0{clip-path:url(#SVGID_2_);fill:url(#XMLID_4_);}
	.st1{font-family:'Garamond';}
	.st2{font-size:75.1167px;}
	.st3{clip-path:url(#SVGID_4_);fill:url(#XMLID_5_);}
	.st4{font-size:61.5125px;}
	.st5{clip-path:url(#SVGID_6_);fill:url(#XMLID_6_);}
</style>
<g>
	<g>
		<defs>
			<path id="SVGID_1_" d="M83.9,95.9c0.2,0,0.4,0.2,0.4,0.4c0,0.2-0.2,0.4-0.4,0.4s-0.4-0.2-0.4-0.4S83.7,95.9,83.9,95.9z M92.6,103
				c0,0.4,0.4,0.8,0.8,0.8s0.8-0.4,0.8-0.8s-0.4-0.8-0.8-0.8C92.9,102.3,92.6,102.6,92.6,103z M103.8,104.7c0,0.6,0.5,1.1,1.1,1.1
				s1.1-0.5,1.1-1.1s-0.5-1.1-1.1-1.1S103.8,104.1,103.8,104.7z M114.5,101c0,0.8,0.6,1.4,1.4,1.4s1.4-0.6,1.4-1.4s-0.6-1.4-1.4-1.4
				S114.5,100.3,114.5,101z M129.9,72.9c1.1,0,2-0.9,2-2s-0.9-2-2-2s-2,0.9-2,2C127.9,72,128.8,72.9,129.9,72.9z M126,57.8
				c-1.2,0-2.2,1-2.2,2.2s1,2.2,2.2,2.2s2.2-1,2.2-2.2S127.2,57.8,126,57.8z M116,51.2c0,1.3,1,2.3,2.3,2.3s2.3-1,2.3-2.3
				s-1-2.3-2.3-2.3C117.1,48.9,116,50,116,51.2z M105.8,45.5c0,1.3,1.1,2.4,2.4,2.4s2.4-1.1,2.4-2.4c0-1.3-1.1-2.4-2.4-2.4
				C106.8,43.1,105.8,44.2,105.8,45.5z M96.7,40.6c-1.4,0-2.5,1.1-2.5,2.5s1.1,2.5,2.5,2.5s2.5-1.1,2.5-2.5
				C99.2,41.7,98.1,40.6,96.7,40.6z M82.6,44.2c0,1.4,1.1,2.5,2.5,2.5s2.5-1.1,2.5-2.5s-1.1-2.5-2.5-2.5S82.6,42.8,82.6,44.2z
				 M76.8,48.6c0-1.4-1.1-2.5-2.5-2.5s-2.5,1.1-2.5,2.5s1.1,2.5,2.5,2.5C75.7,51.1,76.8,50,76.8,48.6z M67.6,55.7
				c0-1.4-1.2-2.6-2.6-2.6s-2.6,1.2-2.6,2.6c0,1.4,1.2,2.6,2.6,2.6C66.4,58.3,67.6,57.1,67.6,55.7z M57.8,67.4
				c1.4,0,2.5-1.1,2.5-2.5s-1.1-2.5-2.5-2.5s-2.5,1.1-2.5,2.5S56.4,67.4,57.8,67.4z M52.7,72.9c-1.4,0-2.5,1.1-2.5,2.5
				s1.1,2.5,2.5,2.5s2.5-1.1,2.5-2.5C55.3,74,54.1,72.9,52.7,72.9z M47.1,86.7c0,1.4,1.1,2.5,2.5,2.5s2.5-1.1,2.5-2.5
				s-1.1-2.5-2.5-2.5C48.2,84.2,47.1,85.3,47.1,86.7z M45.6,98.3c0,1.3,1.1,2.4,2.4,2.4c1.3,0,2.4-1.1,2.4-2.4s-1.1-2.4-2.4-2.4
				C46.7,95.9,45.6,97,45.6,98.3z M47.9,112.3c1.3,0,2.3-1,2.3-2.3s-1-2.3-2.3-2.3s-2.3,1-2.3,2.3C45.6,111.3,46.6,112.3,47.9,112.3
				z M49,123.8c1.2,0,2.2-1,2.2-2.2s-1-2.2-2.2-2.2s-2.2,1-2.2,2.2C46.8,122.9,47.8,123.8,49,123.8z M51.4,135.2c1.1,0,2-0.9,2-2
				s-0.9-2-2-2s-2,0.9-2,2C49.3,134.2,50.2,135.2,51.4,135.2z M54.8,146.2c1,0,1.9-0.8,1.9-1.9c0-1-0.8-1.9-1.9-1.9
				c-1,0-1.9,0.8-1.9,1.9C52.9,145.3,53.8,146.2,54.8,146.2z M57.7,155.1c0,0.9,0.7,1.7,1.7,1.7c0.9,0,1.7-0.7,1.7-1.7
				c0-0.9-0.7-1.7-1.7-1.7C58.4,153.4,57.7,154.2,57.7,155.1z M63.4,165.4c0,0.8,0.6,1.4,1.4,1.4s1.4-0.6,1.4-1.4
				c0-0.8-0.6-1.4-1.4-1.4C64.1,164,63.4,164.6,63.4,165.4z M70.2,175.2c0,0.6,0.5,1.2,1.2,1.2c0.6,0,1.2-0.5,1.2-1.2
				S72,174,71.3,174C70.7,174,70.2,174.5,70.2,175.2z M77.8,184.3c0,0.5,0.4,0.9,0.9,0.9s0.9-0.4,0.9-0.9s-0.4-0.9-0.9-0.9
				C78.2,183.4,77.8,183.8,77.8,184.3z M86.4,192.7c0,0.3,0.2,0.5,0.5,0.5s0.5-0.2,0.5-0.5s-0.2-0.5-0.5-0.5S86.4,192.4,86.4,192.7z
				 M95.8,200.2C95.8,200.2,95.8,200.3,95.8,200.2c0.1,0.1,0.2,0,0.2,0C95.9,200.2,95.9,200.1,95.8,200.2
				C95.8,200.1,95.8,200.2,95.8,200.2z M37.1,151.6l0.7,1.4c0.2,0.5,0.5,1.1,0.7,1.6s0.4,1,0.6,1.5c0.8,2.1,1.4,4.2,2,6.4
				c1.1,4.4,1.9,8.9,2.7,13.6c0.8,4.7,1.8,9.4,3,14.1c1.2,4.7,2.8,9.3,4.7,13.8c2,4.5,4.4,8.8,7.3,12.8c2.9,4,6.3,7.6,10.2,10.7
				c3.9,3.1,8.1,5.6,12.6,7.7c4.5,2,9.1,3.5,13.8,4.6c4.7,1.1,9.5,1.8,14.2,2.2c1.2,0.1,2.4,0.2,3.6,0.3l3.6,0.1
				c2.3,0.1,4.8,0.1,7.2,0c4.8-0.1,9.5-0.5,14.3-1.2c4.7-0.7,9.4-1.7,13.9-3c4.6-1.3,9-3.1,13.2-5.3c-4.3,1.9-8.8,3.3-13.4,4.3
				c-4.6,1-9.2,1.7-13.9,2.1c-4.7,0.4-9.4,0.5-14,0.4c-2.4-0.1-4.6-0.2-7-0.4l-3.5-0.3l-3.5-0.4c-9.2-1.2-18.3-3.5-26.5-7.5
				c-4.1-2-8-4.5-11.4-7.4c-0.8-0.7-1.7-1.4-2.5-2.3l-1.3-1.2l-0.3-0.3c0,0,0.1,0.1,0,0l0,0l-0.1-0.1l-0.1-0.2l-0.6-0.6
				c-0.8-0.8-1.5-1.7-2.2-2.6l-1-1.3c-0.3-0.5-0.6-0.9-1-1.4c-5.1-7.4-8.5-16-10.7-25c-1.1-4.5-1.9-9-2.7-13.6
				c-0.7-4.6-1.4-9.4-2.6-14.2c-0.3-1.2-0.6-2.3-1-3.5c0.4,0.9,0.8,1.9,1.2,2.8c1.5,3.6,2.6,7.4,3.8,11.3c1.2,3.9,2.3,7.8,3.6,11.7
				c0.7,2,1.4,3.9,2.2,5.8c0.4,1,0.8,1.9,1.2,2.9l0.6,1.4l0.2,0.3l0.2,0.4l0.4,0.7c1.9,3.7,4.1,7.3,6.7,10.7c2.6,3.3,5.6,6.4,9,8.9
				c0.9,0.6,1.7,1.3,2.6,1.8c0.5,0.3,0.9,0.6,1.3,0.8l0.7,0.4c0.1,0.1,0.2,0.1,0.4,0.2l0.4,0.2c0.9,0.5,1.9,1,2.8,1.4l2.9,1.2
				c3.9,1.5,8.1,2.4,12.2,2.9s8.3,0.6,12.4,0.4c4.1-0.2,8.2-0.6,12.2-1.3s8-1.4,12-2.3c4-1,7.9-2.2,11.6-3.8
				c-3.8,1.4-7.8,2.2-11.8,2.9s-8,1.2-12,1.6c-4,0.4-8,0.6-12,0.6s-8-0.3-11.9-1s-7.7-1.7-11.3-3.2l-2.6-1.2
				c-0.9-0.4-1.7-0.9-2.5-1.4l-0.3-0.2c0,0-0.2-0.1-0.3-0.2l-0.6-0.4c-0.4-0.3-0.9-0.5-1.2-0.8c-0.8-0.5-1.5-1.1-2.3-1.7
				c-1.5-1.2-2.9-2.6-4.2-4c-1.3-1.4-2.5-2.9-3.7-4.5c-2.3-3.1-4.3-6.5-5.9-10.1l-0.3-0.7l-0.1-0.3l-0.2-0.3l-0.6-1.4
				c-0.4-0.9-0.7-1.8-1.1-2.7c-0.7-1.8-1.3-3.7-1.9-5.6c-1.2-3.8-2.2-7.7-3.2-11.6c-1.1-3.9-2.2-7.9-3.7-11.8
				c-1.5-3.9-3.3-7.8-5.6-11.4c-2.2-3.6-5-7.1-8.2-10c-3.3-3-7-5.4-11.1-7.1c-2.1-0.8-4.2-1.5-6.5-1.9l-0.8-0.1l-0.9-0.1
				c-0.6-0.1-1.1-0.1-1.7-0.2c-1.1-0.1-2.3-0.1-3.4,0c-4.5,0.2-9.1,1.5-13,3.9c-1.2,0.8-1.8,2.3-1.3,3.7c0.6,1.7,2.4,2.6,4,2l0,0
				c4.2-1.4,8.5-2.2,12.5-1.7l0.4,0.1h0.2h0.1l0,0l0.8,0.2l0.9,0.2c0.3,0.1,0.5,0.1,0.7,0.2c0.9,0.2,1.9,0.6,2.8,1
				c1.9,0.8,3.7,1.9,5.4,3.2c3.3,2.6,6.1,6,8.3,9.8C36.5,150.6,36.8,151.1,37.1,151.6z M62.4,284.7c0,0.6,0.5,1.1,1.1,1.1
				s1.1-0.5,1.1-1.1s-0.5-1.1-1.1-1.1S62.4,284.1,62.4,284.7z M51.4,279.6c0,1,0.8,1.9,1.9,1.9c1,0,1.9-0.8,1.9-1.9
				c0-1-0.8-1.9-1.9-1.9C52.3,277.7,51.4,278.5,51.4,279.6z M57,271.1c1.3,0,2.3-1,2.3-2.3s-1-2.3-2.3-2.3s-2.3,1-2.3,2.3
				S55.7,271.1,57,271.1z M66.2,265.9c0,1.4,1.1,2.6,2.6,2.6c1.4,0,2.6-1.1,2.6-2.6c0-1.4-1.1-2.6-2.6-2.6
				C67.3,263.4,66.2,264.5,66.2,265.9z M80.8,266c-1.4,0-2.6,1.1-2.6,2.6c0,1.4,1.1,2.6,2.6,2.6c1.4,0,2.6-1.1,2.6-2.6
				C83.3,267.1,82.2,266,80.8,266z M92.4,270.4c-1.3,0-2.3,1-2.3,2.3s1,2.3,2.3,2.3s2.3-1,2.3-2.3S93.7,270.4,92.4,270.4z
				 M103.8,275.4c-1,0-1.9,0.8-1.9,1.9c0,1,0.8,1.9,1.9,1.9s1.9-0.8,1.9-1.9C105.7,276.3,104.9,275.4,103.8,275.4z M115.7,279.4
				c-0.6,0-1.1,0.5-1.1,1.1s0.5,1.1,1.1,1.1s1.1-0.5,1.1-1.1C116.9,279.9,116.3,279.4,115.7,279.4z M163.4,322.4
				c-1,0-1.7,0.8-1.7,1.7c0,1,0.8,1.7,1.7,1.7c1,0,1.7-0.8,1.7-1.7C165.2,323.2,164.4,322.4,163.4,322.4z M156,319
				c1.6,0,2.9-1.3,2.9-2.9s-1.3-2.9-2.9-2.9c-1.6,0-2.9,1.3-2.9,2.9S154.4,319,156,319z M147.4,314.4c2,0,3.6-1.6,3.6-3.6
				s-1.6-3.6-3.6-3.6s-3.6,1.6-3.6,3.6S145.4,314.4,147.4,314.4z M139.7,299.8c-2.2,0-4.1,1.8-4.1,4.1c0,2.2,1.8,4.1,4.1,4.1
				c2.2,0,4.1-1.8,4.1-4.1C143.8,301.6,142,299.8,139.7,299.8z M157.1,299.9c0-2.3-1.9-4.2-4.2-4.2s-4.2,1.9-4.2,4.2
				c0,2.3,1.9,4.2,4.2,4.2C155.2,304.1,157.1,302.2,157.1,299.9z M166.6,292.4c-2.3,0-4.1,1.8-4.1,4.1s1.8,4.1,4.1,4.1
				s4.1-1.8,4.1-4.1S168.8,292.4,166.6,292.4z M178.8,286.9c-2,0-3.7,1.6-3.7,3.7c0,2,1.6,3.7,3.7,3.7c2,0,3.7-1.6,3.7-3.7
				C182.5,288.6,180.8,286.9,178.8,286.9z M189.4,279.2c-1.6,0-2.9,1.3-2.9,2.9s1.3,2.9,2.9,2.9c1.6,0,2.9-1.3,2.9-2.9
				C192.3,280.5,191,279.2,189.4,279.2z M196.8,272.1c-1,0-1.8,0.8-1.8,1.8s0.8,1.8,1.8,1.8s1.8-0.8,1.8-1.8
				S197.8,272.1,196.8,272.1z M202.2,266.1c-0.1,0-0.1,0-0.2,0c-0.1,0-0.1,0-0.2,0c-0.7,0-1.2,0.5-1.2,1.2s0.5,1.2,1.2,1.2
				c0.1,0,0.1,0,0.2,0c0.1,0,0.1,0,0.2,0c0.7,0,1.2-0.5,1.2-1.2S202.9,266.1,202.2,266.1z M166.2,330.2c-0.7,0-1.2,0.5-1.2,1.2
				s0.5,1.2,1.2,1.2s1.2-0.5,1.2-1.2C167.4,330.8,166.9,330.2,166.2,330.2z M16.1,137.5c-0.5,0-0.9,0.4-0.9,0.9s0.4,0.9,0.9,0.9
				s0.9-0.4,0.9-0.9C16.9,137.9,16.5,137.5,16.1,137.5z M26.1,142.5c-0.9,0-1.5,0.7-1.5,1.5c0,0.9,0.7,1.5,1.5,1.5
				c0.9,0,1.5-0.7,1.5-1.5C27.7,143.2,27,142.5,26.1,142.5z M34.8,153.6c0-1.2-0.9-2.1-2.1-2.1c-1.2,0-2.1,0.9-2.1,2.1
				c0,1.2,0.9,2.1,2.1,2.1C33.9,155.7,34.8,154.8,34.8,153.6z M38.8,164.8c0-1.4-1.1-2.6-2.6-2.6c-1.4,0-2.6,1.1-2.6,2.6
				c0,1.4,1.1,2.6,2.6,2.6C37.7,167.4,38.8,166.2,38.8,164.8z M41.2,176.3c0-1.6-1.3-2.9-2.9-2.9c-1.6,0-2.9,1.3-2.9,2.9
				c0,1.6,1.3,2.9,2.9,2.9S41.2,177.9,41.2,176.3z M43.2,187.9c0-1.8-1.4-3.2-3.2-3.2s-3.2,1.4-3.2,3.2s1.4,3.2,3.2,3.2
				C41.8,191.1,43.2,189.7,43.2,187.9z M42.5,202.7c1.9,0,3.4-1.5,3.4-3.4s-1.5-3.4-3.4-3.4s-3.4,1.5-3.4,3.4S40.6,202.7,42.5,202.7
				z M46.4,213.9c1.9,0,3.5-1.6,3.5-3.5s-1.6-3.5-3.5-3.5s-3.5,1.6-3.5,3.5S44.5,213.9,46.4,213.9z M52.4,223.9c2,0,3.6-1.6,3.6-3.6
				s-1.6-3.6-3.6-3.6s-3.6,1.6-3.6,3.6S50.5,223.9,52.4,223.9z M60.4,225.4c-1.9,0-3.5,1.6-3.5,3.5s1.6,3.5,3.5,3.5s3.5-1.6,3.5-3.5
				C64,227,62.4,225.4,60.4,225.4z M66.5,235.7c0,1.9,1.5,3.4,3.4,3.4s3.4-1.5,3.4-3.4s-1.5-3.4-3.4-3.4S66.5,233.8,66.5,235.7z
				 M77.2,240.8c0,1.8,1.5,3.3,3.3,3.3s3.3-1.5,3.3-3.3s-1.5-3.3-3.3-3.3C78.7,237.6,77.2,239,77.2,240.8z M88.6,244.3
				c0,1.7,1.4,3,3,3c1.7,0,3-1.4,3-3c0-1.7-1.4-3-3-3S88.6,242.6,88.6,244.3z M100.5,246.4c0,1.5,1.2,2.7,2.7,2.7s2.7-1.2,2.7-2.7
				s-1.2-2.7-2.7-2.7C101.7,243.6,100.5,244.9,100.5,246.4z M114.9,244.8c-1.3,0-2.3,1-2.3,2.3s1,2.3,2.3,2.3s2.3-1,2.3-2.3
				C117.2,245.8,116.1,244.8,114.9,244.8z M124.8,246.5c0,1,0.8,1.8,1.8,1.8s1.8-0.8,1.8-1.8s-0.8-1.8-1.8-1.8
				C125.6,244.7,124.8,245.5,124.8,246.5z M137,244.7c0,0.6,0.5,1.2,1.2,1.2c0.6,0,1.2-0.5,1.2-1.2s-0.5-1.2-1.2-1.2
				C137.5,243.6,137,244.1,137,244.7z M149.1,241.7c0,0.2,0.2,0.4,0.4,0.4s0.4-0.2,0.4-0.4s-0.2-0.4-0.4-0.4
				C149.3,241.4,149.1,241.5,149.1,241.7z M352.4,110.6c0.3-3.7,0.3-7.4,0-11.1c-0.2-3.7-0.6-7.4-1.4-11c-0.2-0.9-0.4-1.8-0.6-2.7
				c-0.2-0.9-0.4-1.8-0.7-2.7l-0.8-2.7l-0.9-2.7c-0.3-0.9-0.6-1.7-1-2.6l-0.5-1.3l-0.1-0.2l-0.1-0.2l-0.1-0.3l-0.3-0.7
				c-0.8-1.7-1.7-3.4-2.7-5.1c-4-6.5-9.5-12.1-16.2-16c-3.3-2-7-3.4-10.8-4.3c-1.9-0.4-3.9-0.7-5.8-0.8l-1.5-0.1h-1.3l-1.5,0.1
				c-0.5,0-1,0.1-1.5,0.1c-7.8,0.9-15.4,4.7-20.6,10.8c-5.3,6.1-7.9,14.5-6.7,22.5c1.1,8.2,6.4,15.6,13.9,19.2
				c3.7,1.8,8,2.6,12.2,2.2s8.2-2,11.5-4.7s5.8-6.3,7-10.5c0.5-1.9,0.8-4.1,0.8-6.2c0-1.1-0.2-2.1-0.4-3.2c-0.1-0.5-0.2-1.1-0.4-1.6
				c-0.1-0.3-0.2-0.5-0.3-0.8l-0.2-0.4c-0.1-0.2-0.1-0.3-0.2-0.5c-0.5-1-1.5-1.8-2.8-1.8c-1.7-0.1-3.2,1.3-3.3,3l0,0
				c-0.1,2.9-0.3,5.8-1,8.3c-0.7,2.6-1.8,4.7-3.5,6.2c-0.4,0.4-0.9,0.7-1.4,1s-1.1,0.6-1.7,0.8c-1.2,0.5-2.4,0.8-3.6,1
				c-2.5,0.4-5,0.1-7.3-0.8l-0.7-0.3c-0.3-0.1-0.6-0.3-0.9-0.5l0,0l0,0l-0.1-0.1l-0.2-0.1l-0.4-0.3c-0.3-0.2-0.5-0.4-0.7-0.6
				c-1-0.8-1.8-1.7-2.6-2.7c-1.5-2-2.5-4.4-2.8-7c-0.1-0.3-0.1-0.6-0.1-0.9s-0.1-0.6,0-0.9v-0.9l0.1-0.8c0-0.3,0.1-0.7,0.2-1.1
				l0.1-0.3v-0.1v-0.1l0.1-0.5c0.2-0.6,0.4-1.2,0.6-1.8c0.9-2.4,2.4-4.7,4.3-6.5c1.9-1.9,4.1-3.3,6.6-4.3c0.6-0.2,1.2-0.4,1.9-0.6
				c0.6-0.2,1.3-0.3,1.9-0.4c1.4-0.2,2.7-0.2,4.1-0.2c5.4,0.3,10.7,2.6,14.9,6.1c4.1,3.6,7.1,8.6,9,14c1.8,5.4,2.6,11.3,2.7,17.1
				c0.1,5.9-0.5,11.8-1.6,17.7c-1.1,5.8-2.7,11.6-4.8,17.1c-2.1,5.6-4.8,10.9-7.9,16c-0.8,1.3-1.6,2.5-2.4,3.8
				c-0.8,1.2-1.7,2.4-2.6,3.6l-2.8,3.5c-1,1.1-2,2.3-3,3.4c-8.1,8.8-17.9,16.1-28.6,21.5c-10.7,5.3-22.4,8.7-34.4,9.6
				c0.8-1.7,1.7-3.5,2.7-5.3c1.8-3.4,3.9-6.9,6.2-10.8c4.5-7.8,9.3-16.8,13.5-27.1c2.1-5.1,4.1-10.6,5.9-16.4
				c0.4-1.4,0.9-2.9,1.3-4.4l0.3-1.1l0.3-1c0.2-0.8,0.4-1.6,0.6-2.3c0.8-3.1,1.4-6.3,1.8-9.5c0.2-1.6,0.4-3.3,0.5-4.9l0.1-1.3v-1.2
				v-1.2v-1.3c0-0.8,0-1.6,0-2.4s-0.1-1.7-0.1-2.6c-0.1-1.8-0.3-3.5-0.5-5.2c0-0.3-0.1-0.6-0.1-0.9c0.2,0.1,0.5,0.2,0.7,0.2
				c0.9,0,1.6-0.7,1.6-1.6s-0.7-1.6-1.6-1.6c-0.4,0-0.9,0.2-1.1,0.5c-0.4-2.3-0.9-4.6-1.5-6.8c-0.2-0.7-0.4-1.3-0.6-2
				c0.1-0.2,0.1-0.4,0.1-0.6c0-0.6-0.3-1.1-0.7-1.5c-0.1-0.4-0.2-0.7-0.3-1.1c-0.3-0.8-0.6-1.7-0.9-2.5s-0.6-1.7-1-2.5
				c-5.6-13.3-15.2-25.6-27.8-34.2c-3.1-2.2-6.5-4.1-9.9-5.8c-3.5-1.7-7.1-3.1-10.7-4.3c-3.7-1.2-7.5-2-11.3-2.6s-7.7-0.8-11.6-0.9
				l-2.9,0.1c-0.9,0-1.9,0.1-2.9,0.2c-2,0.1-3.9,0.4-5.8,0.6c-3.8,0.6-7.6,1.5-11.3,2.6c-3.7,1.2-7.3,2.6-10.7,4.3s-6.8,3.6-9.9,5.8
				c-12.6,8.6-22.2,20.9-27.8,34.2c-0.4,0.8-0.7,1.7-1,2.5s-0.6,1.7-0.9,2.5c-0.1,0.3-0.2,0.6-0.3,0.9c-0.5,0.3-0.9,0.9-0.9,1.6
				c0,0.3,0.1,0.5,0.2,0.8c-0.2,0.6-0.4,1.2-0.5,1.8c-0.5,1.7-0.9,3.4-1.2,5.1c-0.1,0.6-0.2,1.2-0.3,1.8c-0.3-0.4-0.7-0.6-1.2-0.6
				c-0.9,0-1.6,0.7-1.6,1.6s0.7,1.6,1.6,1.6c0.3,0,0.6-0.1,0.9-0.3c-0.1,0.3-0.1,0.7-0.1,1c-0.2,1.7-0.4,3.4-0.5,5.1
				c0,0.9-0.1,1.7-0.1,2.6c0,0.8,0,1.7,0,2.5c0,3.3,0.2,6.7,0.6,10s1,6.4,1.8,9.5c0.2,0.8,0.4,1.5,0.6,2.3l0.3,1l0.3,1.1
				c0.4,1.4,0.8,3,1.3,4.4c1.8,5.8,3.8,11.2,5.9,16.4c2.1,5.1,4.4,10,6.6,14.5c2.3,4.5,4.6,8.7,6.9,12.6c2.3,3.9,4.4,7.4,6.2,10.8
				c1,1.8,1.9,3.6,2.7,5.3l0,0h-0.1c-12-0.9-23.8-4.3-34.5-9.6c-10.8-5.4-20.6-12.6-28.6-21.5c-1-1.1-2-2.3-3-3.4l-2.8-3.5
				c-0.9-1.2-1.8-2.4-2.6-3.6c-0.8-1.3-1.7-2.5-2.4-3.8c-3.1-5.1-5.8-10.4-7.9-16c-2.1-5.6-3.7-11.3-4.8-17.1
				c-1.1-5.8-1.6-11.8-1.6-17.7c0.1-5.9,0.9-11.7,2.7-17.1c1.9-5.4,4.8-10.4,9-14s9.5-5.9,14.9-6.1c1.4-0.1,2.7,0,4.1,0.2
				c0.6,0.1,1.2,0.2,1.9,0.4c0.6,0.2,1.3,0.4,1.9,0.6c2.5,0.9,4.7,2.4,6.6,4.3c1.9,1.9,3.4,4.1,4.3,6.5c0.2,0.6,0.4,1.2,0.6,1.8
				l0.1,0.5v0.1v0.1l0.1,0.3c0.1,0.4,0.2,0.8,0.2,1.1l0.1,0.8v0.9c0,0.3,0,0.6,0,0.9s0,0.6-0.1,0.9c-0.3,2.5-1.3,4.9-2.8,7
				c-0.7,1-1.6,1.9-2.6,2.7c-0.2,0.2-0.5,0.4-0.7,0.6l-0.4,0.3l-0.2,0.1l-0.1,0.1l0,0l0,0c-0.3,0.2-0.7,0.4-0.9,0.5l-0.7,0.3
				c-2.2,0.9-4.8,1.2-7.3,0.8c-1.2-0.2-2.5-0.5-3.6-1c-0.6-0.2-1.2-0.5-1.7-0.8c-0.4-0.3-1-0.6-1.4-1c-1.7-1.5-2.8-3.6-3.5-6.2
				s-0.9-5.4-1-8.3l0,0c0-1.2-0.7-2.2-1.8-2.8c-1.6-0.7-3.5,0-4.2,1.6c-0.1,0.3-0.2,0.4-0.2,0.5L83.2,74c-1.1,0.5-1.2,0.8-1.2,1
				c-0.2,0.5-0.3,1.1-0.4,1.6c-0.2,1.1-0.3,2.1-0.4,3.2c-0.1,2.1,0.2,4.3,0.8,6.2c1.2,4.2,3.6,7.9,7,10.5c3.3,2.7,7.4,4.3,11.5,4.7
				c4.2,0.4,8.5-0.3,12.2-2.2c7.5-3.7,12.7-11.1,13.9-19.2c1.2-8.1-1.4-16.5-6.7-22.5c-5.2-6.1-12.8-9.9-20.6-10.8
				c-0.5-0.1-1-0.1-1.5-0.1l-1.5-0.1H95l-1.5,0.1c-2,0.1-3.9,0.4-5.8,0.8c-3.8,0.9-7.5,2.4-10.8,4.3c-6.7,3.9-12.2,9.5-16.2,16
				c-1,1.6-1.9,3.3-2.7,5.1l-0.3,0.7l-0.1,0.3l-0.1,0.2L57.4,74l-0.5,1.3c-0.3,0.9-0.7,1.6-1,2.6L55,80.6l-0.8,2.7
				c-0.3,0.9-0.4,1.8-0.7,2.7c-0.2,0.9-0.4,1.8-0.6,2.7c-0.7,3.6-1.2,7.3-1.4,11s-0.2,7.4,0,11.1c0.5,7.4,1.8,14.6,3.7,21.7
				c1,3.5,2.2,7,3.5,10.4s2.8,6.8,4.4,10c3.2,6.5,7,12.8,11.4,18.7c4.3,5.9,9.3,11.3,14.6,16.2c5.3,4.9,11.1,9.4,17.3,13.2
				s12.7,7.1,19.4,9.7c6.7,2.6,13.7,4.5,20.8,5.9c-7-1.7-13.8-4-20.4-6.8c-6.6-2.9-12.8-6.3-18.7-10.3c-11.8-8-22.1-18.1-30.2-29.8
				c-4.1-5.8-7.6-12-10.6-18.4c-1.5-3.2-2.8-6.5-4-9.8s-2.2-6.7-3.1-10.1c-1.7-6.8-2.9-13.8-3.2-20.8c-0.2-3.5-0.1-7,0.2-10.5
				s0.7-6.9,1.5-10.3c0.2-0.9,0.4-1.7,0.6-2.5c0.2-0.8,0.4-1.7,0.7-2.5l0.7-2.5l0.8-2.4c0.2-0.8,0.6-1.6,1-2.5l0.5-1.3l0.5-1.1
				c0.7-1.5,1.5-3,2.4-4.4c3.6-5.7,8.5-10.6,14.3-13.9c5.8-3.3,12.4-4.9,18.8-4c6.4,0.8,12.6,3.9,16.7,8.8c0.2,0.3,0.5,0.6,0.7,0.9
				l0.7,0.9c0.2,0.3,0.5,0.7,0.7,1.1l0.4,0.6l0.2,0.4c0.1,0.1,0.1,0.3,0.2,0.4c-1-1.6-2.2-3-3.5-4.3c-2.5-2.4-5.4-4.3-8.6-5.5
				c-0.8-0.3-1.6-0.6-2.5-0.8c-0.8-0.2-1.7-0.4-2.6-0.5c-1.6-0.2-3.4-0.2-5-0.1C89,55,82.6,57.8,77.6,62.2c-0.6,0.6-1.2,1.1-1.8,1.8
				l-0.9,1c-0.3,0.3-0.5,0.6-0.7,0.9c-1.1,1.3-2,2.6-2.8,4c-1.7,2.8-3,5.8-4,8.8c-2,6.1-2.6,12.5-2.6,18.7
				c0.1,12.5,2.7,24.8,7.5,36.2c2.4,5.7,5.2,11.2,8.6,16.4c0.8,1.3,1.7,2.5,2.6,3.8c0.9,1.2,1.9,2.5,2.8,3.7l3,3.6
				c1,1.1,2,2.2,3.1,3.4c8.6,8.8,18.9,16,30,20.9c5.6,2.5,11.4,4.5,17.3,5.9c3.2,0.7,6.4,1.3,9.6,1.7c2.8,0.3,5.6,0.6,8.4,0.6
				c0.7,1.4,1.3,2.8,1.8,4.1c2.3,5.9,3.4,10.8,3.7,14.2c0.1,0.8,0.1,1.6,0.1,2.3s0,1.2,0,1.6c-0.1,0.9-0.1,1.3-0.1,1.3l0,0l0,0l0,0
				c0,0,0.1-0.5,0.2-1.3c0.1-0.4,0.1-1,0.2-1.6c0-0.7,0.1-1.4,0.1-2.3c0-3.5-0.6-8.6-2.6-14.8c-0.3-1.1-0.8-2.3-1.2-3.5
				c-0.8-2.1-1.6-4.3-2.6-6.6c-1.5-3.6-3.5-7.4-5.5-11.3c-4-7.9-8.1-17.1-11.8-27.3c-1.8-5.1-3.5-10.5-4.9-16.1
				c-0.7-2.8-1.4-5.7-2.1-8.7c-0.6-2.9-1.1-5.8-1.3-8.8c-0.3-3-0.4-6-0.2-9.1c0-0.8,0.1-1.5,0.1-2.3s0.1-1.5,0.2-2.3
				c0.1-1.6,0.4-3.1,0.6-4.7c1.1-6.2,2.8-12.4,5.5-18.4c2.6-5.9,6.2-11.6,10.5-16.7c2.1-2.6,4.5-5,7-7.2c2.5-2.3,5.2-4.3,8-6.2
				c11.3-7.6,24.9-11.8,38.7-11.8c13.8-0.1,27.5,4.2,38.7,11.8c2.8,1.9,5.5,4,8,6.2c2.5,2.3,4.8,4.7,7,7.2
				c4.3,5.1,7.8,10.8,10.5,16.7c0.4,0.7,0.7,1.5,1,2.2c0.3,0.8,0.6,1.5,0.9,2.3c0.5,1.5,1.1,3,1.5,4.6c0.9,3.1,1.6,6.2,2.1,9.3
				c0.2,1.6,0.5,3.1,0.6,4.6c0.1,0.8,0.2,1.5,0.2,2.3s0.1,1.6,0.1,2.4v1.1v1.2v1.2v1.1c0,1.5-0.1,3-0.3,4.5c-0.3,3-0.7,5.9-1.3,8.8
				c-0.7,2.9-1.4,5.8-2.1,8.7c-1.4,5.6-3.1,11-4.9,16.1c-3.7,10.2-7.8,19.3-11.8,27.3c-2,4-4,7.7-5.5,11.3c-1,2.3-1.9,4.5-2.6,6.6
				c-0.4,1.2-0.8,2.4-1.2,3.5c-2,6.2-2.6,11.3-2.6,14.8c0,0.9,0,1.6,0.1,2.3s0.1,1.2,0.2,1.6c0.1,0.9,0.2,1.3,0.2,1.3l0,0
				c0,0,0-0.5-0.1-1.3c0-0.4,0-1,0-1.6c0-0.7,0-1.4,0.1-2.3c0.3-3.4,1.4-8.3,3.7-14.2c0.5-1.3,1.1-2.7,1.8-4.1
				c2.8-0.1,5.6-0.3,8.4-0.6c3.2-0.4,6.3-0.9,9.4-1.7c5.9-1.4,11.7-3.4,17.3-5.9c11.2-5,21.4-12.1,30-20.9c1.1-1.2,2.1-2.2,3.1-3.4
				l3-3.6c0.9-1.2,1.9-2.4,2.8-3.7s1.8-2.5,2.6-3.8c3.4-5.2,6.2-10.7,8.6-16.4c4.7-11.4,7.4-23.8,7.5-36.2c0-6.3-0.7-12.6-2.6-18.7
				c-1-3.1-2.3-6-4-8.8c-0.8-1.4-1.8-2.7-2.8-4c-0.2-0.3-0.5-0.6-0.7-0.9l-0.9-1c-0.6-0.6-1.2-1.2-1.8-1.8
				c-4.9-4.4-11.3-7.3-18.1-7.7c-1.7-0.1-3.4-0.1-5,0.1c-0.9,0.1-1.8,0.3-2.6,0.5c-0.8,0.2-1.7,0.5-2.5,0.8
				c-3.2,1.2-6.2,3.1-8.6,5.5c-1.3,1.3-2.5,2.7-3.5,4.3c0.1-0.1,0.1-0.3,0.2-0.4l0.2-0.4l0.4-0.6c0.2-0.4,0.5-0.8,0.7-1.1l0.7-0.9
				c0.2-0.3,0.5-0.6,0.7-0.9c4.1-4.9,10.2-8,16.7-8.8c6.4-0.9,13.1,0.7,18.8,4c5.8,3.3,10.7,8.2,14.3,13.9c0.9,1.4,1.7,2.9,2.4,4.4
				l0.5,1.1l0.5,1.3c0.3,0.8,0.7,1.7,1,2.5l0.8,2.4l0.7,2.5c0.3,0.8,0.4,1.7,0.7,2.5c0.2,0.8,0.4,1.7,0.6,2.5
				c0.7,3.4,1.2,6.8,1.5,10.3s0.3,7,0.2,10.5c-0.3,7-1.4,14-3.2,20.8c-0.9,3.4-1.9,6.8-3.1,10.1s-2.5,6.6-4,9.8
				c-3,6.4-6.5,12.6-10.6,18.4c-8.1,11.6-18.4,21.8-30.2,29.8c-5.9,4-12.2,7.5-18.7,10.3c-6.6,2.9-13.4,5.2-20.4,6.8
				c7.1-1.3,14-3.3,20.8-5.9c6.7-2.6,13.2-5.8,19.4-9.7c6.1-3.8,11.9-8.3,17.3-13.2c5.3-4.9,10.3-10.3,14.6-16.2
				c4.3-5.9,8.1-12.1,11.4-18.7c1.6-3.3,3.1-6.6,4.4-10s2.5-6.9,3.5-10.4C350.6,125.3,351.9,118,352.4,110.6z M320.5,96.3
				c0-0.2-0.2-0.4-0.4-0.4c-0.2,0-0.4,0.2-0.4,0.4c0,0.2,0.2,0.4,0.4,0.4C320.3,96.7,320.5,96.5,320.5,96.3z M311.4,103
				c0-0.4-0.4-0.8-0.8-0.8s-0.8,0.4-0.8,0.8s0.4,0.8,0.8,0.8C311.1,103.8,311.4,103.5,311.4,103z M300.2,104.7
				c0-0.6-0.5-1.1-1.1-1.1s-1.1,0.5-1.1,1.1s0.5,1.1,1.1,1.1S300.2,105.3,300.2,104.7z M289.5,101c0-0.8-0.6-1.4-1.4-1.4
				s-1.4,0.6-1.4,1.4s0.6,1.4,1.4,1.4S289.5,101.8,289.5,101z M274.1,68.9c-1.1,0-2,0.9-2,2s0.9,2,2,2s2-0.9,2-2
				S275.2,68.9,274.1,68.9z M278,62.1c1.2,0,2.2-1,2.2-2.2s-1-2.2-2.2-2.2s-2.2,1-2.2,2.2C275.8,61.2,276.8,62.1,278,62.1z
				 M285.7,53.5c1.3,0,2.3-1,2.3-2.3s-1-2.3-2.3-2.3s-2.3,1-2.3,2.3C283.4,52.5,284.4,53.5,285.7,53.5z M295.8,47.9
				c1.3,0,2.4-1.1,2.4-2.4c0-1.3-1.1-2.4-2.4-2.4s-2.4,1.1-2.4,2.4C293.5,46.8,294.5,47.9,295.8,47.9z M304.8,43.1
				c0,1.4,1.1,2.5,2.5,2.5s2.5-1.1,2.5-2.5s-1.1-2.5-2.5-2.5S304.8,41.7,304.8,43.1z M318.9,41.7c-1.4,0-2.5,1.1-2.5,2.5
				s1.1,2.5,2.5,2.5s2.5-1.1,2.5-2.5S320.3,41.7,318.9,41.7z M329.7,51.1c1.4,0,2.5-1.1,2.5-2.5s-1.1-2.5-2.5-2.5s-2.5,1.1-2.5,2.5
				S328.3,51.1,329.7,51.1z M339,58.3c1.4,0,2.6-1.2,2.6-2.6c0-1.4-1.2-2.6-2.6-2.6s-2.6,1.2-2.6,2.6S337.6,58.3,339,58.3z
				 M346.2,62.3c-1.4,0-2.5,1.1-2.5,2.5c0,1.4,1.1,2.5,2.5,2.5s2.5-1.1,2.5-2.5C348.7,63.5,347.6,62.3,346.2,62.3z M351.2,72.9
				c-1.4,0-2.5,1.1-2.5,2.5s1.1,2.5,2.5,2.5s2.5-1.1,2.5-2.5C353.8,74,352.6,72.9,351.2,72.9z M354.4,84.2c-1.4,0-2.5,1.1-2.5,2.5
				s1.1,2.5,2.5,2.5s2.5-1.1,2.5-2.5C356.9,85.3,355.8,84.2,354.4,84.2z M353.6,98.3c0,1.3,1.1,2.4,2.4,2.4s2.4-1.1,2.4-2.4
				s-1.1-2.4-2.4-2.4S353.6,97,353.6,98.3z M358.4,110c0-1.3-1-2.3-2.3-2.3s-2.3,1-2.3,2.3s1,2.3,2.3,2.3S358.4,111.3,358.4,110z
				 M357.2,121.7c0-1.2-1-2.2-2.2-2.2s-2.2,1-2.2,2.2s1,2.2,2.2,2.2C356.2,123.8,357.2,122.9,357.2,121.7z M352.6,135.2
				c1.1,0,2-0.9,2-2s-0.9-2-2-2s-2,0.9-2,2C350.6,134.2,351.5,135.2,352.6,135.2z M349.2,146.2c1,0,1.9-0.8,1.9-1.9
				c0-1-0.8-1.9-1.9-1.9c-1,0-1.9,0.8-1.9,1.9C347.3,145.3,348.1,146.2,349.2,146.2z M343,155.1c0,0.9,0.7,1.7,1.7,1.7
				s1.7-0.7,1.7-1.7c0-0.9-0.7-1.7-1.7-1.7S343,154.2,343,155.1z M337.7,165.4c0,0.8,0.6,1.4,1.4,1.4s1.4-0.6,1.4-1.4
				c0-0.8-0.6-1.4-1.4-1.4C338.3,164,337.7,164.6,337.7,165.4z M331.5,175.2c0,0.6,0.5,1.2,1.2,1.2c0.6,0,1.2-0.5,1.2-1.2
				s-0.5-1.2-1.2-1.2S331.5,174.5,331.5,175.2z M324.4,184.3c0,0.5,0.4,0.9,0.9,0.9s0.9-0.4,0.9-0.9s-0.4-0.9-0.9-0.9
				C324.8,183.4,324.4,183.8,324.4,184.3z M316.6,192.7c0,0.3,0.2,0.5,0.5,0.5s0.5-0.2,0.5-0.5s-0.2-0.5-0.5-0.5
				C316.8,192.2,316.6,192.4,316.6,192.7z M308,200.2C308,200.2,308.1,200.3,308,200.2c0.1,0.1,0.2,0,0.2,0S308.2,200.1,308,200.2
				C308.1,200.1,308,200.2,308,200.2z M402.5,131.4c-4-2.5-8.5-3.7-13-3.9c-1.1-0.1-2.3,0-3.4,0c-0.6,0.1-1.1,0.1-1.7,0.2l-0.9,0.1
				l-0.8,0.1c-2.3,0.4-4.4,1.1-6.5,1.9c-4.1,1.7-7.8,4.1-11.1,7.1c-3.2,2.9-5.9,6.4-8.2,10c-2.3,3.6-4.1,7.5-5.6,11.4
				s-2.7,7.9-3.7,11.8c-1.1,3.9-2.1,7.8-3.2,11.6c-0.6,1.9-1.2,3.8-1.9,5.6c-0.3,0.9-0.7,1.8-1.1,2.7l-0.6,1.4l-0.2,0.3l-0.1,0.3
				l-0.3,0.7c-1.7,3.6-3.6,6.9-5.9,10.1c-1.2,1.6-2.4,3.1-3.7,4.5c-1.3,1.4-2.7,2.7-4.2,4c-0.8,0.6-1.5,1.2-2.3,1.7
				c-0.4,0.3-0.8,0.6-1.2,0.8l-0.6,0.4c-0.1,0.1-0.3,0.2-0.3,0.2l-0.3,0.2c-0.9,0.5-1.7,1-2.5,1.4l-2.6,1.2
				c-3.6,1.5-7.4,2.5-11.3,3.2s-7.9,0.9-11.9,1c-4,0-8-0.2-12-0.6c-4-0.4-8-0.9-12-1.6c-4-0.7-7.9-1.6-11.8-2.9
				c3.7,1.6,7.6,2.8,11.6,3.8c4,0.9,8,1.7,12,2.3s8.1,1.1,12.2,1.3s8.2,0.1,12.4-0.4c4.1-0.5,8.2-1.4,12.2-2.9l2.9-1.2
				c1-0.4,1.9-0.9,2.8-1.4l0.4-0.2c0.2-0.1,0.2-0.1,0.4-0.2l0.7-0.4c0.4-0.3,0.9-0.5,1.3-0.8c0.9-0.6,1.8-1.2,2.6-1.8
				c3.4-2.6,6.4-5.6,9-8.9c2.6-3.3,4.8-6.9,6.7-10.7l0.4-0.7l0.2-0.4l0.2-0.3l0.6-1.4c0.4-1,0.9-2,1.2-2.9c0.8-1.9,1.5-3.9,2.2-5.8
				c1.3-3.9,2.5-7.8,3.6-11.7s2.3-7.7,3.8-11.3c0.4-1,0.8-1.9,1.2-2.8c-0.4,1.2-0.7,2.3-1,3.5c-1.2,4.7-1.9,9.6-2.6,14.2
				c-0.7,4.6-1.6,9.2-2.7,13.6c-2.2,8.9-5.5,17.6-10.7,25c-0.3,0.5-0.6,0.9-1,1.4l-1,1.3c-0.7,0.9-1.4,1.7-2.2,2.6l-0.6,0.6
				l-0.1,0.2l-0.1,0.1l0,0l0,0l-0.3,0.3l-1.3,1.2c-0.8,0.9-1.7,1.5-2.5,2.3c-3.4,2.9-7.3,5.4-11.4,7.4c-8.2,4-17.3,6.3-26.5,7.5
				l-3.5,0.4l-3.5,0.3c-2.4,0.2-4.7,0.3-7,0.4c-4.7,0.1-9.4,0-14-0.4c-4.7-0.4-9.3-1.1-13.9-2.1s-9.1-2.4-13.4-4.3
				c4.2,2.2,8.6,4,13.2,5.3s9.2,2.3,13.9,3s9.5,1,14.3,1.2c2.4,0.1,4.8,0.1,7.2,0l3.6-0.1c1.2-0.1,2.4-0.2,3.6-0.3
				c4.8-0.4,9.5-1.1,14.2-2.2c4.7-1.1,9.4-2.6,13.8-4.6c4.5-2,8.7-4.5,12.6-7.7c3.9-3.1,7.3-6.7,10.2-10.7c2.9-4,5.4-8.3,7.3-12.8
				c2-4.5,3.5-9.1,4.7-13.8s2.2-9.4,3-14.1c0.8-4.7,1.5-9.2,2.7-13.6c0.6-2.2,1.2-4.3,2-6.4c0.2-0.5,0.4-1,0.6-1.5s0.5-1.1,0.7-1.6
				l0.7-1.4c0.2-0.5,0.5-1,0.8-1.4c2.2-3.8,5-7.2,8.3-9.8c1.7-1.3,3.5-2.4,5.4-3.2c0.9-0.4,2-0.8,2.8-1c0.2-0.1,0.4-0.1,0.7-0.2
				l0.9-0.2l0.8-0.2l0,0h0.1h0.2l0.4-0.1c4-0.6,8.2,0.2,12.5,1.7l0,0c1.4,0.5,2.9-0.1,3.7-1.3C404.4,134.2,404,132.3,402.5,131.4z
				 M388.1,137.5c-0.5,0-0.9,0.4-0.9,0.9s0.4,0.9,0.9,0.9s0.9-0.4,0.9-0.9C388.9,137.9,388.6,137.5,388.1,137.5z M378,142.5
				c-0.9,0-1.5,0.7-1.5,1.5c0,0.9,0.7,1.5,1.5,1.5c0.9,0,1.5-0.7,1.5-1.5S378.8,142.5,378,142.5z M371.4,151.5
				c-1.2,0-2.1,0.9-2.1,2.1c0,1.2,0.9,2.1,2.1,2.1s2.1-0.9,2.1-2.1C373.5,152.5,372.6,151.5,371.4,151.5z M367.9,162.2
				c-1.4,0-2.6,1.1-2.6,2.6c0,1.4,1.1,2.6,2.6,2.6c1.4,0,2.6-1.1,2.6-2.6C370.4,163.4,369.3,162.2,367.9,162.2z M365.9,173.4
				c-1.6,0-2.9,1.3-2.9,2.9c0,1.6,1.3,2.9,2.9,2.9s2.9-1.3,2.9-2.9S367.5,173.4,365.9,173.4z M364.1,191.1c1.8,0,3.2-1.4,3.2-3.2
				s-1.4-3.2-3.2-3.2c-1.8,0-3.2,1.4-3.2,3.2S362.3,191.1,364.1,191.1z M358.3,199.4c0,1.9,1.5,3.4,3.4,3.4s3.4-1.5,3.4-3.4
				s-1.5-3.4-3.4-3.4S358.3,197.5,358.3,199.4z M354.2,210.4c0,1.9,1.6,3.5,3.5,3.5s3.5-1.6,3.5-3.5s-1.6-3.5-3.5-3.5
				C355.8,206.9,354.2,208.4,354.2,210.4z M351.7,216.8c-2,0-3.6,1.6-3.6,3.6s1.6,3.6,3.6,3.6s3.6-1.6,3.6-3.6
				S353.7,216.8,351.7,216.8z M343.7,232.4c1.9,0,3.5-1.6,3.5-3.5s-1.6-3.5-3.5-3.5s-3.5,1.6-3.5,3.5
				C340.2,230.9,341.7,232.4,343.7,232.4z M334.2,239.2c1.9,0,3.4-1.5,3.4-3.4s-1.5-3.4-3.4-3.4s-3.4,1.5-3.4,3.4
				C330.7,237.6,332.3,239.2,334.2,239.2z M326.9,240.8c0-1.8-1.5-3.3-3.3-3.3s-3.3,1.5-3.3,3.3s1.5,3.3,3.3,3.3
				C325.5,244.1,326.9,242.6,326.9,240.8z M315.5,244.3c0-1.7-1.4-3-3-3c-1.7,0-3,1.4-3,3c0,1.7,1.4,3,3,3
				C314.2,247.4,315.5,246,315.5,244.3z M303.7,246.4c0-1.5-1.2-2.7-2.7-2.7s-2.7,1.2-2.7,2.7s1.2,2.7,2.7,2.7
				C302.5,249.1,303.7,247.9,303.7,246.4z M291.6,247.1c0-1.3-1-2.3-2.3-2.3s-2.3,1-2.3,2.3s1,2.3,2.3,2.3
				C290.5,249.4,291.6,248.3,291.6,247.1z M277.6,248.3c1,0,1.8-0.8,1.8-1.8s-0.8-1.8-1.8-1.8s-1.8,0.8-1.8,1.8
				C275.8,247.5,276.6,248.3,277.6,248.3z M267.1,244.7c0-0.6-0.5-1.2-1.2-1.2c-0.6,0-1.2,0.5-1.2,1.2s0.5,1.2,1.2,1.2
				S267.1,245.4,267.1,244.7z M255,241.7c0-0.2-0.2-0.4-0.4-0.4s-0.4,0.2-0.4,0.4s0.2,0.4,0.4,0.4C254.9,242.1,255,241.9,255,241.7z
				 M366.4,267.5c-0.5-1.7-1.1-3.3-1.9-4.9c-1.6-3.1-3.7-5.8-6.2-8c-2.5-2.3-5.3-4.1-8.3-5.4c-3-1.4-6.1-2.2-9.1-2.7
				c-3.1-0.5-6.1-0.7-9.1-0.6c-1.5,0-3.1,0.2-4.4,0.3c-1.5,0.2-2.9,0.4-4.4,0.6c-11.4,2.1-21.1,6.4-30.4,8.7
				c-4.6,1.2-9.1,1.9-13.4,2c-0.5,0-1.1,0-1.6,0s-1,0-1.5,0c-1,0-2.1-0.2-3.1-0.3c-0.5-0.1-1-0.1-1.5-0.2s-1-0.2-1.5-0.3
				c-1-0.2-1.9-0.4-2.8-0.7c-7.4-2.1-13.4-5.7-17.6-9.2c-4.3-3.6-7-7.2-8.6-9.7c-0.4-0.6-0.7-1.2-1-1.7s-0.5-0.9-0.7-1.3
				c-0.4-0.7-0.6-1.1-0.6-1.1s0.2,0.4,0.5,1.1c0.2,0.4,0.3,0.8,0.6,1.3s0.6,1.1,0.9,1.8c1.5,2.7,3.9,6.6,8.1,10.5
				c4.2,3.9,10,8.1,17.8,10.6c1,0.3,1.9,0.6,3,0.9c0.5,0.1,1,0.3,1.5,0.4s1.1,0.2,1.6,0.3c2,0.4,4.3,0.6,6.6,0.7
				c4.6,0.1,9.4-0.5,14.2-1.5c4.9-1,9.8-2.5,14.8-3.9c5-1.4,10.2-2.8,15.5-3.6c1.3-0.2,2.7-0.3,4-0.5c1.5-0.1,2.7-0.2,4.1-0.2
				c2.7,0,5.5,0.2,8.1,0.8c5.3,1.1,10.5,3.3,14.5,7.1c4,3.7,6.7,8.9,6.9,14.3c0,0.4,0,0.7,0,1s0,0.6-0.1,0.9c0,0.4-0.1,0.7-0.1,1.1
				c0-0.4,0-0.7,0-1.1v-0.7c0-0.4,0-0.2,0-0.3v-0.1v-0.3l-0.2-1.2c-0.1-0.5-0.2-1-0.4-1.5c-0.1-0.3-0.1-0.5-0.2-0.8l-0.3-0.7
				c-0.2-0.4-0.3-0.9-0.6-1.3c-0.9-1.7-2-3.3-3.3-4.7c-2.6-2.7-5.8-4.5-9.1-5.7c-3.3-1.2-6.8-1.8-10.1-1.8c-3.5,0-6.7,0.5-9.8,1.3
				c-3.1,0.8-6.1,1.8-8.9,2.9c-2.9,1.1-5.6,2.3-8.3,3.5c-5.4,2.4-10.5,4.8-15.6,6.7c-10.1,3.8-20.5,4.8-29.8,3.4
				c-9.4-1.3-17.6-4.7-24.3-8.6c-6.7-4-11.9-8.5-15.6-12.7c-3.7-4.2-6.2-7.9-7.8-10.5c-0.6-1-1.1-1.9-1.5-2.6
				c-0.1-0.2-0.2-0.3-0.3-0.5c-0.4-0.7-0.6-1.1-0.6-1.1s0.2,0.4,0.5,1.1c0.1,0.1,0.1,0.3,0.2,0.4c0.3,0.7,0.7,1.6,1.3,2.7
				c1.4,2.7,3.5,6.7,7.1,11.2c1,1.3,2.1,2.6,3.4,3.9c2.3,4.1,5.3,8,8.8,11.3c1.1,1,2.1,1.9,3.3,2.9c0.6,0.4,1.1,0.8,1.7,1.3
				c0.6,0.4,1.2,0.8,1.9,1.2c2.5,1.5,5.1,2.7,7.8,3.9c2.7,1.1,5.3,2.1,8,3.1c2.6,1,5.2,2.1,7.6,3.3c0.6,0.3,1.2,0.6,1.8,1l0.4,0.2
				l0.4,0.3l0.9,0.6c0.6,0.4,1,0.7,1.6,1.1c0.5,0.4,1,0.8,1.5,1.2c2,1.7,3.7,3.7,5.2,5.9c1.4,2.2,2.4,4.5,2.9,6.9s0.3,4.8-0.4,6.9
				L280,309l-0.1,0.2v0.1l-0.2,0.5l-0.5,0.9l-0.4,0.6c-0.2,0.4-0.7,0.8-1,1.3c-0.4,0.4-0.8,0.8-1.3,1.2c-0.7,0.5-1.4,1-2.2,1.4
				c0.1-0.1,0.3-0.2,0.4-0.3c1.3-1.2,2.6-2.7,3.5-4.6s1-4.2,0.6-6.1c-0.1-0.5-0.2-0.9-0.3-1.4l-0.2-0.7l-0.1-0.3v-0.1l-0.1-0.2
				l-0.1-0.1l-0.2-0.5c-0.1-0.2-0.1-0.3-0.3-0.6c-0.2-0.4-0.5-0.9-0.7-1.3c-2-3.1-4.9-5.2-7.8-6.7c-1.5-0.7-3-1.3-4.6-1.8l-1.2-0.3
				l-1.1-0.3c-0.8-0.2-1.5-0.4-2.3-0.5c-6-1.3-11.8-1.9-17.5-3.3c-2.7-0.6-5.5-1.6-8.1-2.7s-5.2-2.5-7.7-3.9
				c-2.5-1.5-4.9-3.1-7.2-4.9s-4.4-3.8-6.5-5.9c-4.1-4.2-7.7-8.9-10.7-14.1l0,0l0,0l0,0l0,0c-3,5.1-6.6,9.9-10.7,14.1
				c-2.1,2.1-4.2,4.1-6.5,5.9s-4.7,3.5-7.2,4.9c-2.5,1.5-5.1,2.8-7.7,3.9c-2.6,1.1-5.4,2-8.1,2.7c-5.6,1.3-11.5,2-17.5,3.3
				c-0.7,0.2-1.5,0.3-2.3,0.5l-1.1,0.3l-1.2,0.3c-1.5,0.5-3.1,1-4.6,1.8c-2.9,1.5-5.8,3.6-7.8,6.7c-0.3,0.3-0.5,0.8-0.7,1.3
				c-0.1,0.2-0.2,0.4-0.3,0.6l-0.2,0.5l-0.1,0.1l-0.1,0.2v0.1l-0.1,0.3l-0.2,0.7c-0.1,0.5-0.3,0.9-0.3,1.4c-0.4,1.9-0.2,4.2,0.6,6.1
				c0.8,1.9,2.1,3.4,3.5,4.6c0.1,0.1,0.3,0.2,0.4,0.3c-0.8-0.4-1.6-0.9-2.2-1.4c-0.5-0.4-0.9-0.8-1.3-1.2c-0.3-0.4-0.8-0.9-1-1.3
				l-0.4-0.6l-0.5-0.9l-0.2-0.5v-0.1L124,309l-0.3-0.8c-0.8-2.2-0.9-4.6-0.4-6.9c0.5-2.4,1.5-4.7,2.9-6.9c1.4-2.2,3.2-4.2,5.2-5.9
				c0.5-0.4,1-0.9,1.5-1.2c0.5-0.4,1-0.7,1.6-1.1l0.9-0.6l0.4-0.3l0.4-0.2c0.6-0.3,1.2-0.7,1.8-1c2.4-1.2,5-2.3,7.6-3.3s5.3-2,8-3.1
				s5.3-2.4,7.8-3.9c0.6-0.4,1.3-0.8,1.9-1.2c0.6-0.4,1.2-0.8,1.7-1.3c1.2-0.9,2.3-1.9,3.3-2.9c3.5-3.3,6.4-7.1,8.8-11.3
				c1.2-1.3,2.4-2.6,3.4-3.9c3.6-4.5,5.7-8.5,7.1-11.2c0.6-1.1,1-2,1.3-2.7c0.1-0.1,0.1-0.3,0.2-0.4c0.3-0.7,0.5-1.1,0.5-1.1
				s-0.2,0.4-0.6,1.1c-0.1,0.1-0.2,0.3-0.2,0.4c-0.4,0.7-0.8,1.5-1.5,2.6c-1.6,2.6-4,6.3-7.8,10.5c-3.7,4.2-8.9,8.7-15.6,12.7
				c-6.7,3.9-14.9,7.2-24.3,8.6c-9.3,1.3-19.7,0.4-29.8-3.4c-5.1-1.9-10.2-4.3-15.6-6.7c-2.7-1.2-5.4-2.4-8.3-3.5
				c-2.8-1.1-5.8-2.1-8.9-2.9s-6.4-1.3-9.8-1.3s-6.8,0.6-10.1,1.8s-6.4,3-9.1,5.7c-1.3,1.4-2.4,2.9-3.3,4.7
				c-0.2,0.4-0.4,0.9-0.6,1.3l-0.3,0.7c-0.1,0.2-0.1,0.5-0.2,0.8c-0.1,0.5-0.3,1-0.4,1.5l-0.2,1.2v0.3v0.1c0,0.1,0-0.1,0,0.3v0.7
				c0,0.4,0,0.7,0,1.1c-0.1-0.4-0.1-0.7-0.1-1.1c0-0.3-0.1-0.6-0.1-0.9s0-0.6,0-1c0.2-5.4,2.9-10.6,6.9-14.3c3.9-3.8,9.1-6,14.5-7.1
				c2.7-0.5,5.4-0.8,8.1-0.8c1.4,0,2.6,0.1,4.1,0.2c1.3,0.1,2.7,0.3,4,0.5c5.3,0.8,10.5,2.2,15.5,3.6s9.9,2.9,14.8,3.9
				c4.8,1,9.6,1.6,14.2,1.5c2.3-0.1,4.6-0.3,6.6-0.7c0.5-0.1,1.1-0.2,1.6-0.3c0.5-0.1,1-0.3,1.5-0.4c1-0.2,2-0.6,3-0.9
				c7.7-2.5,13.6-6.7,17.8-10.6c4.2-4,6.6-7.8,8.1-10.5c0.3-0.7,0.7-1.3,0.9-1.8s0.4-1,0.6-1.3c0.3-0.7,0.5-1.1,0.5-1.1
				s-0.2,0.4-0.6,1.1c-0.2,0.3-0.4,0.8-0.7,1.3s-0.7,1.1-1,1.7c-1.6,2.5-4.3,6.1-8.6,9.7c-4.3,3.6-10.2,7.2-17.6,9.2
				c-0.9,0.2-1.9,0.5-2.8,0.7c-0.5,0.1-1,0.2-1.5,0.3c-0.5,0.1-1,0.1-1.5,0.2c-1,0.1-2.1,0.3-3.1,0.3c-0.5,0-1,0-1.5,0s-1,0-1.6,0
				c-4.3-0.1-8.8-0.8-13.4-2c-9.3-2.3-19-6.6-30.4-8.7c-1.4-0.2-2.9-0.4-4.4-0.6c-1.4-0.1-3-0.3-4.4-0.3c-3-0.1-6.1,0.1-9.1,0.6
				c-3.1,0.5-6.2,1.4-9.1,2.7c-3,1.3-5.8,3.1-8.3,5.4c-2.5,2.3-4.6,5-6.2,8c-0.8,1.5-1.4,3.2-1.9,4.9c-0.5,1.7-0.8,3.5-0.9,5.2
				c-0.4,7.4,3.1,14.5,8.7,19.2c0.7,0.6,1.4,1.1,2.2,1.6l0.3,0.2c0.1,0.1,0,0,0.3,0.2l0.1,0.1l0.5,0.3c0.4,0.2,0.6,0.4,1.1,0.6
				c1.8,0.9,3.5,1.5,5.4,1.9c1.8,0.4,3.7,0.6,5.6,0.5c0.9,0,1.9-0.1,2.8-0.2c0.9-0.2,1.9-0.3,2.8-0.6c3.7-1,7.1-3.3,9.6-6.3l0.9-1.2
				l0.4-0.6l0.3-0.6c0.3-0.4,0.5-0.8,0.7-1.3s0.5-0.9,0.7-1.6c0.1-0.2,0.1-0.4,0.2-0.6c0-0.1,0-0.2,0.1-0.4c0-0.2,0-0.4,0-0.6
				s0-0.7-0.3-1.2c-0.2-0.5-0.8-1.4-1.7-1.8c-1-0.4-1.7-0.3-2.1-0.3c-0.5,0.1-0.7,0.2-0.9,0.3c-0.8,0.4-1,0.6-1.3,0.9
				c-0.3,0.2-0.5,0.5-0.7,0.7c-0.4,0.4-0.7,0.8-1,1.2l-0.2,0.2l0,0l-0.1,0.1l-0.4,0.5c-1.5,1.9-3.7,3.2-6.2,3.7
				c-2.5,0.4-5.2,0-7.6-1.1c-2.4-1.1-4.5-2.9-5.9-5c-0.7-1.1-1.2-2.2-1.5-3.4c-0.1-0.6-0.2-1.2-0.3-1.8c0-0.3,0-0.6,0-0.9V275v-0.1
				v-0.3l0.2-1.2l0.2-0.8c0-0.1,0.1-0.3,0.1-0.4l0.2-0.4c0.1-0.3,0.2-0.6,0.3-0.9c0.5-1.1,1.3-2.1,2.1-3.1c1.8-1.9,4.1-3.4,6.7-4.3
				c1.3-0.5,2.6-0.9,4-1.2l1-0.2l1-0.1l0.5-0.1h0.6h0.6h0.5c2.7-0.1,5.6,0.3,8.3,1c2.8,0.7,5.5,1.6,8.3,2.6c2.7,1,5.4,2.1,8.1,3.2
				c5.4,2.2,10.7,4.5,16.1,6.3c2.7,0.9,5.4,1.7,8.2,2.3c2.7,0.6,5.5,1,8.2,1.1c5.4,0.4,10.7,0,15.6-0.9c9.9-1.8,18.3-5.7,25-10.1
				c3.9-2.6,7.2-5.4,10-8.1c-0.6,0.8-1.2,1.5-1.9,2.3c-1.9,2.1-3.9,4-6.1,5.7c-1.1,0.9-2.3,1.7-3.4,2.4c-0.6,0.4-1.2,0.8-1.8,1.1
				c-0.6,0.3-1.2,0.7-1.8,1c-2.5,1.2-5.1,2.2-7.7,3.1l-8.1,2.6c-2.7,0.9-5.5,1.8-8.2,3c-0.7,0.3-1.3,0.6-2,0.9l-0.3,0.1l-0.1,0.1
				h-0.1l-0.1,0.1l-0.5,0.3l-0.9,0.5c-0.6,0.4-1.3,0.8-2,1.3c-0.6,0.4-1.2,0.9-1.8,1.4c-2.4,1.9-4.5,4.1-6.3,6.6s-3.2,5.4-4,8.5
				s-0.7,6.6,0.3,9.8l0.4,1.2l0.1,0.3l0,0c0,0,0.1,0.3,0.1,0.2v0.1l0.1,0.1l0.2,0.5l0.5,1l0.7,1.2c0.5,0.8,1,1.4,1.6,2.1
				c0.6,0.6,1.2,1.2,1.8,1.8c2.6,2.1,5.5,3.5,8.4,4.5s5.7,1.7,8.4,2.4c0.7,0.2,1.3,0.3,2,0.5l1,0.3l1,0.3c1.2,0.4,2.5,0.8,3.7,1.3
				s2.3,1.1,3.4,1.7c1,0.6,2,1.4,2.8,2.1c0.8,0.8,1.5,1.7,2,2.6s0.8,2,1,3v0.1c0.3,1.5,1.6,2.6,3.2,2.6c1.8,0,3.2-1.5,3.2-3.3v-0.3
				v-0.1V336v-0.6l-0.1-1.1c-0.1-0.5-0.2-1-0.3-1.5l-0.2-0.7l-0.2-0.7c-0.2-0.4-0.3-0.9-0.5-1.3l-0.6-1.2c-0.2-0.4-0.4-0.8-0.7-1.2
				c-0.2-0.4-0.5-0.8-0.8-1.1c-2.2-2.8-4.8-5-7.6-6.6c-2.8-1.7-5.7-2.9-8.5-4s-5.5-2-7.8-3.3c-2.4-1.2-4.4-2.8-5.2-4.4
				c-0.4-0.8-0.5-1.6-0.3-2.6c0-0.2,0.1-0.5,0.2-0.8l0.1-0.4l0.1-0.2l0,0l0,0v-0.1l0.2-0.5c0.1-0.2,0.1-0.4,0.2-0.4
				c0.1-0.2,0.2-0.4,0.4-0.7c1.2-2,3.2-3.6,5.5-4.8c1.2-0.6,2.4-1.1,3.7-1.6l1-0.3l1.1-0.3c0.7-0.2,1.4-0.4,2.1-0.6
				c2.8-0.7,5.7-1.3,8.6-1.9c2.9-0.6,5.9-1.2,8.8-2.1c3-0.9,5.8-2.1,8.6-3.4c2.7-1.4,5.4-2.9,7.9-4.7c2.5-1.7,4.9-3.7,7.1-5.7
				c2.2-2.1,4.3-4.2,6.2-6.6c1.9-2.3,3.7-4.8,5.2-7.3c1.5-2.6,2.9-5.2,4.1-7.9c1.2,2.7,2.6,5.4,4.1,7.9c1.6,2.6,3.3,5,5.2,7.3
				s4,4.5,6.2,6.6s4.6,4,7.1,5.7s5.1,3.3,7.9,4.7c2.8,1.4,5.6,2.5,8.6,3.4c2.9,0.9,5.9,1.5,8.8,2.1c2.9,0.6,5.8,1.2,8.6,1.9
				c0.7,0.2,1.4,0.4,2.1,0.6l1.1,0.3l1,0.3c1.3,0.4,2.5,1,3.7,1.6c2.3,1.2,4.3,2.8,5.5,4.8c0.2,0.3,0.2,0.4,0.4,0.7
				c0.1,0.1,0.1,0.3,0.2,0.4l0.2,0.5v0.1l0,0l0,0l0.1,0.2l0.1,0.4c0,0.3,0.1,0.5,0.2,0.8c0.2,1,0.1,1.8-0.3,2.6
				c-0.7,1.6-2.8,3.2-5.2,4.4c-2.4,1.3-5,2.2-7.8,3.3c-2.9,1.1-5.8,2.4-8.5,4c-2.8,1.6-5.5,3.8-7.6,6.6c-0.3,0.4-0.5,0.7-0.8,1.1
				c-0.2,0.4-0.5,0.8-0.7,1.2l-0.6,1.2c-0.2,0.4-0.3,0.9-0.5,1.3l-0.2,0.7l-0.2,0.7c-0.1,0.5-0.2,1-0.3,1.5l-0.1,1.1v0.6v0.3v0.1
				v0.3c0,1.5,1,2.9,2.6,3.2c1.7,0.4,3.4-0.8,3.8-2.5v-0.1c0.2-1.1,0.5-2.1,1-3s1.2-1.8,2-2.6c0.8-0.8,1.8-1.5,2.8-2.1
				c1.1-0.6,2.2-1.2,3.4-1.7s2.5-0.9,3.7-1.3l1-0.3l1-0.3c0.7-0.2,1.3-0.4,2-0.5c2.7-0.7,5.6-1.4,8.4-2.4c2.9-1,5.8-2.4,8.4-4.5
				c0.6-0.5,1.2-1.1,1.8-1.8c0.5-0.7,1.1-1.3,1.6-2.1l0.7-1.2l0.5-1l0.2-0.5l0.1-0.1v-0.1c-0.1,0.1,0.1-0.2,0.1-0.2l0,0l0.1-0.3
				l0.4-1.2c1-3.2,1.1-6.7,0.3-9.8c-0.8-3.2-2.2-6-4-8.5s-3.9-4.7-6.3-6.6c-0.6-0.5-1.2-0.9-1.8-1.4c-0.6-0.4-1.3-0.9-2-1.3
				l-0.9-0.5l-0.5-0.3l-0.1-0.1h-0.1l-0.1-0.1l-0.3-0.1c-0.7-0.3-1.3-0.7-2-0.9c-2.7-1.2-5.4-2.1-8.2-3l-8.1-2.6
				c-2.7-0.9-5.2-1.9-7.7-3.1c-0.6-0.3-1.2-0.6-1.8-1c-0.6-0.3-1.2-0.7-1.8-1.1c-1.1-0.7-2.3-1.6-3.4-2.4c-2.2-1.7-4.2-3.7-6.1-5.7
				c-0.7-0.7-1.3-1.5-1.9-2.3c2.8,2.8,6.1,5.5,10,8.1c6.7,4.4,15.1,8.4,25,10.1c4.9,0.9,10.2,1.2,15.6,0.9c2.7-0.2,5.4-0.6,8.2-1.1
				c2.8-0.6,5.5-1.4,8.2-2.3c5.4-1.8,10.7-4.1,16.1-6.3c2.7-1.1,5.4-2.2,8.1-3.2c2.8-1,5.5-1.9,8.3-2.6s5.6-1.1,8.3-1h0.5h0.6h0.6
				l0.5,0.1l1,0.1l1,0.2c1.4,0.3,2.7,0.6,4,1.2c2.6,1,4.9,2.5,6.7,4.3c0.9,1,1.6,2,2.1,3.1c0.1,0.3,0.2,0.6,0.3,0.9l0.2,0.4
				c0,0.1,0.1,0.3,0.1,0.4l0.2,0.8l0.2,1.2v0.3v0.1v0.4c0,0.3,0,0.6,0,0.9c0,0.6-0.1,1.2-0.3,1.8c-0.3,1.2-0.8,2.4-1.5,3.4
				c-1.4,2.1-3.5,3.9-5.9,5s-5.1,1.5-7.6,1.1s-4.7-1.7-6.2-3.7l-0.4-0.5l-0.1-0.1c0,0,0-0.1,0,0L333,283c-0.3-0.4-0.6-0.8-1-1.2
				c-0.2-0.2-0.4-0.4-0.7-0.7c-0.3-0.2-0.5-0.5-1.3-0.9c-0.3-0.1-0.4-0.2-0.9-0.3c-0.4-0.1-1.1-0.2-2.1,0.3
				c-0.9,0.4-1.6,1.3-1.7,1.8c-0.2,0.5-0.2,1-0.3,1.2c0,0.3,0,0.5,0,0.6c0,0.2,0,0.3,0.1,0.4c0,0.2,0.1,0.5,0.2,0.6
				c0.2,0.7,0.4,1.2,0.7,1.6c0.2,0.5,0.5,0.9,0.7,1.3l0.3,0.6l0.4,0.6l0.9,1.2c2.5,3,5.9,5.3,9.6,6.3c0.9,0.3,1.8,0.4,2.8,0.6
				c0.9,0.1,1.9,0.3,2.8,0.2c1.9,0.1,3.7-0.2,5.6-0.5c1.8-0.4,3.5-1,5.4-1.9c0.5-0.2,0.7-0.4,1.1-0.6l0.5-0.3l0.1-0.1
				c0.3-0.2,0.2-0.1,0.3-0.2l0.3-0.2c0.8-0.5,1.5-1.1,2.2-1.6c5.6-4.7,9.1-11.8,8.7-19.2C367.2,271,366.9,269.2,366.4,267.5z
				 M242.3,324.1c0-1-0.8-1.7-1.7-1.7c-1,0-1.7,0.8-1.7,1.7c0,1,0.8,1.7,1.7,1.7C241.5,325.8,242.3,325.1,242.3,324.1z M245.1,316.1
				c0,1.6,1.3,2.9,2.9,2.9c1.6,0,2.9-1.3,2.9-2.9s-1.3-2.9-2.9-2.9C246.4,313.3,245.1,314.5,245.1,316.1z M256.6,307.1
				c-2,0-3.6,1.6-3.6,3.6s1.6,3.6,3.6,3.6s3.6-1.6,3.6-3.6S258.6,307.1,256.6,307.1z M264.3,307.9c2.2,0,4.1-1.8,4.1-4.1
				c0-2.2-1.8-4.1-4.1-4.1c-2.2,0-4.1,1.8-4.1,4.1C260.2,306.1,262,307.9,264.3,307.9z M251.1,295.7c-2.3,0-4.2,1.9-4.2,4.2
				c0,2.3,1.9,4.2,4.2,4.2s4.2-1.9,4.2-4.2C255.3,297.5,253.4,295.7,251.1,295.7z M241.5,296.5c0-2.3-1.8-4.1-4.1-4.1
				s-4.1,1.8-4.1,4.1s1.8,4.1,4.1,4.1S241.5,298.8,241.5,296.5z M225.2,286.9c-2,0-3.7,1.6-3.7,3.7c0,2,1.6,3.7,3.7,3.7
				c2,0,3.7-1.6,3.7-3.7C228.9,288.6,227.2,286.9,225.2,286.9z M214.6,279.2c-1.6,0-2.9,1.3-2.9,2.9s1.3,2.9,2.9,2.9
				c1.6,0,2.9-1.3,2.9-2.9S216.2,279.2,214.6,279.2z M207.2,272.1c-1,0-1.8,0.8-1.8,1.8s0.8,1.8,1.8,1.8s1.8-0.8,1.8-1.8
				S208.2,272.1,207.2,272.1z M237.8,330.2c-0.7,0-1.2,0.5-1.2,1.2s0.5,1.2,1.2,1.2s1.2-0.5,1.2-1.2
				C239,330.8,238.4,330.2,237.8,330.2z M340.6,285.9c0.6,0,1.1-0.5,1.1-1.1s-0.5-1.1-1.1-1.1s-1.1,0.5-1.1,1.1
				C339.4,285.4,340,285.9,340.6,285.9z M350.8,281.5c1,0,1.9-0.8,1.9-1.9c0-1-0.8-1.9-1.9-1.9c-1,0-1.9,0.8-1.9,1.9
				C348.9,280.6,349.8,281.5,350.8,281.5z M347.1,266.4c-1.3,0-2.3,1-2.3,2.3s1,2.3,2.3,2.3s2.3-1,2.3-2.3S348.4,266.4,347.1,266.4z
				 M335.4,268.5c1.4,0,2.6-1.1,2.6-2.6c0-1.4-1.1-2.6-2.6-2.6c-1.4,0-2.6,1.1-2.6,2.6C332.8,267.3,334,268.5,335.4,268.5z
				 M325.9,268.6c0-1.4-1.1-2.6-2.6-2.6c-1.4,0-2.6,1.1-2.6,2.6c0,1.4,1.1,2.6,2.6,2.6C324.8,271.1,325.9,270,325.9,268.6z
				 M311.8,270.4c-1.3,0-2.3,1-2.3,2.3s1,2.3,2.3,2.3s2.3-1,2.3-2.3S313.1,270.4,311.8,270.4z M300.3,275.4c-1,0-1.9,0.8-1.9,1.9
				c0,1,0.8,1.9,1.9,1.9c1,0,1.9-0.8,1.9-1.9C302.2,276.3,301.3,275.4,300.3,275.4z M288.4,279.4c-0.6,0-1.1,0.5-1.1,1.1
				s0.5,1.1,1.1,1.1s1.1-0.5,1.1-1.1C289.6,279.9,289,279.4,288.4,279.4z M180.6,190.6c0.3,0,0.6,0.1,0.9,0.1c3.4,0.2,6.5-1.8,8-4.7
				c0.4-0.8,0.6-1.6,0.8-2.5l-16.8-2.6C172.7,185.5,175.9,189.9,180.6,190.6z M213.6,185c1.3,3.7,4.9,6.1,8.9,5.7c0.2,0,0.3,0,0.5,0
				c4.6-0.7,7.8-5.1,7.1-9.7l-16.8,2.6C213.3,184,213.5,184.5,213.6,185z"/>
		</defs>
		<clipPath id="SVGID_2_">
			<use xlink:href="#SVGID_1_"  style="overflow:visible;"/>
		</clipPath>
		
			<linearGradient id="XMLID_4_" gradientUnits="userSpaceOnUse" x1="-272.4" y1="706.5129" x2="527.6" y2="706.5129" gradientTransform="matrix(1 0 0 1 0 -582.8629)">
			<stop  offset="0" style="stop-color:#B56928"/>
			<stop  offset="8.333330e-02" style="stop-color:#CF8D32"/>
			<stop  offset="0.1792" style="stop-color:#CF8D32"/>
			<stop  offset="0.2729" style="stop-color:#E0B359"/>
			<stop  offset="0.3417" style="stop-color:#FEF09E"/>
			<stop  offset="0.4063" style="stop-color:#FCF8C2"/>
			<stop  offset="0.4844" style="stop-color:#FEF09E"/>
			<stop  offset="0.587" style="stop-color:#E0B359"/>
			<stop  offset="0.6715" style="stop-color:#CF8D32"/>
			<stop  offset="0.7717" style="stop-color:#C37C2A"/>
			<stop  offset="0.8337" style="stop-color:#CD842A"/>
			<stop  offset="0.8827" style="stop-color:#E5A43B"/>
			<stop  offset="0.9307" style="stop-color:#F0B54A"/>
			<stop  offset="1" style="stop-color:#B76B29"/>
		</linearGradient>
		<path id="XMLID_1039_" class="st0" d="M527.6,130.9c0,0-48.4-61.7-178.1-106.4C226-18.1-40,50.8-272.4-197.4v642.1h800V130.9z"/>
	</g>
</g>
<g>
	<g>
		<defs>
			<text id="SVGID_3_" transform="matrix(1 0 0 1 144.4721 119.4554)" class="st1 st2">DK</text>
		</defs>
		<clipPath id="SVGID_4_">
			<use xlink:href="#SVGID_3_"  style="overflow:visible;"/>
		</clipPath>
		
			<linearGradient id="XMLID_5_" gradientUnits="userSpaceOnUse" x1="-270" y1="739.3129" x2="530" y2="739.3129" gradientTransform="matrix(1 0 0 1 0 -582.8629)">
			<stop  offset="0" style="stop-color:#B56928"/>
			<stop  offset="8.333330e-02" style="stop-color:#CF8D32"/>
			<stop  offset="0.1792" style="stop-color:#CF8D32"/>
			<stop  offset="0.2729" style="stop-color:#E0B359"/>
			<stop  offset="0.3417" style="stop-color:#FEF09E"/>
			<stop  offset="0.4063" style="stop-color:#FCF8C2"/>
			<stop  offset="0.4844" style="stop-color:#FEF09E"/>
			<stop  offset="0.587" style="stop-color:#E0B359"/>
			<stop  offset="0.6715" style="stop-color:#CF8D32"/>
			<stop  offset="0.7717" style="stop-color:#C37C2A"/>
			<stop  offset="0.8337" style="stop-color:#CD842A"/>
			<stop  offset="0.8827" style="stop-color:#E5A43B"/>
			<stop  offset="0.9307" style="stop-color:#F0B54A"/>
			<stop  offset="1" style="stop-color:#B76B29"/>
		</linearGradient>
		<path id="XMLID_1_" class="st3" d="M530,165.8c0,0-48.4-80.7-178.1-139.2C228.4-29.1-37.6,61-270-263.5v839.9h800V165.8z"/>
	</g>
</g>
<g>
	<g>
		<defs>
			<text id="SVGID_5_" transform="matrix(1 0 0 1 0.653 393.3257)" class="st1 st4">SIGN UP NOW</text>
		</defs>
		<clipPath id="SVGID_6_">
			<use xlink:href="#SVGID_5_"  style="overflow:visible;"/>
		</clipPath>
		
			<linearGradient id="XMLID_6_" gradientUnits="userSpaceOnUse" x1="-33" y1="848.5129" x2="767" y2="848.5129" gradientTransform="matrix(1 0 0 1 0 -582.8629)">
			<stop  offset="0" style="stop-color:#B56928"/>
			<stop  offset="8.333330e-02" style="stop-color:#CF8D32"/>
			<stop  offset="0.1792" style="stop-color:#CF8D32"/>
			<stop  offset="0.2729" style="stop-color:#E0B359"/>
			<stop  offset="0.3417" style="stop-color:#FEF09E"/>
			<stop  offset="0.4063" style="stop-color:#FCF8C2"/>
			<stop  offset="0.4844" style="stop-color:#FEF09E"/>
			<stop  offset="0.587" style="stop-color:#E0B359"/>
			<stop  offset="0.6715" style="stop-color:#CF8D32"/>
			<stop  offset="0.7717" style="stop-color:#C37C2A"/>
			<stop  offset="0.8337" style="stop-color:#CD842A"/>
			<stop  offset="0.8827" style="stop-color:#E5A43B"/>
			<stop  offset="0.9307" style="stop-color:#F0B54A"/>
			<stop  offset="1" style="stop-color:#B76B29"/>
		</linearGradient>
		<path id="XMLID_2_" class="st5" d="M767,272.8c0,0-48.4-61.7-178.1-106.4C465.5,123.9,199.4,192.8-33-55.4v642.1h800V272.8z"/>
	</g>
</g>
</svg>
