<?xml version="1.0" encoding="utf-8"?>
<!-- Generator: Adobe Illustrator 22.1.0, SVG Export Plug-In . SVG Version: 6.00 Build 0)  -->
<svg version="1.1" id="Layer_1" xmlns="http://www.w3.org/2000/svg" xmlns:xlink="http://www.w3.org/1999/xlink" x="0px" y="0px"
	 viewBox="0 0 106.2 95.5" style="enable-background:new 0 0 106.2 95.5;" xml:space="preserve">
<style type="text/css">
	.st0{fill-rule:evenodd;clip-rule:evenodd;fill:#201E1E;}
	.st1{fill:#201E1E;}
</style>
<g>
	<path class="st0" d="M80.5,10.9c7.3,8.2,11.9,19.6,11.9,32.2c0,24.9-17.7,45.1-39.5,45.1C31,88.2,13.4,68,13.4,43.1
		c0-12.6,4.6-24.1,11.9-32.2c-6.7,7.9-10.7,18.6-10.7,30.4C14.5,65.4,31.7,85,52.9,85C74,85,91.2,65.4,91.2,41.2
		C91.2,29.4,87.1,18.7,80.5,10.9z"/>
	<g>
		<path class="st1" d="M89,82.2c-1.2,0.1-2.1-2-3.3-1.5c-3.1,1.3-7.2-0.1-3.9-0.2c0.5,0,3.1-1.6,2.9-2c-0.1-0.2-0.6-0.2-0.9-0.4
			c-0.6-0.3-1-0.7-1.6-1c-1.9-0.7-4.4-0.4-6.8,1c-0.6,0.4-1.4,0.8-1.8,1.2c-0.1,0.1-0.2,0.3-0.3,0.5c-0.4,0.6-2.1,1.6-2.4,2.3
			c1.4,1,1.4,1,2.6,1.7c0.6,0.3,1.2,0.5,1.8,0.7c3.8,1.3,7.5,1.6,12.1-0.4c1.2-0.5,2.4-0.9,3.5-2.2C90.5,81.6,89.6,82.1,89,82.2z"/>
		<path class="st1" d="M84.9,88.5c1.5-0.7,2.7-1.9,4.5-3.2c1.1-0.9,2.3-2,2.1-3.1c-2.7,2.6-6.6,3.8-9.3,4.1
			c-2.8,0.3-8.1-0.4-10.5-2.4c0.1,1.4,1.6,4.9,2.7,3.9c0.8-0.7,4.9,3.9,6.4,2.3C82,88.9,84.9,89.9,84.9,88.5z"/>
	</g>
	<g>
		<path class="st1" d="M97.6,71.3c-1.1,0.1-2-1.7-3-1.2c-2.7,1.3-6.4,0.3-3.5,0c0.4,0,2.7-1.6,2.5-1.9C93.5,68,93,68,92.7,67.9
			c-0.5-0.3-1-0.6-1.5-0.8c-1.7-0.6-3.9-0.1-6.1,1.2c-0.6,0.3-1.2,0.7-1.6,1.2c-0.1,0.1-0.1,0.3-0.2,0.5c-0.3,0.6-1.8,1.6-2,2.2
			c1.3,0.8,1.3,0.9,2.4,1.4c0.5,0.2,1.1,0.4,1.7,0.6c3.4,0.9,6.8,1.1,10.8-0.9c1.1-0.5,2.1-0.9,3.1-2.1
			C98.9,70.8,98.1,71.3,97.6,71.3z"/>
		<path class="st1" d="M94.1,77.2c1.3-0.7,2.4-1.8,3.9-3.1c1-0.8,2-1.9,1.7-2.8c-2.3,2.5-5.7,3.7-8.2,4.1c-2.5,0.4-7.3,0-9.5-1.6
			c0.1,1.2,1.6,4.3,2.6,3.4c0.7-0.7,4.5,3.3,5.8,1.8C91.5,77.7,94.1,78.4,94.1,77.2z"/>
	</g>
	<g>
		<path class="st1" d="M102,58.3c-0.9,0.3-1.9-1.2-2.8-0.7c-2.3,1.5-5.8,1.1-3.2,0.4c0.4-0.1,2.3-1.8,2.1-2.1
			c-0.1-0.2-0.5-0.1-0.8-0.2c-0.5-0.2-0.9-0.4-1.4-0.5c-1.6-0.3-3.5,0.4-5.3,1.9c-0.5,0.4-1,0.8-1.3,1.3c-0.1,0.1-0.1,0.3-0.2,0.4
			c-0.3,0.6-1.5,1.6-1.6,2.2c1.3,0.5,1.2,0.6,2.3,0.9c0.5,0.1,1,0.2,1.6,0.3c3.2,0.4,6.2,0.1,9.6-2.3c0.9-0.6,1.8-1.1,2.5-2.3
			C103.1,57.6,102.5,58.1,102,58.3z"/>
		<path class="st1" d="M99.5,64c1.1-0.8,2-2,3.2-3.3c0.8-0.9,1.6-1.9,1.3-2.8c-1.8,2.5-4.8,4.1-7,4.7c-2.2,0.7-6.5,1-8.7-0.2
			c0.3,1.1,1.9,3.7,2.6,2.7c0.5-0.7,4.4,2.3,5.4,0.8C97.2,64.7,99.6,65.1,99.5,64z"/>
	</g>
	<g>
		<path class="st1" d="M104.3,46.7c-0.8,0.3-1.8-1.1-2.6-0.5c-2,1.5-5.2,1.2-2.8,0.5c0.4-0.1,2-1.7,1.8-2c-0.1-0.1-0.5-0.1-0.7-0.1
			c-0.5-0.1-0.8-0.4-1.3-0.4c-1.5-0.2-3.2,0.5-4.8,1.9c-0.4,0.4-0.9,0.8-1.2,1.2c-0.1,0.1-0.1,0.3-0.1,0.4c-0.2,0.5-1.3,1.5-1.4,2.1
			c1.2,0.5,1.1,0.5,2.1,0.8c0.4,0.1,0.9,0.2,1.4,0.2c2.9,0.3,5.6-0.1,8.6-2.4c0.8-0.6,1.6-1.1,2.2-2.2
			C105.3,46,104.8,46.5,104.3,46.7z"/>
		<path class="st1" d="M102.2,51.9c1-0.8,1.7-1.8,2.8-3.1c0.7-0.8,1.4-1.8,1.1-2.6c-1.6,2.4-4.2,3.9-6.2,4.5c-2,0.7-5.9,1.1-7.9,0.1
			c0.3,1,1.8,3.3,2.5,2.3c0.5-0.6,4,2,4.9,0.5C100.1,52.7,102.4,52.9,102.2,51.9z"/>
	</g>
	<g>
		<path class="st1" d="M103.3,34.9c-0.7,0.4-1.7-0.7-2.4,0c-1.7,1.7-4.5,1.9-2.5,0.9c0.3-0.2,1.6-1.9,1.4-2.1c-0.1-0.1-0.5,0-0.7,0
			c-0.4-0.1-0.8-0.2-1.2-0.2c-1.3,0.1-2.8,1-4.1,2.5c-0.3,0.4-0.7,0.9-0.9,1.3c0,0.1,0,0.3-0.1,0.4c-0.1,0.5-1,1.6-1,2.1
			c1.1,0.2,1.1,0.3,2,0.3c0.4,0,0.8,0,1.3-0.1c2.6-0.2,5-1,7.5-3.5c0.7-0.7,1.3-1.2,1.7-2.3C104.1,34.2,103.7,34.7,103.3,34.9z"/>
		<path class="st1" d="M102,40c0.8-0.9,1.3-1.9,2.1-3.2c0.5-0.8,1-1.9,0.7-2.5c-1.2,2.4-3.3,4.2-5,5.1c-1.7,0.9-5.2,2-7,1.4
			c0.4,0.8,2,2.6,2.5,1.7c0.3-0.6,3.9,1.1,4.5-0.3C100.3,41,102.3,40.9,102,40z"/>
	</g>
	<g>
		<path class="st1" d="M99.5,23.9c-0.6,0.5-1.7-0.1-2.1,0.6c-1.2,1.9-3.7,2.9-2.1,1.5c0.2-0.2,1.1-2.1,0.9-2.2
			c-0.1-0.1-0.4,0.1-0.6,0.2c-0.4,0.1-0.8,0-1.1,0.2c-1.2,0.4-2.3,1.6-3.2,3.3c-0.2,0.4-0.5,1-0.6,1.4c0,0.1,0,0.2,0,0.4
			c0,0.5-0.6,1.7-0.5,2.1c1-0.1,1,0,1.9-0.2c0.4-0.1,0.8-0.2,1.2-0.4c2.3-0.9,4.3-2.2,6-5.1c0.5-0.8,0.9-1.4,1.1-2.6
			C100,23,99.8,23.6,99.5,23.9z"/>
		<path class="st1" d="M99.3,28.8c0.6-1,0.8-2.1,1.3-3.5c0.3-0.9,0.6-1.9,0.1-2.4c-0.6,2.4-2.2,4.6-3.5,5.9
			c-1.3,1.3-4.3,3.1-6.1,3.1c0.5,0.7,2.3,1.9,2.6,0.9c0.2-0.7,3.7,0,4-1.4C97.9,30.2,99.7,29.5,99.3,28.8z"/>
	</g>
	<g>
		<path class="st1" d="M95,14.8c-0.5,0.6-1.5,0.1-1.8,0.8c-0.8,1.9-3,3.1-1.7,1.6c0.2-0.2,0.8-2,0.5-2.1c-0.1,0-0.3,0.2-0.5,0.2
			c-0.4,0.1-0.7,0.1-1,0.3c-1,0.5-1.9,1.7-2.5,3.4c-0.1,0.4-0.3,0.9-0.4,1.3c0,0.1,0,0.2,0.1,0.3c0,0.4-0.3,1.6-0.2,2
			c0.9-0.2,0.9-0.2,1.6-0.5c0.3-0.1,0.6-0.3,1-0.5c2-1.1,3.6-2.6,4.8-5.4c0.3-0.8,0.7-1.4,0.7-2.4C95.4,14,95.3,14.6,95,14.8z"/>
		<path class="st1" d="M95.4,19.2c0.4-0.9,0.5-2,0.8-3.3c0.2-0.8,0.3-1.8-0.1-2.2c-0.3,2.3-1.5,4.4-2.5,5.7c-1,1.3-3.5,3.4-5.1,3.6
			c0.5,0.5,2.3,1.3,2.4,0.4c0.1-0.6,3.3-0.5,3.4-1.8C94.3,20.6,95.8,19.8,95.4,19.2z"/>
	</g>
	<g>
		<path class="st1" d="M89.9,9c-0.3,0.5-1.2,0.3-1.4,0.9c-0.5,1.7-2.1,3-1.2,1.6c0.1-0.2,0.4-1.8,0.2-1.8c-0.1,0-0.3,0.2-0.4,0.3
			c-0.3,0.1-0.5,0.2-0.8,0.4c-0.8,0.6-1.4,1.7-1.7,3.1c-0.1,0.4-0.2,0.8-0.2,1.1c0,0.1,0.1,0.2,0.1,0.3c0.1,0.3-0.1,1.3,0,1.7
			c0.7-0.3,0.7-0.3,1.3-0.6c0.2-0.1,0.5-0.3,0.8-0.6c1.5-1.2,2.7-2.6,3.4-5.1c0.2-0.7,0.4-1.3,0.3-2.1C90.2,8.2,90.1,8.7,89.9,9z"/>
		<path class="st1" d="M90.7,12.5c0.2-0.8,0.2-1.7,0.3-2.8C91.1,9,91.1,8.2,90.7,8c0,1.9-0.8,3.8-1.5,5.1c-0.7,1.2-2.5,3.3-3.8,3.7
			c0.5,0.4,2,0.8,2,0c0-0.5,2.7-0.9,2.6-2C89.9,13.9,91.1,12.9,90.7,12.5z"/>
	</g>
	<g>
		<path class="st1" d="M82.9,4.1c-0.1,0.5-0.9,0.7-0.8,1.3c0.1,1.5-0.7,3.1-0.5,1.7c0-0.2-0.2-1.5-0.4-1.5c-0.1,0-0.1,0.3-0.2,0.4
			c-0.2,0.2-0.3,0.4-0.5,0.6c-0.4,0.7-0.6,1.8-0.4,3c0.1,0.3,0.1,0.7,0.2,0.9c0,0.1,0.1,0.1,0.1,0.2c0.2,0.2,0.3,1.1,0.5,1.3
			c0.5-0.5,0.5-0.5,0.8-1c0.1-0.2,0.3-0.5,0.4-0.7c0.8-1.5,1.3-3.1,1.1-5.2c-0.1-0.6-0.1-1.1-0.4-1.7C82.9,3.4,83,3.8,82.9,4.1z"/>
		<path class="st1" d="M84.6,6.5c-0.1-0.7-0.3-1.4-0.6-2.3C83.8,3.6,83.6,3,83.2,3c0.6,1.4,0.6,3.2,0.4,4.4
			c-0.2,1.2-0.9,3.5-1.8,4.3c0.5,0.1,1.7-0.2,1.5-0.8c-0.1-0.4,1.8-1.7,1.4-2.5C84.4,7.8,85,6.6,84.6,6.5z"/>
	</g>
	<g>
		<path class="st1" d="M67.9,63.5c0.3,1.2-1,2.5-0.3,3.6c1.7,2.7,1.6,7.1,0.7,3.9c-0.1-0.5-1.9-2.7-2.1-2.4c-0.1,0.2,0,0.7-0.1,1
			c-0.1,0.7-0.3,1.2-0.3,1.8c-0.1,2,0.7,4.4,2.3,6.5c0.4,0.5,0.9,1.2,1.3,1.5c0.1,0.1,0.3,0.1,0.4,0.2c0.5,0.3,1.7,1.7,2.2,1.8
			c0.4-1.6,0.5-1.6,0.6-3c0.1-0.6,0.1-1.3,0.1-2c0.1-4-0.5-7.7-3-11.7c-0.7-1.1-1.2-2.1-2.4-2.9C67.2,62.2,67.7,62.9,67.9,63.5z"/>
		<path class="st1" d="M73.4,66.1c-0.9-1.3-2-2.2-3.4-3.7c-0.9-0.9-2-1.8-2.7-1.3c2.5,2.1,4.3,5.6,5.1,8.2c0.8,2.7,1.6,8,0.6,10.8
			c1-0.4,3.2-2.7,2.2-3.5c-0.7-0.6,1.8-5.7,0.2-6.8C74.4,68.9,74.5,65.8,73.4,66.1z"/>
	</g>
	<g>
		<path class="st1" d="M77.2,56.5c0.3,0.9-0.8,2.1-0.3,2.9c1.3,2.2,1.3,5.7,0.6,3.1c-0.1-0.4-1.5-2.2-1.7-1.9
			c-0.1,0.1,0,0.6-0.1,0.8c-0.1,0.5-0.3,1-0.3,1.5c-0.1,1.6,0.6,3.5,1.8,5.2c0.3,0.4,0.7,1,1.1,1.2c0.1,0.1,0.2,0.1,0.3,0.1
			c0.4,0.2,1.3,1.4,1.8,1.5c0.3-1.3,0.4-1.3,0.5-2.4c0.1-0.5,0.1-1,0.1-1.6c0.1-3.2-0.4-6.2-2.4-9.5c-0.5-0.9-1-1.7-1.9-2.4
			C76.7,55.4,77.1,56,77.2,56.5z"/>
		<path class="st1" d="M81.7,58.5c-0.7-1.1-1.6-1.8-2.7-3c-0.7-0.7-1.6-1.5-2.2-1.1c2,1.7,3.4,4.5,4.1,6.6c0.7,2.1,1.3,6.5,0.5,8.7
			c0.8-0.3,2.6-2.2,1.8-2.9c-0.6-0.5,1.4-4.6,0.2-5.5C82.5,60.8,82.5,58.3,81.7,58.5z"/>
	</g>
	<g>
		<path class="st1" d="M82.5,48.3c0.4,0.8-0.4,2,0.1,2.7c1.5,1.8,1.9,5,0.9,2.8c-0.1-0.3-1.7-1.7-1.8-1.5c-0.1,0.1,0,0.5,0,0.7
			c0,0.5-0.1,0.9-0.1,1.4c0.1,1.5,1,3.1,2.4,4.5c0.4,0.3,0.8,0.8,1.1,0.9c0.1,0,0.2,0,0.3,0.1c0.4,0.1,1.4,1,1.8,1
			c0.1-1.3,0.2-1.2,0.2-2.3c0-0.5-0.1-1-0.1-1.5c-0.4-3-1.2-5.6-3.5-8.2c-0.6-0.7-1.1-1.4-2.1-1.8C81.8,47.4,82.3,47.9,82.5,48.3z"
			/>
		<path class="st1" d="M86.9,49.4c-0.8-0.9-1.7-1.4-2.9-2.2c-0.7-0.5-1.6-1.1-2.1-0.6c2.1,1.2,3.7,3.5,4.6,5.3
			c0.9,1.8,2,5.7,1.6,7.9c0.7-0.4,2.1-2.4,1.3-2.9c-0.6-0.3,0.7-4.5-0.6-5.1C87.9,51.4,87.6,49.1,86.9,49.4z"/>
	</g>
	<g>
		<path class="st1" d="M84,37.8c0.5,0.7-0.1,2,0.5,2.5c1.7,1.3,2.5,4.2,1.3,2.4c-0.2-0.3-1.8-1.2-1.9-1c-0.1,0.1,0.1,0.5,0.1,0.7
			c0.1,0.5,0,0.9,0.1,1.3c0.3,1.4,1.4,2.7,2.9,3.7c0.4,0.2,0.8,0.6,1.2,0.6c0.1,0,0.2,0,0.3,0c0.4,0,1.5,0.6,1.8,0.6
			c-0.1-1.2,0-1.2-0.2-2.2c-0.1-0.4-0.2-0.9-0.3-1.3c-0.8-2.7-2-5-4.5-6.9c-0.7-0.5-1.2-1.1-2.2-1.3C83.2,37.1,83.8,37.5,84,37.8z"
			/>
		<path class="st1" d="M88.2,38c-0.8-0.6-1.8-0.9-3-1.5c-0.8-0.4-1.7-0.7-2.1-0.1c2.1,0.7,4,2.5,5.1,4c1.1,1.5,2.7,4.9,2.7,7
			c0.6-0.6,1.6-2.7,0.7-3c-0.6-0.2,0-4.3-1.3-4.6C89.4,39.6,88.9,37.5,88.2,38z"/>
	</g>
	<g>
		<path class="st1" d="M83.7,29.7c0.5,0.4,0.3,1.5,0.9,1.7c1.5,0.5,2.7,2.5,1.4,1.4c-0.2-0.2-1.6-0.4-1.6-0.2c0,0.1,0.2,0.3,0.2,0.5
			c0.1,0.3,0.2,0.6,0.4,0.9c0.5,0.9,1.6,1.6,2.9,1.9c0.3,0.1,0.7,0.2,1,0.2c0.1,0,0.1-0.1,0.2-0.1c0.3-0.1,1.2,0.1,1.5-0.1
			c-0.3-0.9-0.3-0.9-0.6-1.6c-0.1-0.3-0.3-0.6-0.5-0.9c-1.1-1.8-2.5-3.2-4.7-3.9c-0.6-0.2-1.1-0.4-1.9-0.3
			C83,29.5,83.5,29.6,83.7,29.7z"/>
		<path class="st1" d="M86.9,28.7c-0.8-0.2-1.5-0.2-2.5-0.3c-0.6-0.1-1.4,0-1.6,0.5c1.7-0.1,3.5,0.8,4.6,1.6c1.1,0.8,3,2.9,3.4,4.5
			c0.3-0.6,0.6-2.4-0.1-2.4c-0.5,0-0.9-3.2-1.9-3.1C88.1,29.6,87.3,28.2,86.9,28.7z"/>
	</g>
	<g>
		<path class="st1" d="M82.3,22.1c0.4,0.3,0.3,1.2,0.7,1.4c1.2,0.4,2.2,2,1.2,1.1c-0.2-0.1-1.3-0.4-1.3-0.2c0,0.1,0.2,0.3,0.2,0.4
			c0.1,0.3,0.2,0.5,0.3,0.8c0.4,0.8,1.3,1.3,2.3,1.6c0.3,0.1,0.6,0.2,0.8,0.1c0.1,0,0.1-0.1,0.2-0.1c0.3-0.1,1,0.1,1.2-0.1
			c-0.2-0.7-0.2-0.7-0.5-1.3c-0.1-0.2-0.3-0.5-0.4-0.7c-0.9-1.4-2-2.6-3.8-3.2c-0.5-0.2-0.9-0.4-1.5-0.3
			C81.7,21.9,82.1,22,82.3,22.1z"/>
		<path class="st1" d="M84.9,21.3c-0.6-0.2-1.2-0.2-2.1-0.2c-0.5,0-1.1,0-1.3,0.4c1.4-0.1,2.8,0.6,3.7,1.3c0.9,0.7,2.4,2.3,2.8,3.6
			c0.3-0.5,0.5-2,0-2c-0.4,0-0.7-2.6-1.5-2.5C85.9,22,85.2,20.9,84.9,21.3z"/>
	</g>
	<g>
		<path class="st1" d="M79.7,15.2c0.3,0.3,0.2,1.1,0.6,1.2c1.1,0.4,1.9,1.7,1,1c-0.1-0.1-1.1-0.3-1.1-0.1c0,0.1,0.1,0.2,0.2,0.3
			c0.1,0.2,0.1,0.4,0.3,0.7c0.4,0.7,1.1,1.1,2,1.4c0.2,0.1,0.5,0.1,0.7,0.1c0.1,0,0.1-0.1,0.2-0.1c0.2-0.1,0.9,0.1,1.1,0
			c-0.2-0.6-0.2-0.6-0.4-1.1c-0.1-0.2-0.2-0.4-0.4-0.6c-0.8-1.2-1.8-2.2-3.3-2.8c-0.4-0.1-0.8-0.3-1.3-0.2
			C79.2,15,79.5,15,79.7,15.2z"/>
		<path class="st1" d="M81.9,14.4c-0.5-0.2-1.1-0.1-1.8-0.2c-0.5,0-1,0-1.1,0.3c1.2-0.1,2.5,0.5,3.3,1.1c0.8,0.6,2.1,2,2.4,3.2
			c0.2-0.4,0.4-1.7,0-1.7c-0.3,0-0.6-2.2-1.3-2.2C82.8,15,82.2,14.1,81.9,14.4z"/>
	</g>
	<g>
		<path class="st1" d="M75.9,9.1c0.3,0.2,0.2,0.9,0.6,1.1c0.9,0.3,1.7,1.5,0.9,0.9c-0.1-0.1-1-0.3-1-0.1c0,0.1,0.1,0.2,0.2,0.3
			c0.1,0.2,0.1,0.4,0.2,0.6c0.3,0.6,1,1,1.8,1.2c0.2,0,0.5,0.1,0.6,0.1c0,0,0.1,0,0.1-0.1c0.2-0.1,0.8,0.1,0.9,0
			c-0.2-0.5-0.2-0.5-0.4-1c-0.1-0.2-0.2-0.4-0.3-0.6c-0.7-1.1-1.5-2-2.9-2.5c-0.4-0.1-0.7-0.3-1.2-0.2C75.4,8.9,75.7,9,75.9,9.1z"/>
		<path class="st1" d="M77.9,8.5c-0.5-0.1-1-0.1-1.6-0.2c-0.4,0-0.9,0-1,0.3c1.1-0.1,2.2,0.5,2.9,1c0.7,0.5,1.9,1.8,2.1,2.8
			c0.2-0.4,0.4-1.5,0-1.5c-0.3,0-0.6-2-1.2-1.9C78.6,9,78.1,8.2,77.9,8.5z"/>
	</g>
	<g>
		<path class="st1" d="M77.4,0.8c0.1,0.4,0.7,0.6,0.6,1c-0.1,1.1,0.5,2.4,0.3,1.3C78.3,3,78.5,2,78.6,2c0.1,0,0.1,0.2,0.2,0.3
			c0.1,0.2,0.3,0.3,0.4,0.5c0.3,0.6,0.4,1.4,0.2,2.4c0,0.2-0.1,0.5-0.2,0.7c0,0-0.1,0.1-0.1,0.1c-0.1,0.2-0.3,0.8-0.4,1
			c-0.4-0.4-0.4-0.4-0.6-0.8C78,6,77.9,5.8,77.8,5.6c-0.6-1.2-1-2.4-0.8-4.1c0-0.5,0.1-0.9,0.3-1.3C77.4,0.3,77.3,0.6,77.4,0.8z"/>
		<path class="st1" d="M76.1,2.7c0.1-0.6,0.3-1.1,0.5-1.7C76.7,0.5,76.9,0,77.2,0c-0.5,1.1-0.5,2.5-0.3,3.4c0.1,1,0.7,2.7,1.4,3.4
			c-0.4,0.1-1.4-0.2-1.2-0.6c0.1-0.3-1.3-1.4-1-2C76.2,3.7,75.7,2.8,76.1,2.7z"/>
	</g>
	<g>
		<path class="st1" d="M17.2,82.2c1.2,0.1,2.1-2,3.3-1.5c3.1,1.3,7.2-0.1,3.9-0.2c-0.5,0-3.1-1.6-2.9-2c0.1-0.2,0.6-0.2,0.9-0.4
			c0.6-0.3,1-0.7,1.6-1c1.9-0.7,4.4-0.4,6.8,1c0.6,0.4,1.4,0.8,1.8,1.2c0.1,0.1,0.2,0.3,0.3,0.5c0.4,0.6,2.1,1.6,2.4,2.3
			c-1.4,1-1.4,1-2.6,1.7c-0.6,0.3-1.2,0.5-1.8,0.7c-3.8,1.3-7.5,1.6-12.1-0.4c-1.2-0.5-2.4-0.9-3.5-2.2
			C15.7,81.6,16.6,82.1,17.2,82.2z"/>
		<path class="st1" d="M21.3,88.5c-1.5-0.7-2.7-1.9-4.5-3.2c-1.1-0.9-2.3-2-2.1-3.1c2.7,2.6,6.6,3.8,9.3,4.1
			c2.8,0.3,8.1-0.4,10.5-2.4c-0.1,1.4-1.6,4.9-2.7,3.9c-0.8-0.7-4.9,3.9-6.4,2.3C24.2,88.9,21.3,89.9,21.3,88.5z"/>
	</g>
	<g>
		<path class="st1" d="M8.6,71.3c1.1,0.1,2-1.7,3-1.2c2.7,1.3,6.4,0.3,3.5,0c-0.4,0-2.7-1.6-2.5-1.9c0.1-0.2,0.6-0.2,0.8-0.3
			c0.5-0.3,1-0.6,1.5-0.8c1.7-0.6,3.9-0.1,6.1,1.2c0.6,0.3,1.2,0.7,1.6,1.2c0.1,0.1,0.1,0.3,0.2,0.5c0.3,0.6,1.8,1.6,2,2.2
			c-1.3,0.8-1.3,0.9-2.4,1.4c-0.5,0.2-1.1,0.4-1.7,0.6C17.4,75,14,75.2,10,73.1c-1.1-0.5-2.1-0.9-3.1-2.1
			C7.3,70.8,8.1,71.3,8.6,71.3z"/>
		<path class="st1" d="M12.1,77.2c-1.3-0.7-2.4-1.8-3.9-3.1c-1-0.8-2-1.9-1.7-2.8c2.3,2.5,5.7,3.7,8.2,4.1c2.5,0.4,7.3,0,9.5-1.6
			c-0.1,1.2-1.6,4.3-2.6,3.4c-0.7-0.7-4.5,3.3-5.8,1.8C14.7,77.7,12.1,78.4,12.1,77.2z"/>
	</g>
	<g>
		<path class="st1" d="M4.2,58.3C5.1,58.5,6.1,57,7,57.6c2.3,1.5,5.8,1.1,3.2,0.4C9.7,58,7.8,56.3,8.1,56c0.1-0.2,0.5-0.1,0.8-0.2
			c0.5-0.2,0.9-0.4,1.4-0.5c1.6-0.3,3.5,0.4,5.3,1.9c0.5,0.4,1,0.8,1.3,1.3c0.1,0.1,0.1,0.3,0.2,0.4c0.3,0.6,1.5,1.6,1.6,2.2
			c-1.3,0.5-1.2,0.6-2.3,0.9c-0.5,0.1-1,0.2-1.6,0.3c-3.2,0.4-6.2,0.1-9.6-2.3c-0.9-0.6-1.8-1.1-2.5-2.3C3,57.6,3.7,58.1,4.2,58.3z"
			/>
		<path class="st1" d="M6.7,64c-1.1-0.8-2-2-3.2-3.3c-0.8-0.9-1.6-1.9-1.3-2.8C4,60.4,7,62,9.1,62.6c2.2,0.7,6.5,1,8.7-0.2
			c-0.3,1.1-1.9,3.7-2.6,2.7c-0.5-0.7-4.4,2.3-5.4,0.8C9,64.7,6.6,65.1,6.7,64z"/>
	</g>
	<g>
		<path class="st1" d="M1.8,46.7c0.8,0.3,1.8-1.1,2.6-0.5c2,1.5,5.2,1.2,2.8,0.5c-0.4-0.1-2-1.7-1.8-2c0.1-0.1,0.5-0.1,0.7-0.1
			c0.5-0.1,0.8-0.4,1.3-0.4c1.5-0.2,3.2,0.5,4.8,1.9c0.4,0.4,0.9,0.8,1.2,1.2c0.1,0.1,0.1,0.3,0.1,0.4c0.2,0.5,1.3,1.5,1.4,2.1
			c-1.2,0.5-1.1,0.5-2.1,0.8c-0.4,0.1-0.9,0.2-1.4,0.2c-2.9,0.3-5.6-0.1-8.6-2.4c-0.8-0.6-1.6-1.1-2.2-2.2C0.9,46,1.4,46.5,1.8,46.7
			z"/>
		<path class="st1" d="M4,51.9c-1-0.8-1.7-1.8-2.8-3.1C0.5,48-0.2,47,0.1,46.2c1.6,2.4,4.2,3.9,6.2,4.5c2,0.7,5.9,1.1,7.9,0.1
			c-0.3,1-1.8,3.3-2.5,2.3c-0.5-0.6-4,2-4.9,0.5C6,52.7,3.8,52.9,4,51.9z"/>
	</g>
	<g>
		<path class="st1" d="M2.9,34.9c0.7,0.4,1.7-0.7,2.4,0c1.7,1.7,4.5,1.9,2.5,0.9c-0.3-0.2-1.6-1.9-1.4-2.1c0.1-0.1,0.5,0,0.7,0
			c0.4-0.1,0.8-0.2,1.2-0.2c1.3,0.1,2.8,1,4.1,2.5c0.3,0.4,0.7,0.9,0.9,1.3c0,0.1,0,0.3,0.1,0.4c0.1,0.5,1,1.6,1,2.1
			c-1.1,0.2-1.1,0.3-2,0.3c-0.4,0-0.8,0-1.3-0.1c-2.6-0.2-5-1-7.5-3.5c-0.7-0.7-1.3-1.2-1.7-2.3C2.1,34.2,2.5,34.7,2.9,34.9z"/>
		<path class="st1" d="M4.1,40c-0.8-0.9-1.3-1.9-2.1-3.2c-0.5-0.8-1-1.9-0.7-2.5c1.2,2.4,3.3,4.2,5,5.1c1.7,0.9,5.2,2,7,1.4
			c-0.3,0.8-2,2.6-2.5,1.7c-0.3-0.6-3.9,1.1-4.5-0.3C5.9,41,3.9,40.9,4.1,40z"/>
	</g>
	<g>
		<path class="st1" d="M6.7,23.9c0.6,0.5,1.7-0.1,2.1,0.6c1.2,1.9,3.7,2.9,2.1,1.5c-0.2-0.2-1.1-2.1-0.9-2.2
			c0.1-0.1,0.4,0.1,0.6,0.2c0.4,0.1,0.8,0,1.1,0.2c1.2,0.4,2.3,1.6,3.2,3.3c0.2,0.4,0.5,1,0.6,1.4c0,0.1,0,0.2,0,0.4
			c0,0.5,0.6,1.7,0.5,2.1c-1-0.1-1,0-1.9-0.2c-0.4-0.1-0.8-0.2-1.2-0.4c-2.3-0.9-4.3-2.2-6-5.1C6.5,24.7,6,24.1,5.8,23
			C6.1,23,6.4,23.6,6.7,23.9z"/>
		<path class="st1" d="M6.9,28.8c-0.6-1-0.8-2.1-1.3-3.5c-0.3-0.9-0.6-1.9-0.1-2.4C6,25.3,7.7,27.5,9,28.8c1.3,1.3,4.3,3.1,6.1,3.1
			c-0.5,0.7-2.3,1.9-2.6,0.9c-0.2-0.7-3.7,0-4-1.4C8.3,30.2,6.5,29.5,6.9,28.8z"/>
	</g>
	<g>
		<path class="st1" d="M11.2,14.8c0.5,0.6,1.5,0.1,1.8,0.8c0.8,1.9,3,3.1,1.7,1.6c-0.2-0.2-0.8-2-0.5-2.1c0.1,0,0.3,0.2,0.5,0.2
			c0.4,0.1,0.7,0.1,1,0.3c1,0.5,1.9,1.7,2.5,3.4c0.1,0.4,0.3,0.9,0.4,1.3c0,0.1,0,0.2-0.1,0.3c0,0.4,0.3,1.6,0.2,2
			c-0.9-0.2-0.9-0.2-1.6-0.5c-0.3-0.1-0.6-0.3-1-0.5c-2-1.1-3.6-2.6-4.8-5.4c-0.3-0.8-0.7-1.4-0.7-2.4C10.7,14,10.9,14.6,11.2,14.8z
			"/>
		<path class="st1" d="M10.8,19.2c-0.4-0.9-0.5-2-0.8-3.3c-0.2-0.8-0.3-1.8,0.1-2.2c0.3,2.3,1.5,4.4,2.5,5.7c1,1.3,3.5,3.4,5.1,3.6
			c-0.5,0.5-2.3,1.3-2.4,0.4c-0.1-0.6-3.3-0.5-3.4-1.8C11.9,20.6,10.4,19.8,10.8,19.2z"/>
	</g>
	<g>
		<path class="st1" d="M16.2,9c0.3,0.5,1.2,0.3,1.4,0.9c0.5,1.7,2.1,3,1.2,1.6c-0.1-0.2-0.4-1.8-0.2-1.8c0.1,0,0.3,0.2,0.4,0.3
			c0.3,0.1,0.5,0.2,0.8,0.4c0.8,0.6,1.4,1.7,1.7,3.1c0.1,0.4,0.2,0.8,0.2,1.1c0,0.1-0.1,0.2-0.1,0.3c-0.1,0.3,0.1,1.3,0,1.7
			c-0.7-0.3-0.7-0.3-1.3-0.6c-0.2-0.1-0.5-0.3-0.8-0.6c-1.5-1.2-2.7-2.6-3.4-5.1c-0.2-0.7-0.4-1.3-0.3-2.1C16,8.2,16.1,8.7,16.2,9z"
			/>
		<path class="st1" d="M15.5,12.5c-0.2-0.8-0.2-1.7-0.3-2.8C15.1,9,15.1,8.2,15.5,8c0,1.9,0.8,3.8,1.5,5.1c0.7,1.2,2.5,3.3,3.8,3.7
			c-0.5,0.4-2,0.8-2,0c0-0.5-2.7-0.9-2.6-2C16.2,13.9,15.1,12.9,15.5,12.5z"/>
	</g>
	<g>
		<path class="st1" d="M23.2,4.1c0.1,0.5,0.9,0.7,0.8,1.3c-0.1,1.5,0.7,3.1,0.5,1.7c0-0.2,0.2-1.5,0.4-1.5c0.1,0,0.1,0.3,0.2,0.4
			c0.2,0.2,0.3,0.4,0.5,0.6c0.4,0.7,0.6,1.8,0.4,3c-0.1,0.3-0.1,0.7-0.2,0.9c0,0.1-0.1,0.1-0.1,0.2c-0.2,0.2-0.3,1.1-0.5,1.3
			c-0.5-0.5-0.5-0.5-0.8-1c-0.1-0.2-0.3-0.5-0.4-0.7c-0.8-1.5-1.3-3.1-1.1-5.2c0.1-0.6,0.1-1.1,0.4-1.7C23.3,3.4,23.2,3.8,23.2,4.1z
			"/>
		<path class="st1" d="M21.6,6.5c0.1-0.7,0.3-1.4,0.6-2.3C22.4,3.6,22.6,3,23,3c-0.6,1.4-0.6,3.2-0.4,4.4c0.2,1.2,0.9,3.5,1.8,4.3
			c-0.5,0.1-1.7-0.2-1.5-0.8c0.2-0.4-1.8-1.7-1.4-2.5C21.8,7.8,21.2,6.6,21.6,6.5z"/>
	</g>
	<g>
		<path class="st1" d="M38.3,63.5c-0.3,1.2,1,2.5,0.3,3.6c-1.7,2.7-1.6,7.1-0.7,3.9c0.1-0.5,1.9-2.7,2.1-2.4c0.1,0.2,0,0.7,0.1,1
			c0.1,0.7,0.3,1.2,0.3,1.8c0.1,2-0.7,4.4-2.3,6.5c-0.4,0.5-0.9,1.2-1.3,1.5c-0.1,0.1-0.3,0.1-0.4,0.2c-0.5,0.3-1.7,1.7-2.2,1.8
			c-0.4-1.6-0.5-1.6-0.6-3c-0.1-0.6-0.1-1.3-0.1-2c-0.1-4,0.5-7.7,3-11.7c0.7-1.1,1.2-2.1,2.4-2.9C39,62.2,38.5,62.9,38.3,63.5z"/>
		<path class="st1" d="M32.7,66.1c0.9-1.3,2-2.2,3.4-3.7c0.9-0.9,2-1.8,2.7-1.3c-2.5,2.1-4.3,5.6-5.1,8.2c-0.8,2.7-1.6,8-0.6,10.8
			c-1-0.4-3.2-2.7-2.2-3.5c0.7-0.6-1.8-5.7-0.2-6.8C31.8,68.9,31.7,65.8,32.7,66.1z"/>
	</g>
	<g>
		<path class="st1" d="M28.9,56.5c-0.3,0.9,0.8,2.1,0.3,2.9c-1.3,2.2-1.3,5.7-0.6,3.1c0.1-0.4,1.5-2.2,1.7-1.9
			c0.1,0.1,0,0.6,0.1,0.8c0.1,0.5,0.3,1,0.3,1.5c0.1,1.6-0.6,3.5-1.8,5.2c-0.3,0.4-0.7,1-1.1,1.2c-0.1,0.1-0.2,0.1-0.3,0.1
			c-0.4,0.2-1.3,1.4-1.8,1.5c-0.3-1.3-0.4-1.3-0.5-2.4c-0.1-0.5-0.1-1-0.1-1.6c-0.1-3.2,0.4-6.2,2.4-9.5c0.5-0.9,1-1.7,1.9-2.4
			C29.5,55.4,29.1,56,28.9,56.5z"/>
		<path class="st1" d="M24.5,58.5c0.7-1.1,1.6-1.8,2.7-3c0.7-0.7,1.6-1.5,2.2-1.1c-2,1.7-3.4,4.5-4.1,6.6c-0.7,2.1-1.3,6.5-0.5,8.7
			c-0.8-0.3-2.6-2.2-1.8-2.9c0.6-0.5-1.4-4.6-0.2-5.5C23.7,60.8,23.6,58.3,24.5,58.5z"/>
	</g>
	<g>
		<path class="st1" d="M23.7,48.3c-0.4,0.8,0.4,2-0.1,2.7c-1.5,1.8-1.9,5-0.9,2.8c0.1-0.3,1.7-1.7,1.8-1.5c0.1,0.1,0,0.5,0,0.7
			c0,0.5,0.1,0.9,0.1,1.4c-0.1,1.5-1,3.1-2.4,4.5c-0.4,0.3-0.8,0.8-1.1,0.9c-0.1,0-0.2,0-0.3,0.1c-0.4,0.1-1.4,1-1.8,1
			c-0.1-1.3-0.2-1.2-0.2-2.3c0-0.5,0.1-1,0.1-1.5c0.4-3,1.2-5.6,3.5-8.2c0.6-0.7,1.1-1.4,2.1-1.8C24.4,47.4,23.9,47.9,23.7,48.3z"/>
		<path class="st1" d="M19.3,49.4c0.8-0.9,1.7-1.4,2.9-2.2c0.7-0.5,1.6-1.1,2.1-0.6c-2.1,1.2-3.7,3.5-4.6,5.3
			c-0.9,1.8-2,5.7-1.6,7.9c-0.7-0.4-2.1-2.4-1.3-2.9c0.6-0.3-0.7-4.5,0.6-5.1C18.3,51.4,18.6,49.1,19.3,49.4z"/>
	</g>
	<g>
		<path class="st1" d="M22.2,37.8c-0.5,0.7,0.1,2-0.5,2.5c-1.7,1.3-2.5,4.2-1.3,2.4c0.2-0.3,1.8-1.2,1.9-1c0.1,0.1-0.1,0.5-0.1,0.7
			c-0.1,0.5,0,0.9-0.1,1.3c-0.4,1.4-1.4,2.7-2.9,3.7c-0.4,0.2-0.8,0.6-1.2,0.6c-0.1,0-0.2,0-0.3,0c-0.4,0-1.5,0.6-1.8,0.6
			c0.1-1.2,0-1.2,0.2-2.2c0.1-0.4,0.2-0.9,0.3-1.3c0.8-2.7,2-5,4.5-6.9c0.7-0.5,1.2-1.1,2.2-1.3C22.9,37.1,22.4,37.5,22.2,37.8z"/>
		<path class="st1" d="M17.9,38c0.8-0.6,1.8-0.9,3-1.5c0.8-0.4,1.7-0.7,2.1-0.1c-2.1,0.7-4,2.5-5.1,4c-1.1,1.5-2.7,4.9-2.7,7
			c-0.6-0.6-1.6-2.7-0.7-3c0.6-0.2,0-4.3,1.3-4.6C16.7,39.6,17.3,37.5,17.9,38z"/>
	</g>
	<g>
		<path class="st1" d="M22.5,29.7c-0.5,0.4-0.3,1.5-0.9,1.7c-1.5,0.5-2.7,2.5-1.4,1.4c0.2-0.2,1.6-0.4,1.6-0.2
			c0,0.1-0.2,0.3-0.2,0.5c-0.1,0.3-0.2,0.6-0.4,0.9c-0.5,0.9-1.6,1.6-2.9,1.9c-0.3,0.1-0.7,0.2-1,0.2c-0.1,0-0.1-0.1-0.2-0.1
			c-0.3-0.1-1.2,0.1-1.5-0.1c0.3-0.9,0.3-0.9,0.6-1.6c0.1-0.3,0.3-0.6,0.5-0.9c1.1-1.8,2.5-3.2,4.7-3.9c0.6-0.2,1.1-0.4,1.9-0.3
			C23.2,29.5,22.7,29.6,22.5,29.7z"/>
		<path class="st1" d="M19.3,28.7c0.8-0.2,1.5-0.2,2.5-0.3c0.6-0.1,1.4,0,1.6,0.5c-1.7-0.1-3.5,0.8-4.6,1.6c-1.1,0.8-3,2.9-3.4,4.5
			c-0.3-0.6-0.6-2.4,0.1-2.4c0.5,0,0.9-3.2,1.9-3.1C18.1,29.6,18.9,28.2,19.3,28.7z"/>
	</g>
	<g>
		<path class="st1" d="M23.9,22.1c-0.4,0.3-0.3,1.2-0.7,1.4c-1.2,0.4-2.2,2-1.2,1.1c0.2-0.1,1.3-0.4,1.3-0.2c0,0.1-0.2,0.3-0.2,0.4
			c-0.1,0.3-0.2,0.5-0.3,0.8c-0.4,0.8-1.3,1.3-2.3,1.6c-0.3,0.1-0.6,0.2-0.8,0.1c-0.1,0-0.1-0.1-0.2-0.1c-0.3-0.1-1,0.1-1.2-0.1
			c0.2-0.7,0.2-0.7,0.5-1.3c0.1-0.2,0.3-0.5,0.4-0.7c0.9-1.4,2-2.6,3.8-3.2c0.5-0.2,0.9-0.4,1.5-0.3C24.4,21.9,24.1,22,23.9,22.1z"
			/>
		<path class="st1" d="M21.3,21.3c0.6-0.2,1.2-0.2,2.1-0.2c0.5,0,1.1,0,1.3,0.4c-1.4-0.1-2.8,0.6-3.7,1.3c-0.9,0.7-2.4,2.3-2.8,3.6
			c-0.2-0.5-0.5-2,0-2c0.4,0,0.7-2.6,1.5-2.5C20.3,22,21,20.9,21.3,21.3z"/>
	</g>
	<g>
		<path class="st1" d="M26.5,15.2c-0.3,0.3-0.2,1.1-0.6,1.2c-1.1,0.4-1.9,1.7-1,1C25,17.2,26,17,26,17.2c0,0.1-0.1,0.2-0.2,0.3
			c-0.1,0.2-0.1,0.4-0.3,0.7c-0.4,0.7-1.1,1.1-2,1.4c-0.2,0.1-0.5,0.1-0.7,0.1c-0.1,0-0.1-0.1-0.2-0.1c-0.2-0.1-0.9,0.1-1.1,0
			c0.2-0.6,0.2-0.6,0.4-1.1c0.1-0.2,0.2-0.4,0.4-0.6c0.8-1.2,1.8-2.2,3.3-2.8c0.4-0.1,0.8-0.3,1.3-0.2C27,15,26.7,15,26.5,15.2z"/>
		<path class="st1" d="M24.2,14.4c0.5-0.2,1.1-0.1,1.8-0.2c0.5,0,1,0,1.1,0.3c-1.2-0.1-2.5,0.5-3.3,1.1c-0.8,0.6-2.1,2-2.4,3.2
			c-0.2-0.4-0.4-1.7,0-1.7c0.3,0,0.6-2.2,1.3-2.2C23.4,15,24,14.1,24.2,14.4z"/>
	</g>
	<g>
		<path class="st1" d="M30.3,9.1c-0.3,0.2-0.2,0.9-0.6,1.1c-0.9,0.3-1.7,1.5-0.9,0.9c0.1-0.1,1-0.3,1-0.1c0,0.1-0.1,0.2-0.2,0.3
			c-0.1,0.2-0.1,0.4-0.2,0.6c-0.3,0.6-1,1-1.8,1.2c-0.2,0-0.5,0.1-0.6,0.1c0,0-0.1,0-0.1-0.1c-0.2-0.1-0.8,0.1-0.9,0
			c0.2-0.5,0.2-0.5,0.4-1c0.1-0.2,0.2-0.4,0.3-0.6c0.7-1.1,1.5-2,2.9-2.5c0.4-0.1,0.7-0.3,1.2-0.2C30.7,8.9,30.5,9,30.3,9.1z"/>
		<path class="st1" d="M28.3,8.5c0.5-0.1,1-0.1,1.6-0.2c0.4,0,0.9,0,1,0.3c-1.1-0.1-2.2,0.5-2.9,1c-0.7,0.5-1.9,1.8-2.1,2.8
			c-0.2-0.4-0.4-1.5,0-1.5c0.3,0,0.6-2,1.2-1.9C27.6,9,28.1,8.2,28.3,8.5z"/>
	</g>
	<g>
		<path class="st1" d="M28.8,0.8c-0.1,0.4-0.7,0.6-0.6,1c0.1,1.1-0.5,2.4-0.3,1.3C27.9,3,27.7,2,27.6,2c-0.1,0-0.1,0.2-0.2,0.3
			c-0.1,0.2-0.3,0.3-0.4,0.5c-0.3,0.6-0.4,1.4-0.2,2.4c0,0.2,0.1,0.5,0.2,0.7c0,0,0.1,0.1,0.1,0.1c0.1,0.2,0.3,0.8,0.4,1
			c0.4-0.4,0.4-0.4,0.6-0.8c0.1-0.2,0.2-0.4,0.3-0.6c0.6-1.2,1-2.4,0.8-4.1c0-0.5-0.1-0.9-0.3-1.3C28.8,0.3,28.9,0.6,28.8,0.8z"/>
		<path class="st1" d="M30.1,2.7c-0.1-0.6-0.3-1.1-0.5-1.7C29.5,0.5,29.3,0,29,0c0.5,1.1,0.5,2.5,0.3,3.4c-0.1,1-0.7,2.7-1.4,3.4
			c0.4,0.1,1.4-0.2,1.2-0.6c-0.1-0.3,1.3-1.4,1-2C30,3.7,30.5,2.8,30.1,2.7z"/>
	</g>
</g>
<g>
</g>
<g>
</g>
<g>
</g>
<g>
</g>
<g>
</g>
<g>
</g>
</svg>
