<?xml version="1.0" standalone="no"?>
<!DOCTYPE svg PUBLIC "-//W3C//DTD SVG 20010904//EN"
 "http://www.w3.org/TR/2001/REC-SVG-20010904/DTD/svg10.dtd">
<svg version="1.0" xmlns="http://www.w3.org/2000/svg"
 width="700.000000pt" height="700.000000pt" viewBox="0 0 700.000000 700.000000"
 preserveAspectRatio="xMidYMid meet">
<metadata>
Created by potrace 1.11, written by Peter Selinger 2001-2013
</metadata>
<g transform="translate(0.000000,700.000000) scale(0.100000,-0.100000)"
fill="#000000" stroke="none">
<path d="M0 3500 l0 -3500 3500 0 3500 0 0 1081 c0 970 -2 1079 -15 1065 -25
-25 -77 -29 -279 -22 -105 3 -371 9 -591 12 -233 3 -411 10 -427 16 -70 27
-33 84 74 114 154 42 179 82 115 178 -45 66 -1045 1179 -1105 1229 -80 66 -77
75 -75 -288 3 -437 18 -785 38 -860 19 -73 69 -158 112 -191 36 -28 100 -52
221 -85 118 -32 152 -80 79 -111 -37 -15 -222 -15 -363 2 -122 14 -304 12
-589 -5 -303 -18 -385 -8 -385 45 0 31 35 49 168 84 73 20 149 44 170 55 54
28 106 89 128 152 18 52 19 106 19 1254 0 1124 -1 1203 -18 1251 -34 98 -98
141 -273 184 -121 30 -140 38 -167 68 -28 30 -18 65 20 77 22 7 237 11 623 10
l590 0 22 -22 c18 -19 20 -26 10 -47 -15 -33 -53 -52 -169 -82 -165 -43 -202
-75 -228 -201 -12 -54 -15 -173 -15 -589 0 -597 -3 -575 73 -530 57 32 1070
1065 1097 1116 31 60 30 117 -4 157 -17 20 -47 36 -98 52 -84 26 -102 37 -112
67 -9 28 15 52 57 58 66 10 1169 25 1192 16 39 -15 48 -43 24 -74 -26 -34 -66
-50 -181 -75 -215 -47 -383 -109 -531 -198 -147 -89 -418 -326 -709 -620 -294
-298 -388 -402 -388 -430 0 -14 22 -47 57 -86 239 -261 1187 -1273 1273 -1358
136 -136 171 -153 469 -229 24 -6 54 -22 67 -35 l24 -24 0 2409 0 2410 -3500
0 -3500 0 0 -3500z m2045 1825 c249 -33 455 -91 640 -180 483 -233 746 -627
797 -1194 13 -152 1 -346 -32 -499 -89 -419 -353 -806 -710 -1044 -196 -130
-397 -215 -622 -260 -103 -21 -138 -23 -393 -22 -154 0 -424 6 -601 12 -231 7
-365 7 -480 -1 -87 -6 -223 -11 -301 -12 -129 0 -144 2 -170 21 -34 25 -40 55
-16 75 10 9 65 26 123 39 58 12 129 32 159 43 70 25 133 84 157 145 18 45 19
95 19 1272 l0 1225 -28 56 c-43 89 -113 128 -301 168 -113 25 -134 34 -145 64
-12 30 4 56 45 73 29 12 98 14 427 9 335 -5 430 -3 652 14 299 23 587 21 780
-4z"/>
<path d="M1390 5190 c-215 -11 -302 -47 -346 -145 l-24 -52 2 -1194 3 -1194
28 -60 c32 -68 55 -96 112 -134 57 -39 136 -69 240 -92 127 -29 413 -37 550
-16 545 84 938 499 1047 1106 30 170 30 460 -1 626 -58 313 -186 561 -401 775
-114 114 -195 173 -335 243 -253 126 -464 159 -875 137z"/>
</g>
</svg>
