<?xml version="1.0" standalone="no"?>
<!DOCTYPE svg PUBLIC "-//W3C//DTD SVG 20010904//EN"
 "http://www.w3.org/TR/2001/REC-SVG-20010904/DTD/svg10.dtd">
<svg version="1.0" xmlns="http://www.w3.org/2000/svg"
 width="700.000000pt" height="700.000000pt" viewBox="0 0 700.000000 700.000000"
 preserveAspectRatio="xMidYMid meet">
<metadata>
Created by potrace 1.11, written by Peter Selinger 2001-2013
</metadata>
<g transform="translate(0.000000,700.000000) scale(0.100000,-0.100000)"
fill="#000000" stroke="none">
<path d="M0 3500 l0 -3500 3500 0 3500 0 0 3500 0 3500 -3500 0 -3500 0 0
-3500z m2038 1824 c456 -59 795 -208 1048 -459 110 -110 193 -226 253 -356
205 -448 197 -991 -21 -1437 -228 -463 -655 -802 -1148 -912 -207 -46 -307
-48 -1020 -19 -209 8 -336 8 -530 -1 -140 -7 -297 -11 -348 -9 -83 4 -96 7
-112 27 -14 16 -17 29 -11 45 7 19 30 27 147 57 175 44 237 77 281 150 19 32
35 74 40 109 4 31 8 580 8 1221 0 1130 -1 1167 -20 1225 -37 114 -114 165
-315 207 -130 27 -145 35 -145 78 0 64 5 64 480 62 334 -1 472 2 675 18 286
21 543 19 738 -6z m3054 -32 c18 -18 20 -25 10 -46 -15 -33 -50 -50 -164 -79
-167 -42 -213 -85 -238 -216 -13 -70 -13 -1100 0 -1121 23 -37 95 27 559 499
573 583 604 617 619 668 26 87 -8 134 -131 178 -52 19 -84 37 -94 52 -15 23
-15 26 6 46 23 24 34 24 1017 38 242 4 258 0 252 -50 -5 -38 -57 -67 -166 -91
-306 -68 -529 -165 -697 -303 -263 -218 -507 -448 -747 -704 -234 -250 -223
-235 -204 -270 14 -28 1125 -1224 1319 -1421 133 -135 185 -161 463 -232 50
-12 94 -45 94 -70 0 -39 -26 -45 -184 -44 -414 1 -1085 17 -1113 26 -27 8 -33
15 -33 39 0 37 29 56 113 75 108 25 159 72 138 127 -16 42 -78 114 -572 664
-490 547 -560 622 -611 648 -23 13 -27 13 -32 -1 -15 -39 5 -917 25 -1087 16
-146 63 -241 145 -296 26 -16 92 -42 161 -61 65 -17 126 -39 136 -47 26 -24
22 -58 -10 -72 -33 -15 -251 -16 -363 -1 -98 12 -340 12 -515 0 -77 -6 -201
-11 -276 -12 -114 -2 -140 0 -162 15 -31 20 -35 47 -9 70 10 9 77 32 150 51
73 20 149 44 170 55 54 28 106 89 128 152 18 52 19 106 19 1254 0 1138 -1
1203 -18 1253 -34 97 -95 138 -274 183 -124 31 -139 37 -166 67 -28 30 -18 65
20 77 21 7 238 10 623 10 589 -1 591 -2 612 -23z"/>
<path d="M1340 5190 c-174 -13 -279 -68 -311 -165 -18 -52 -26 -2233 -9 -2360
26 -197 137 -295 400 -352 68 -14 130 -18 310 -18 214 0 230 1 332 28 239 62
418 166 579 334 220 231 350 546 380 925 40 489 -106 914 -421 1228 -187 187
-398 301 -665 361 -103 23 -412 33 -595 19z"/>
</g>
</svg>
